<?xml version="1.0" standalone="no"?>
<!DOCTYPE svg PUBLIC "-//W3C//DTD SVG 1.1//EN" "http://www.w3.org/Graphics/SVG/1.1/DTD/svg11.dtd" >
<svg xmlns="http://www.w3.org/2000/svg">
<metadata>Generated by IcoMoon</metadata>
<defs>
<font id="activity-cloud" horiz-adv-x="1024">
<font-face units-per-em="1024" ascent="960" descent="-64" />
<missing-glyph horiz-adv-x="1024" />
<glyph unicode="&#x20;" horiz-adv-x="512" d="" />
<glyph unicode="&#xe600;" glyph-name="uniE600" horiz-adv-x="990" d="M958.259-64h-926.794c-17.362 0-31.466 14.074-31.466 31.466v961.068c0 17.362 14.104 31.466 31.466 31.466h695.118c7.799 0 15.3-2.899 21.067-8.098l231.706-208.906c6.634-5.947 10.399-14.433 10.399-23.338v-752.192c-0.030-17.391-14.104-31.466-31.496-31.466zM62.932-1.098h863.862v706.742l-212.312 191.425h-651.549v-898.166zM775.71-1.098v231.377h-561.754v-231.347h-65.083v263.919c0 17.989 14.553 32.571 32.542 32.571h626.867c17.989 0 32.571-14.582 32.571-32.571v-263.919h-65.143zM211.565 897.068v-238.101h413.807v238.101l28.776 0.359 27.611-0.359v-266.279c0-15.569-12.61-28.179-28.179-28.179h-470.195c-15.569 0-28.179 12.61-28.179 28.179v266.279zM507.129 658.968h-28.179v238.101c12.61 0 12.61 0 28.179 0s7.889-0.090 28.179 0v-238.101h-28.179z" />
<glyph unicode="&#xe601;" glyph-name="uniE601" d="M512-64c-282.3 0-512 229.666-512 512 0 282.318 229.682 512 512 512 282.334 0 512-229.682 512-512 0-282.334-229.666-512-512-512zM512 908.8c-254.080 0-460.8-206.72-460.8-460.8 0-254.062 206.712-460.8 460.8-460.8 254.062 0 460.8 206.736 460.8 460.8 0 254.080-206.736 460.8-460.8 460.8zM512 188.202c-14.13 0-25.6 11.452-25.6 25.6v468.394c0 14.13 11.468 25.6 25.6 25.6s25.6-11.47 25.6-25.6v-468.404c0-14.148-11.47-25.592-25.6-25.592zM746.198 422.4h-468.394c-14.13 0-25.6 11.47-25.6 25.6s11.47 25.6 25.6 25.6h468.404c14.148 0 25.6-11.468 25.6-25.6s-11.452-25.6-25.61-25.6z" />
<glyph unicode="&#xe602;" glyph-name="uniE602" d="M512.034-64c-14.348 0-25.964 11.632-25.964 25.962v972.072c0 14.322 11.614 25.962 25.964 25.962 14.332 0 25.962-11.64 25.962-25.962v-972.072c0-14.332-11.632-25.962-25.962-25.962zM998.038 422.002h-972.072c-14.332 0-25.964 11.632-25.964 25.962 0 14.342 11.632 25.964 25.964 25.964h972.072c14.332 0 25.962-11.622 25.962-25.964 0-14.332-11.632-25.962-25.962-25.962z" />
<glyph unicode="&#xe603;" glyph-name="uniE603" horiz-adv-x="846" d="M674.942-63.99h-504.394c-49.248 0-94.126 19.35-126.392 54.506-32.264 35.13-47.692 81.548-43.464 130.62l45.256 524.838c8.554 99.606 96.888 180.654 196.86 180.654h359.876c99.99 0 188.29-81.024 196.86-180.654l45.254-524.838c4.212-49.072-11.2-95.456-43.464-130.62-32.246-35.13-77.126-54.506-126.39-54.506zM242.806 774.21c-73.456 0-138.334-59.522-144.658-132.726l-45.256-524.856c-2.954-34.282 7.644-66.458 29.86-90.676 22.216-24.2 53.372-37.54 87.776-37.54h504.394c34.404 0 65.558 13.342 87.776 37.54 22.216 24.208 32.842 56.394 29.888 90.676l-45.264 524.856c-6.318 73.202-71.168 132.726-144.668 132.726h-359.848zM632.316 107.48h-419.1c-14.46 0-26.21 11.732-26.21 26.21v228.566c0 14.476 11.752 26.21 26.21 26.21h419.11c14.486 0 26.21-11.732 26.21-26.21v-228.566c-0.010-14.476-11.732-26.21-26.218-26.21zM239.426 159.9h366.69v176.146h-366.69v-176.146zM575.152 602.772h-304.818c-14.46 0-26.21 11.75-26.21 26.21 0 14.468 11.752 26.21 26.21 26.21h304.818c14.504 0 26.21-11.742 26.21-26.21 0-14.46-11.706-26.21-26.21-26.21zM751.9 731.146c-3.076 0-6.178 0.542-9.216 1.678-13.55 5.086-20.408 20.2-15.324 33.732l41.892 111.722-83.836 23.956-48.086-112.142c-5.696-13.306-21.204-19.474-34.404-13.77-13.306 5.696-19.482 21.108-13.77 34.414l57.182 133.372c5.198 12.136 18.678 18.514 31.278 14.878l133.318-38.116c7.058-2 12.922-6.858 16.198-13.394 3.32-6.534 3.73-14.144 1.172-21.004l-51.878-138.324c-3.914-10.51-13.934-17-24.524-17zM95.498 726.174c-10.58 0-20.566 6.484-24.522 16.994l-53.766 143.298c-2.56 6.866-2.15 14.468 1.144 21.002s9.164 11.402 16.198 13.402l133.354 38.116c12.764 3.634 26.104-2.742 31.294-14.878l57.146-133.372c5.714-13.306-0.446-28.716-13.752-34.412-13.296-5.696-28.734 0.462-34.404 13.77l-48.094 112.15-83.836-23.964 43.77-116.658c5.102-13.568-1.73-28.656-15.306-33.758-3.014-1.144-6.168-1.686-9.226-1.686z" />
<glyph unicode="&#xe604;" glyph-name="uniE604" d="M996.33-64h-713.766c-15.264 0-27.652 12.37-27.652 27.652v713.756c0 15.274 12.388 27.652 27.652 27.652h713.766c15.282 0 27.652-12.378 27.652-27.652v-713.756c0-15.282-12.37-27.652-27.652-27.652zM310.216-8.696h658.462v658.452h-658.462v-658.452zM282.564 190.912h-254.912c-15.264 0-27.652 12.37-27.652 27.652v713.784c0 15.264 12.388 27.652 27.652 27.652h713.766c15.282 0 27.652-12.388 27.652-27.652v-254.94c0-15.264-12.37-27.652-27.652-27.652-15.264 0-27.652 12.388-27.652 27.652v227.288h-658.462v-658.462h227.26c15.254 0 27.652-12.37 27.652-27.652s-12.388-27.67-27.652-27.67z" />
<glyph unicode="&#xe605;" glyph-name="uniE605" horiz-adv-x="1018" d="M768.438 236.87c-9.932 0-19.406 5.682-23.736 15.328-5.864 13.092 0 28.464 13.092 34.352 116.836 52.312 192.304 168.734 192.304 296.592 0 179.142-145.688 324.9-324.806 324.9s-324.832-145.76-324.832-324.908c0-9.534 0.39-18.966 1.212-28.326 1.222-14.298-9.37-26.88-23.658-28.11-14.678-1.204-26.878 9.404-28.11 23.658-0.902 10.808-1.386 21.752-1.386 32.76 0 207.796 169.026 376.866 376.798 376.866 207.726 0 376.764-169.062 376.764-376.866 0-148.296-87.524-283.326-223.002-344.028-3.49-1.49-7.126-2.216-10.644-2.216zM654.538 597.836c0-24.256-19.65-43.836-43.836-43.836-24.264 0-43.836 19.606-43.836 43.836 0 24.204 19.606 43.836 43.836 43.836 24.186 0.010 43.836-19.632 43.836-43.836zM665.874 162.596h-665.864v201.354c0 61.968 50.52 84.456 84.466 84.456h10.754l7.612-7.612c1.404-1.368 37.886-36.24 98.59-36.24 56.236 0 78.258 43.48 78.466 43.922l10.634 21.572 22.324-8.884c0 0 146.694-58.452 219.806-87.696 43.246-17.336 133.246-53.36 133.246-126.466v-84.414h-0.034v0.010zM51.966 214.554h561.966v32.456c0 37.956-70.508 66.168-100.582 78.188-56.824 22.784-158.158 63.154-200.41 79.998-17.5-21.614-52.824-52.6-111.51-52.6-62.73 0-106.808 28.264-125.442 42.89-11.266-2.302-24.004-9.76-24.004-31.564l-0.018-149.37zM391.45 308.778c-8.4 0-16.652 4.062-21.65 11.604-7.958 11.908-4.712 28.040 7.222 35.99l43.86 29.192c11.924 8.052 28.040 4.77 36.024-7.222 7.95-11.924 4.702-28.058-7.238-36.006l-43.852-29.192c-4.434-2.98-9.44-4.364-14.366-4.364zM749.506-63.99c-67.572 0-102.902 21.414-134.068 40.318-29.028 17.57-54.088 32.76-107.144 32.76-53.006 0-78.074-15.188-107.068-32.76-31.182-18.93-66.514-40.318-134.050-40.318s-102.884 21.414-134.042 40.318c-29.036 17.57-54.088 32.76-107.128 32.76-14.34 0-25.978 11.64-25.978 25.98 0 14.358 11.638 25.98 25.978 25.98 67.554 0 102.886-21.414 134.042-40.302 29.036-17.57 54.088-32.778 107.128-32.778 53.024 0 78.1 15.206 107.094 32.778 31.176 18.914 66.506 40.302 134.042 40.302 67.588 0 102.92-21.414 134.060-40.302 29.036-17.57 54.088-32.778 107.144-32.778s78.118 15.206 107.144 32.778c31.182 18.914 66.514 40.302 134.042 40.302 14.34 0 25.98-11.62 25.98-25.98 0-14.34-11.64-25.98-25.98-25.98-53.040 0-78.11-15.188-107.128-32.76-31.166-18.904-66.496-40.318-134.068-40.318z" />
<glyph unicode="&#xe606;" glyph-name="uniE606" horiz-adv-x="866" d="M839.51-64c-3.648 0-7.294 0.74-10.738 2.274l-395.798 175.866-395.814-175.866c-8.192-3.612-17.654-2.872-25.14 1.982-7.504 4.88-12.016 13.206-12.016 22.19v971.126c0 14.606 11.84 26.428 26.428 26.428h813.064c14.606 0 26.428-11.822 26.428-26.428v-971.144c0-8.968-4.51-17.31-12.024-22.182-4.342-2.802-9.364-4.246-14.384-4.246zM432.974 169.514c3.646 0 7.32-0.758 10.738-2.274l369.388-164.142v904.044h-760.236v-904.044l369.37 164.142c3.428 1.514 7.092 2.274 10.738 2.274z" />
<glyph unicode="&#xe607;" glyph-name="uniE607" horiz-adv-x="972" d="M944.294-63.99h-916.178c-15.516 0-28.126 12.6-28.126 28.126v876.364c0 15.516 12.608 28.126 28.126 28.126h916.178c15.534 0 28.126-12.61 28.126-28.126v-876.364c0-15.534-12.592-28.126-28.126-28.126zM56.24-7.74h859.928v820.114h-859.928v-820.114zM176.334 960h56.25v-199.172h-56.25v199.172zM738.85 960h56.25v-199.172h-56.25v199.172zM53.326 669.442h863.932v-56.25h-863.932v56.25z" />
<glyph unicode="&#xe608;" glyph-name="uniE608" d="M898.384-64h-772.754c-69.26 0-125.618 56.36-125.618 125.636v651.992c0 69.26 56.36 125.598 125.618 125.598h96.568c46.186 0 49.56 6.142 63.69 31.96 2.418 4.458 4.99 9.138 7.882 14.090 1.626 2.756 3.154 5.646 4.7 8.548 14.178 26.36 35.576 66.174 116.924 66.174h193.202c80.746 0 102.186-39.378 116.392-65.458 1.692-3.046 3.336-6.102 5.058-9.014 3.134-5.232 5.89-10.202 8.5-14.882 14.070-25.384 17.456-31.43 63.254-31.43h96.548c69.26 0 125.598-56.338 125.598-125.598v-651.982c0.068-69.278-56.292-125.636-125.558-125.636zM125.626 781.206c-37.268 0-67.596-30.316-67.596-67.576v-651.982c0-37.278 30.336-67.616 67.596-67.616h772.764c37.27 0 67.596 30.336 67.596 67.616v651.982c0 37.27-30.336 67.576-67.596 67.576h-96.548c-74.432 0-93.472 24.292-114.004 61.31-2.274 4.168-4.738 8.538-7.486 13.182-2.166 3.606-4.206 7.33-6.256 11.082-11.952 21.962-19.186 35.2-65.458 35.2h-193.232c-46.668 0-54.26-14.168-65.788-35.616-1.886-3.52-3.79-7.012-5.744-10.396-2.62-4.438-4.922-8.664-7.098-12.63-20.512-37.53-39.57-62.14-114.574-62.14l-96.576 0.010zM512.004 631.51c123.374 0 223.762-100.378 223.762-223.762 0-123.356-100.388-223.722-223.762-223.722s-223.742 100.368-223.742 223.722c0.010 123.394 100.378 223.762 223.742 223.762zM512.004 689.53c-155.654 0-281.764-126.14-281.764-281.782 0-155.616 126.11-281.746 281.764-281.746s281.784 126.13 281.784 281.746c0 155.654-126.13 281.784-281.784 281.784v0z" />
<glyph unicode="&#xe609;" glyph-name="uniE609" horiz-adv-x="1368" d="M1181.358-64c-11.51 0-22.702 5.866-29.042 16.44l-573.736 956.266c-9.612 16.044-4.434 36.828 11.588 46.454 16.068 9.636 36.85 4.456 46.454-11.61l573.736-956.288c9.614-16.022 4.434-36.806-11.588-46.432-5.462-3.284-11.486-4.828-17.41-4.828zM186.83-64c-5.946 0-11.95 1.546-17.41 4.828-16.022 9.636-21.2 30.408-11.588 46.432l573.736 956.288c9.614 16.022 30.364 21.246 46.454 11.61 16.022-9.636 21.202-30.408 11.588-46.454l-573.736-956.266c-6.342-10.572-17.534-16.44-29.044-16.44zM875.364-64h-382.528c-12.006 0-23.096 6.342-29.178 16.698-6.082 10.312-6.24 23.096-0.416 33.592l191.286 344.232c11.928 21.506 47.232 21.506 59.148 0l191.288-344.232c5.822-10.494 5.688-23.266-0.394-33.592-6.082-10.346-17.196-16.698-29.202-16.698zM550.37 3.7h267.472l-133.754 240.72-133.72-240.72zM1334.348-64h-1300.5c-18.708 0-33.85 15.142-33.85 33.85s15.142 33.85 33.85 33.85h1300.5c18.73 0 33.85-15.142 33.85-33.85s-15.12-33.85-33.85-33.85z" />
<glyph unicode="&#xe60a;" glyph-name="uniE60A" horiz-adv-x="890" d="M327.516 304.948h-224.814c-56.632 0-102.702 46.070-102.702 102.702v214.87c0 56.632 46.070 102.702 102.702 102.702h224.814c14.174 0 25.676-11.502 25.676-25.676s-11.502-25.676-25.676-25.676h-224.814c-28.32 0-51.35-23.032-51.35-51.35v-214.86c0-28.312 23.032-51.35 51.35-51.35h224.814c14.174 0 25.676-11.476 25.676-25.676 0-14.182-11.502-25.684-25.676-25.684zM864.144 70.164c-3.476 0-6.984 0.702-10.278 2.174l-536.644 234.794c-9.346 4.092-15.38 13.308-15.38 23.502v368.916c0 10.192 6.034 19.428 15.38 23.52l536.644 234.794c7.924 3.458 17.1 2.688 24.322-2.020 7.274-4.75 11.63-12.838 11.63-21.5v-838.51c0-8.66-4.366-16.75-11.63-21.482-4.246-2.782-9.132-4.184-14.044-4.184zM353.192 347.442l485.276-212.328v759.952l-485.276-212.302v-335.322zM193.372-64c-14.174 0-25.676 11.486-25.676 25.676v368.948c0 14.206 11.504 25.676 25.676 25.676s25.676-11.468 25.676-25.676v-368.95c0-14.19-11.504-25.676-25.676-25.676z" />
<glyph unicode="&#xe60b;" glyph-name="uniE60B" horiz-adv-x="1610" d="M984.072 100.198c-14.674 0-26.584 11.908-26.584 26.584v248.806l-225.722 156.284c-6.47 4.5-10.626 11.626-11.35 19.486-0.692 7.842 2.11 15.614 7.682 21.188l229.904 229.868c5.698 5.68 13.566 8.462 21.586 7.646 7.976-0.85 15.162-5.228 19.52-11.98l123.728-190.516h182.382c14.674 0 26.584-11.892 26.584-26.584 0-14.674-11.91-26.584-26.584-26.584h-196.816c-9.002 0-17.394 4.572-22.296 12.114l-113.706 175.096-184.18-184.136 210.994-146.068c7.178-4.98 11.44-13.124 11.44-21.87v-262.742c0-14.682-11.874-26.592-26.584-26.592zM1283.324 860.25c0-55.092-44.66-99.75-99.75-99.75s-99.75 44.66-99.75 99.75c0 55.092 44.66 99.75 99.75 99.75s99.75-44.66 99.75-99.75zM595.11-63.99c-130.154 0-236.036 105.918-236.036 236.098 0 130.118 105.882 235.982 236.036 235.982s236.036-105.866 236.036-235.982c0-130.18-105.882-236.098-236.036-236.098zM595.11 354.904c-100.832 0-182.87-82.020-182.87-182.816 0-100.866 82.038-182.932 182.87-182.932s182.87 82.064 182.87 182.932c0 100.796-82.038 182.816-182.87 182.816zM1373.060-63.99c-130.136 0-236 105.918-236 236.098 0 130.118 105.866 235.982 236 235.982 130.18 0 236.070-105.866 236.070-235.982 0-130.18-105.892-236.098-236.070-236.098zM1373.060 354.904c-100.832 0-182.834-82.020-182.834-182.816 0-100.866 82.002-182.932 182.834-182.932 100.866 0 182.904 82.064 182.904 182.932 0 100.796-82.038 182.816-182.904 182.816zM166.246-63.99c-14.674 0-26.584 11.892-26.584 26.584v361.112l-95.782-82.090c-11.182-9.534-27.948-8.26-37.482 2.906-9.552 11.13-8.26 27.93 2.872 37.482l139.67 119.678c7.914 6.788 18.99 8.276 28.418 3.934 9.412-4.316 15.472-13.76 15.472-24.148v-418.894c0-14.682-11.908-26.566-26.584-26.566z" />
<glyph unicode="&#xe60c;" glyph-name="uniE60C" horiz-adv-x="1126" d="M435.676-64c-8.172 0-15.98 3.472-21.452 9.644l-406.98 457.876c-10.526 11.808-9.454 29.978 2.392 40.514 11.884 10.506 29.978 9.454 40.514-2.392l382.59-430.394 640.568 936.236c8.936 13.080 26.762 16.468 39.882 7.492 13.080-8.956 16.43-26.82 7.472-39.9l-661.294-966.568c-4.986-7.292-13.060-11.884-21.864-12.448-0.612-0.020-1.214-0.058-1.828-0.058z" />
<glyph unicode="&#xe60d;" glyph-name="uniE60D" d="M691.2-64h-358.4c-14.13 0-25.6 11.452-25.6 25.6v281.6h-281.6c-14.132 0-25.6 11.452-25.6 25.6v358.4c0 14.13 11.468 25.6 25.6 25.6h281.6v281.6c0 14.13 11.468 25.6 25.6 25.6h358.4c14.148 0 25.6-11.47 25.6-25.6v-281.6h281.6c14.148 0 25.6-11.468 25.6-25.6v-358.4c0-14.148-11.452-25.6-25.6-25.6h-281.6v-281.6c0-14.148-11.452-25.6-25.6-25.6zM358.4-12.8h307.2v281.6c0 14.148 11.452 25.6 25.6 25.6h281.6v307.2h-281.6c-14.148 0-25.6 11.468-25.6 25.6v281.6h-307.2v-281.6c0-14.13-11.468-25.6-25.6-25.6h-281.6v-307.2h281.6c14.132 0 25.6-11.452 25.6-25.6v-281.6z" />
<glyph unicode="&#xe60e;" glyph-name="uniE60E" d="M512-64c-282.3 0-512 229.7-512 512s229.7 512 512 512c282.3 0 512-229.7 512-512s-229.7-512-512-512zM512 907.528c-253.39 0-459.528-206.14-459.528-459.528s206.14-459.528 459.528-459.528 459.528 206.14 459.528 459.528c0 253.39-206.148 459.528-459.528 459.528zM795.324 421.764h-283.324c-14.482 0-26.236 11.754-26.236 26.236v283.358c0 14.482 11.752 26.236 26.236 26.236s26.234-11.754 26.234-26.236v-257.124h257.088c14.518 0 26.236-11.752 26.236-26.234s-11.718-26.236-26.236-26.236z" />
<glyph unicode="&#xe60f;" glyph-name="uniE60F" d="M988.548-63.928c-9.046 0-18.080 3.452-24.982 10.352l-953.212 953.26c-13.804 13.804-13.804 36.158 0 49.962s36.158 13.804 49.964 0l953.212-953.26c13.804-13.804 13.804-36.158 0-49.962-6.902-6.902-15.948-10.352-24.982-10.352zM35.336-64c-9.046 0-18.080 3.452-24.982 10.352-13.804 13.804-13.804 36.158 0 49.962l953.212 953.308c13.804 13.804 36.158 13.804 49.962 0 13.804-13.78 13.804-36.158 0-49.962l-953.212-953.318c-6.902-6.89-15.948-10.342-24.982-10.342z" />
<glyph unicode="&#xe610;" glyph-name="uniE610" horiz-adv-x="902" d="M451.222-64c-5.31 0-10.622 1.618-15.132 4.914-60.060 43.506-261.594 202.386-333.6 420.766-76.078 230.396-97.582 416.53-102.376 468.094-0.956 10.356 4.39 20.264 13.566 25.17 44.738 23.87 167.704 81.424 342.44 99.786 50.642 5.26 82.286 5.26 94.174 5.26 13.798 0 45.426 0 96.032-5.26 113.722-11.956 204.746-40.656 261.068-62.624 37.292-14.538 64.898-28.242 81.494-37.17 9.142-4.908 14.444-14.798 13.498-25.136-4.812-51.494-26.298-237.482-102.36-468.12-72.128-218.57-273.644-377.312-333.686-420.792-4.492-3.254-9.806-4.89-15.116-4.89zM53.292 817.25c7.266-66.91 30.766-235.046 98.236-439.386 62.074-188.192 229.734-330.81 299.702-383.872 69.984 52.992 237.62 195.518 299.788 383.872 67.452 204.59 90.944 372.604 98.184 439.48-15.142 7.514-35.44 16.864-60.558 26.668-53.38 20.814-139.702 48.034-247.664 59.38-47.914 4.976-77.62 4.976-88.784 4.976-13.068 0-42.758 0-90.688-4.976-148.628-15.632-257.082-60.792-308.214-86.142zM600.186 340.014l-143.816 75.572-143.842-75.554 27.486 160.146-116.382 113.404 160.8 23.336 71.938 145.736 71.914-145.736 160.792-23.336-116.39-113.404 27.504-160.164zM334.642 577.498l60.86-59.302-14.392-83.774 75.26 39.546 75.208-39.546-14.394 83.774 60.86 59.302-84.076 12.206-37.626 76.26-37.644-76.26-84.058-12.206z" />
<glyph unicode="&#xe611;" glyph-name="uniE611" horiz-adv-x="626" d="M341.314 419.556h-56.87c-6.798 0-13.368 2.428-18.516 6.856-21.39 18.328-209.038 182.736-209.038 306.034v199.11c0 15.702 12.742 28.444 28.444 28.444h455.11c15.72 0 28.444-12.742 28.444-28.444v-199.11c0-123.298-187.668-287.706-209.058-306.034-5.166-4.428-11.718-6.856-18.516-6.856zM295.11 476.444h35.536c57.164 50.746 181.352 177.37 181.352 256v170.668h-398.222v-170.668c0-78.648 124.18-205.254 181.332-256zM540.444-64h-455.11c-15.7 0-28.444 12.724-28.444 28.444v199.11c0 123.298 187.686 287.706 209.076 306.034 5.14 4.428 11.718 6.856 18.516 6.856h56.85c6.778 0 13.37-2.428 18.498-6.856 21.428-18.336 209.056-182.736 209.056-306.034v-199.11c0-15.72-12.724-28.444-28.444-28.444zM113.778-7.11h398.222v170.668c0 78.63-124.188 205.274-181.332 256h-35.518c-57.164-50.726-181.372-177.37-181.372-256v-170.668zM597.332 903.11h-568.89c-15.702 0-28.444 12.744-28.444 28.444s12.744 28.444 28.444 28.444h568.89c15.72 0 28.444-12.744 28.444-28.444s-12.724-28.444-28.444-28.444zM597.332-64h-568.89c-15.702 0-28.444 12.724-28.444 28.444s12.744 28.444 28.444 28.444h568.89c15.72 0 28.444-12.724 28.444-28.444s-12.724-28.444-28.444-28.444zM540.444 760.89h-455.11c-15.7 0-28.444 12.744-28.444 28.444s12.742 28.444 28.444 28.444h455.11c15.72 0 28.444-12.744 28.444-28.444s-12.724-28.444-28.444-28.444zM341.334 277.332c0-15.708-12.736-28.444-28.444-28.444s-28.444 12.736-28.444 28.444c0 15.708 12.736 28.444 28.444 28.444s28.444-12.736 28.444-28.444zM312.89 234.668c-23.514 0-42.668 19.154-42.668 42.668s19.154 42.668 42.668 42.668c23.514 0 42.668-19.154 42.668-42.668s-19.154-42.668-42.668-42.668zM312.89 291.556c-7.85 0-14.222-6.39-14.222-14.222s6.372-14.222 14.222-14.222c7.85 0 14.222 6.39 14.222 14.222s-6.372 14.222-14.222 14.222zM341.334 163.556c0-15.708-12.736-28.444-28.444-28.444s-28.444 12.736-28.444 28.444c0 15.708 12.736 28.444 28.444 28.444s28.444-12.736 28.444-28.444zM312.89 120.89c-23.514 0-42.668 19.154-42.668 42.668s19.154 42.668 42.668 42.668c23.514 0 42.668-19.154 42.668-42.668s-19.154-42.668-42.668-42.668zM312.89 177.778c-7.85 0-14.222-6.39-14.222-14.222s6.372-14.222 14.222-14.222c7.85 0 14.222 6.39 14.222 14.222s-6.372 14.222-14.222 14.222z" />
<glyph unicode="&#xe612;" glyph-name="uniE612" horiz-adv-x="1250" d="M625.044 100.192c-14.674 0-26.584 11.91-26.584 26.584v248.808l-225.76 156.288c-6.468 4.502-10.626 11.626-11.35 19.486-0.69 7.842 2.108 15.614 7.682 21.188l229.908 229.872c5.68 5.68 13.708 8.374 21.586 7.648 7.976-0.85 15.144-5.228 19.522-11.98l123.73-190.52h182.384c14.674 0 26.584-11.892 26.584-26.584 0-14.674-11.91-26.584-26.584-26.584h-196.818c-9.004 0-17.394 4.572-22.294 12.114l-113.718 175.1-184.182-184.14 211.006-146.072c7.178-4.98 11.466-13.124 11.466-21.87v-262.748c0.010-14.682-11.9-26.592-26.576-26.592zM924.264 860.258c0-55.11-44.706-99.744-99.744-99.744-55.072 0-99.742 44.634-99.742 99.744 0 55.090 44.67 99.742 99.742 99.742 55.038 0 99.742-44.652 99.742-99.742zM236.040-64c-130.156 0-236.040 105.92-236.040 236.102 0 130.12 105.884 235.986 236.040 235.986 130.164 0 236.076-105.866 236.076-235.986 0-130.182-105.902-236.102-236.074-236.102zM236.040 354.904c-100.832 0-182.872-82.020-182.872-182.818 0-100.87 82.038-182.934 182.872-182.934 100.85 0 182.908 82.066 182.908 182.934 0 100.798-82.056 182.818-182.908 182.818zM1014.040-64c-130.156 0-236.040 105.92-236.040 236.102 0 130.12 105.884 235.986 236.040 235.986s236.040-105.866 236.040-235.986c0-130.182-105.884-236.102-236.040-236.102zM1014.040 354.904c-100.832 0-182.872-82.020-182.872-182.818 0-100.87 82.038-182.934 182.872-182.934s182.872 82.066 182.872 182.934c0 100.798-82.038 182.818-182.872 182.818z" />
<glyph unicode="&#xe613;" glyph-name="uniE613" d="M512.010-64c-282.326 0-512.010 229.682-512.010 512.028 0 282.308 229.682 511.972 512.010 511.972s512.010-229.664 512.010-511.972c0-282.344-229.692-512.028-512.010-512.028zM512.010 905.392c-252.21 0-457.402-205.174-457.402-457.364 0-252.226 205.19-457.418 457.402-457.418s457.402 205.192 457.402 457.418c0 252.192-205.192 457.364-457.402 457.364zM512.010 697.678c-15.072 0-27.304 12.232-27.304 27.304v69.254c0 15.072 12.232 27.304 27.304 27.304s27.304-12.232 27.304-27.304v-69.254c0-15.080-12.232-27.304-27.304-27.304zM235.052 420.722h-69.252c-15.072 0-27.304 12.214-27.304 27.304 0 15.072 12.232 27.304 27.304 27.304h69.252c15.072 0 27.304-12.232 27.304-27.304 0-15.090-12.232-27.304-27.304-27.304zM318.64 614.11c-6.99 0-13.972 2.668-19.304 8l-48.992 48.994c-10.668 10.666-10.668 27.94 0 38.608s27.94 10.668 38.608 0l48.992-48.992c10.666-10.668 10.666-27.942 0-38.608-5.334-5.332-12.322-8-19.304-8zM858.218 420.722h-69.254c-15.062 0-27.304 12.214-27.304 27.304 0 15.072 12.24 27.304 27.304 27.304h69.254c15.090 0 27.304-12.232 27.304-27.304 0-15.090-12.214-27.304-27.304-27.304zM581.226 448.026c0-38.238-30.996-69.234-69.234-69.234s-69.234 30.996-69.234 69.234c0 38.238 30.998 69.234 69.234 69.234s69.234-30.998 69.234-69.234zM512.010 365.14c-45.716 0-82.904 37.17-82.904 82.888 0 45.698 37.188 82.888 82.904 82.888 45.698 0 82.868-37.188 82.868-82.888 0-45.716-37.17-82.888-82.868-82.888zM512.010 503.61c-30.644 0-55.6-24.938-55.6-55.582 0-30.664 24.956-55.582 55.6-55.582s55.564 24.92 55.564 55.582c0 30.644-24.92 55.582-55.564 55.582zM512.010 420.722c-6.99 0-13.972 2.668-19.304 8-10.666 10.668-10.666 27.94 0 38.608l242.352 242.38c10.668 10.666 27.942 10.666 38.608 0s10.668-27.942 0-38.608l-242.362-242.38c-5.324-5.332-12.314-8-19.294-8z" />
<glyph unicode="&#xe614;" glyph-name="uniE614" horiz-adv-x="858" d="M412.974 51.298c-7.5 0-14.558 3.524-19.050 9.534l-271.908 362.544c-5.414 7.192-6.278 16.852-2.246 24.932 4.032 8.064 12.28 13.144 21.306 13.144h138.232c38.896 492.806 372.076 498.546 386.438 498.546 11.16 0 20.924-7.756 23.322-18.638 2.422-10.884-2.962-21.988-13.042-26.726-98.264-46.136-147.1-134.542-149.33-270.234-0.548-32.34-0.698-93.826-0.438-182.948h158.616c9.024 0 17.256-5.088 21.306-13.144 4.018-8.082 3.158-17.732-2.246-24.932l-271.908-362.544c-4.492-5.994-11.55-9.534-19.050-9.534zM188.694 413.826l224.28-299.008 224.28 299.008h-134.748c-13.114 0-23.766 10.62-23.814 23.736-0.342 102.33-0.23 172.176 0.372 207.618 1.676 101.24 28.094 181.438 78.792 239.766-93.16-43.596-215.286-156.466-232.558-448.702-0.73-12.59-11.162-22.418-23.766-22.418h-112.838zM833.488-64h-809.674c-13.144 0-23.814 10.654-23.814 23.814s10.67 23.814 23.814 23.814h809.674c13.16 0 23.814-10.654 23.814-23.814s-10.654-23.814-23.814-23.814z" />
<glyph unicode="&#xe615;" glyph-name="uniE615" horiz-adv-x="1338" d="M1178.306 186.056c-8.134 0-16.246 3.204-22.246 9.572-11.634 12.298-11.062 31.674 1.184 43.288 77.27 73.066 119.844 171.746 119.844 277.874 0 210.634-171.366 381.982-381.992 381.982-204.818 0-372.452-160.102-381.604-364.522-0.736-16.9-14.214-30.238-31.952-29.216-16.9 0.776-29.98 15.072-29.216 31.972 10.604 237.198 205.114 422.996 442.762 422.996 244.414 0 443.22-198.828 443.22-443.21 0-123.13-49.35-237.596-138.978-322.366-5.888-5.592-13.46-8.368-21.022-8.368zM954.068 516.79c0-32.562-26.41-58.952-58.932-58.952-32.534 0-58.942 26.39-58.942 58.952 0 32.534 26.41 58.912 58.942 58.912 32.522 0.010 58.932-26.38 58.932-58.912zM1013.020-64h-982.406c-16.92 0-30.614 13.696-30.614 30.614v294.722c0 89.628 64.638 109.24 89.566 109.24 8.112 0 15.91-3.226 21.644-8.97 1.93-1.898 52.8-49.982 155.182-49.982 101.292 0 151.040 65.534 151.54 66.188 7.888 10.602 21.786 14.908 34.238 10.826l413.31-137.548c53.554-17.798 178.144-69.698 178.144-166.562v-117.914c0.010-16.918-13.704-30.614-30.604-30.614zM61.238-2.772h921.176v87.302c0 46.544-70.382 86.576-136.264 108.466l-394.36 131.244c-26.726-26.39-88.22-73.842-185.4-73.842-98.016 0-160.010 37.552-185.4 56.86-8.97-4.030-19.778-15.266-19.778-45.922l0.020-264.108zM580.8 211.108c-9.888 0-19.592 4.786-25.512 13.634-9.368 14.072-5.562 33.062 8.49 42.452l58.932 39.288c14.072 9.346 33.044 5.602 42.452-8.49 9.368-14.092 5.582-33.062-8.49-42.452l-58.932-39.288c-5.204-3.47-11.124-5.144-16.94-5.144zM757.606 152.156c-9.908 0-19.614 4.786-25.49 13.634-9.408 14.072-5.582 33.084 8.49 42.452l58.952 39.288c14.072 9.346 33.044 5.602 42.452-8.49 9.368-14.092 5.542-33.104-8.49-42.452l-58.952-39.288c-5.246-3.47-11.124-5.144-16.96-5.144z" />
<glyph unicode="&#xe616;" glyph-name="uniE616" d="M618.522 522.338c-8.246 0-16.528 3.154-22.836 9.464-12.62 12.62-12.62 33.054 0 45.674l319.808 319.784c12.62 12.62 33.054 12.62 45.674 0s12.62-33.054 0-45.674l-319.808-319.784c-6.308-6.31-14.546-9.464-22.836-9.464zM405.37 522.338c-8.29 0-16.526 3.154-22.836 9.464l-319.808 319.784c-12.618 12.62-12.618 33.054 0 45.674s33.054 12.62 45.674 0l319.808-319.784c12.62-12.62 12.62-33.054 0-45.674-6.31-6.31-14.588-9.464-22.836-9.464zM85.564-10.64c-8.246 0-16.528 3.154-22.836 9.464-12.618 12.62-12.618 33.054 0 45.674l319.808 319.786c12.618 12.62 33.054 12.62 45.674 0 12.618-12.63 12.618-33.054 0-45.674l-319.808-319.786c-6.308-6.308-14.546-9.464-22.836-9.464zM938.328-10.64c-8.302 0-16.528 3.154-22.836 9.464l-319.808 319.786c-12.62 12.62-12.62 33.044 0 45.674 12.62 12.62 33.054 12.62 45.674 0l319.808-319.786c12.62-12.62 12.62-33.054 0-45.674-6.308-6.308-14.59-9.464-22.836-9.464zM991.602 628.92c-17.85 0-32.3 14.472-32.3 32.3v234.178h-234.178c-17.85 0-32.3 14.472-32.3 32.3 0 17.85 14.448 32.3 32.3 32.3h298.778v-298.778c0-17.842-14.448-32.3-32.3-32.3zM32.3 628.92c-17.83 0-32.3 14.472-32.3 32.3v298.778h298.778c17.83 0 32.3-14.448 32.3-32.3 0-17.83-14.472-32.3-32.3-32.3h-234.178v-234.178c0-17.842-14.472-32.3-32.3-32.3zM1023.904-63.946h-298.778c-17.85 0-32.3 14.448-32.3 32.3s14.448 32.3 32.3 32.3h234.178v234.178c0 17.85 14.448 32.3 32.3 32.3s32.3-14.448 32.3-32.3v-298.778zM298.778-64.010h-298.778v298.778c0 17.85 14.472 32.3 32.3 32.3s32.3-14.448 32.3-32.3v-234.178h234.178c17.83 0 32.3-14.448 32.3-32.3s-14.472-32.3-32.3-32.3z" />
<glyph unicode="&#xe617;" glyph-name="uniE617" horiz-adv-x="500" d="M249.253 711.614c68.506 0 124.217 55.687 124.217 124.145 0.024 68.506-55.711 124.241-124.217 124.241-68.458 0-124.145-55.735-124.145-124.241 0-68.458 55.687-124.145 124.145-124.145zM249.253 911.807c41.928 0 76.024-34.12 76.024-76.048 0-41.88-34.096-75.952-76.024-75.952-41.88 0-75.952 34.072-75.952 75.952 0 41.928 34.072 76.048 75.952 76.048zM447.759 539.012c-10.506 72.458-35.518 120.723-123.373 120.723h-150.12c-87.904 0-112.892-48.265-123.229-119.831l-50.602-275.229c-1.301-7.036 0.602-14.289 5.181-19.759 4.578-5.518 11.373-8.675 18.53-8.675h79.711l46.627-280.096c1.928-11.614 12-20.145 23.759-20.145h150.12c11.783 0 21.831 8.53 23.759 20.145l46.675 280.096h79.711c7.157 0 13.928 3.181 18.53 8.675 4.554 5.494 6.482 12.723 5.181 19.759l-50.458 274.337zM303.976-15.807h-109.325l-42 252.048h193.301l-41.976-252.048zM374.41 284.434h-321.373l45.518 247.687c9.133 63.108 24.699 79.446 75.687 79.446h150.12c50.964 0 66.53-16.337 75.831-80.337l45.373-246.771h-71.157z" />
<glyph unicode="&#xe618;" glyph-name="uniE618" horiz-adv-x="1590" d="M1552.434 43.232c-0.214 0-0.442 0-0.756 0h-459.492c-19.796 0-36.274 15.294-37.724 35-10.338 139.484-124.404 248.81-259.678 248.81-135.324 0-249.442-109.326-259.766-248.81-1.45-19.706-17.928-35-37.724-35h-459.48c-10.226 0-19.996 4.134-27.108 11.448-7.136 7.326-10.982 17.222-10.692 27.486 12.898 445.058 362.020 793.674 794.784 793.674 430.306 0 777.812-344.606 794.492-785.996 0.656-2.812 0.982-5.762 0.982-8.774-0.012-20.918-16.92-37.836-37.836-37.836zM1125.534 118.882h386.278c-30.070 385.080-338.102 681.308-717.016 681.308s-686.932-296.216-717.092-681.308h386.276c28.52 161.712 167.676 283.836 330.814 283.836 163.086 0 302.218-122.11 330.738-283.836zM878.918 39.022c0-46.486-37.674-84.122-84.122-84.122s-84.122 37.634-84.122 84.122c0 46.398 37.674 84.122 84.122 84.122s84.122-37.724 84.122-84.122zM794.796-64c-56.812 0-103.034 46.222-103.034 103.034s46.222 103.034 103.034 103.034 103.034-46.222 103.034-103.034-46.222-103.034-103.034-103.034zM794.796 104.23c-35.96 0-65.21-29.25-65.21-65.21 0-35.972 29.25-65.21 65.21-65.21 35.972 0 65.21 29.238 65.21 65.21 0 35.96-29.264 65.21-65.21 65.21zM794.822 1.198c-14.134 0-27.7 7.932-34.168 21.572l-420.596 883.14c-8.99 18.862-0.984 41.442 17.878 50.408s41.418 1.010 50.408-17.878l420.608-883.154c8.964-18.836 0.946-41.418-17.878-50.432-5.27-2.472-10.794-3.656-16.252-3.656z" />
<glyph unicode="&#xe619;" glyph-name="uniE619" horiz-adv-x="974" d="M486.572 380.092v0c-8.012 0-15.632 3.436-20.894 9.474l-458.798 524.342c-7.178 8.216-8.9 19.866-4.4 29.794 4.502 9.91 14.4 16.3 25.302 16.3h917.616c10.918 0 20.782-6.382 25.274-16.3 4.538-9.948 2.816-21.578-4.362-29.794l-458.854-524.342c-5.26-6.038-12.872-9.474-20.884-9.474zM89.002 904.424l397.572-454.37 397.608 454.37h-795.18zM514.376-8.432l-55.55-55.568v514.708h55.55z" />
<glyph unicode="&#xe61a;" glyph-name="uniE61A" horiz-adv-x="1384" d="M345.418-64c-7.178 0-14.374 2.824-19.714 8.49-10.328 10.87-9.848 28.086 1.040 38.35l683.568 647.552-170.764 173.234-160.896-141.954c-11.242-9.902-28.412-8.86-38.324 2.408-9.938 11.242-8.86 28.394 2.39 38.324l180.178 158.952c10.798 9.514 27.136 8.978 37.284-1.312l208.272-211.26c5.106-5.194 7.956-12.238 7.828-19.534-0.144-7.286-3.186-14.228-8.49-19.252l-703.716-666.552c-5.24-4.978-11.94-7.448-18.654-7.448zM1355.596 382.342h-291.608c-15.008 0-27.154 12.148-27.154 27.154s12.146 27.154 27.154 27.154h291.608c15.026 0 27.154-12.148 27.154-27.154s-12.128-27.154-27.154-27.154zM827.188-64c-7.25 0-14.464 2.86-19.804 8.554-10.274 10.962-9.712 28.14 1.212 38.396l199.014 186.794-231.706 184.278c-11.74 9.332-13.686 26.412-4.336 38.134 9.314 11.758 26.412 13.704 38.162 4.346l256.272-203.828c6.182-4.914 9.92-12.256 10.238-20.13s-2.806-15.524-8.526-20.928l-221.932-208.29c-5.26-4.888-11.938-7.322-18.592-7.322zM1311.010 851.42c0-60.020-48.686-108.652-108.616-108.652-60.002 0-108.616 48.632-108.616 108.652 0 59.93 48.616 108.58 108.616 108.58 59.938 0 108.616-48.65 108.616-108.58zM237.436 420.736l25.842 32.404c14.726-15.378 35.038-23.888 57.948-23.888 25.842 0 40.568 14.746 40.568 32.378 0 19.344-14.41 32.422-39.264 32.422-18.012 0-32.738-5.232-45.818-17.678l-32.422 8.844v125.036h149.918v-40.912h-103.412v-53.366c10.464 10.462 28.142 18.346 48.098 18.346 37.002 0 70.058-26.522 70.058-70.71 0-46.144-34.686-75.614-87.4-75.614-37.972 0.018-65.478 12.446-84.114 32.74zM318.12 190.036c-175.408 0-318.12 142.722-318.12 318.138 0 175.406 142.722 318.11 318.12 318.11 175.426 0 318.138-142.704 318.138-318.11 0.010-175.416-142.712-318.138-318.138-318.138zM318.12 771.976c-145.456 0-263.81-118.338-263.81-263.802 0-145.492 118.356-263.828 263.81-263.828 145.492 0 263.83 118.338 263.83 263.83 0.010 145.464-118.338 263.802-263.83 263.802z" />
<glyph unicode="&#xe61b;" glyph-name="uniE61B" horiz-adv-x="1270" d="M238.164-64c-7.062 0-14.106 2.78-19.348 8.332-10.134 10.668-9.682 27.536 1.022 37.664l684.298 648.234-171.632 173.996-234.096-206.612c-11.032-9.718-27.902-8.696-37.608 2.364-9.752 11.032-8.696 27.866 2.346 37.608l252.998 223.284c10.624 9.37 26.648 8.812 36.606-1.27l208.432-211.312c5-5.098 7.808-12.026 7.666-19.168-0.15-7.142-3.136-13.964-8.332-18.894l-704.044-666.924c-5.134-4.884-11.724-7.302-18.306-7.302zM1242.994 382.624h-285.934c-14.71 0-26.648 11.922-26.648 26.648s11.938 26.648 26.648 26.648h285.926c14.728 0 26.648-11.922 26.648-26.648s-11.912-26.648-26.638-26.648zM720.174-64c-7.116 0-14.196 2.798-19.434 8.412-10.092 10.722-9.54 27.572 1.182 37.672l199.55 187.346-232.3 184.672c-11.52 9.158-13.466 25.956-4.298 37.442 9.194 11.556 25.956 13.44 37.458 4.298l256.472-203.866c6.068-4.842 9.726-12.044 10.028-19.782 0.312-7.728-2.726-15.216-8.35-20.528l-222.032-208.476c-5.188-4.788-11.752-7.186-18.272-7.186zM1200.082 853.408c0-58.866-47.78-106.594-106.594-106.594-58.884 0-106.592 47.726-106.592 106.594 0 58.812 47.708 106.592 106.592 106.592 58.82 0 106.594-47.78 106.594-106.592zM199.186 334.79l24.774-50.126 55.304-8.066-40.052-38.986 9.416-55.116-49.442 26.026-49.512-26.026 9.432 55.116-40.026 38.986 55.33 8.066zM318.214 498.544l24.774-50.098 55.33-8.066-40.008-39.076 9.452-55.064-49.548 25.972-49.44-25.972 9.416 55.064-40.026 39.076 55.296 8.066zM80.104 498.544l24.722-50.098 55.322-8.066-40.008-39.076 9.46-55.064-49.496 25.972-49.522-25.972 9.478 55.064-40.060 39.076 55.322 8.066z" />
<glyph unicode="&#xe61c;" glyph-name="uniE61C" horiz-adv-x="1420" d="M382.040-64c-7.178 0-14.374 2.824-19.714 8.49-10.328 10.87-9.848 28.086 1.040 38.35l683.568 647.552-170.764 173.234-233.706-206.2c-11.242-9.884-28.412-8.842-38.342 2.408-9.902 11.242-8.842 28.412 2.408 38.324l252.996 223.206c10.798 9.514 27.154 8.98 37.284-1.312l208.272-211.26c5.106-5.194 7.956-12.238 7.828-19.534-0.144-7.286-3.186-14.228-8.49-19.252l-703.716-666.552c-5.25-4.986-11.948-7.458-18.664-7.458zM1392.22 382.342h-291.608c-15.008 0-27.154 12.148-27.154 27.154s12.146 27.154 27.154 27.154h291.608c15.026 0 27.154-12.148 27.154-27.154s-12.128-27.154-27.154-27.154zM863.808-64c-7.25 0-14.464 2.86-19.804 8.554-10.274 10.962-9.712 28.14 1.212 38.396l199.014 186.794-231.706 184.278c-11.74 9.332-13.686 26.412-4.336 38.134 9.314 11.758 26.394 13.704 38.16 4.346l256.272-203.828c6.182-4.914 9.92-12.256 10.238-20.13s-2.806-15.524-8.526-20.928l-221.932-208.29c-5.26-4.888-11.938-7.322-18.592-7.322zM1347.632 851.42c0-60.020-48.686-108.652-108.616-108.652-60.002 0-108.616 48.632-108.616 108.652 0 59.93 48.616 108.58 108.616 108.58 59.938 0 108.616-48.65 108.616-108.58zM62.836 391.946v158.418l-36.314-36.966-26.522 27.806 68.736 69.054h40.586v-218.31h-46.488zM137.472 423.036l24.538 31.082c14.728-15.696 38.612-24.856 59.912-24.856 26.502 0 41.246 11.458 41.246 27.806 0 17.38-13.432 25.226-43.882 25.226-9.16 0-23.888-0.318-27.172-0.67v41.9c3.928-0.318 18.99-0.318 27.172-0.318 24.222 0 40.586 7.178 40.586 23.226 0 17.342-17.994 25.842-40.586 25.842-21.288 0-40.234-7.848-55.648-22.556l-23.226 29.118c17.676 19.958 45.148 34.702 83.48 34.702 51.058 0 82.468-22.908 82.468-59.26 0-27.472-23.552-45.466-47.782-49.746 22.238-2.282 51.076-19.622 51.076-52.362 0-37.636-33.734-64.156-86.116-64.156-39.926 0-70.030 15.378-86.070 35.020zM338.44 414.854c0 14.41 12.13 26.52 26.522 26.52s26.522-12.11 26.522-26.52-12.13-26.52-26.522-26.52-26.522 12.11-26.522 26.52zM441.226 391.946v158.418l-36.332-36.966-26.522 27.806 68.736 69.054h40.604v-218.31h-46.488z" />
<glyph unicode="&#xe61d;" glyph-name="uniE61D" d="M512-64c-282.308 0-512 229.666-512 512 0 282.318 229.682 512 512 512 282.334 0 512-229.682 512-512 0-282.334-229.666-512-512-512zM512 908.8c-254.080 0-460.8-206.72-460.8-460.8 0-254.062 206.72-460.8 460.8-460.8 254.062 0 460.8 206.736 460.8 460.8 0 254.080-206.736 460.8-460.8 460.8zM486.4 576h51.2v-384h-51.2v384zM486.4 704h51.2v-51.2h-51.2v51.2z" />
<glyph unicode="&#xe61e;" glyph-name="uniE61E" horiz-adv-x="932" d="M905.57-64h-706.244c-13.938 0-25.252 11.278-25.252 25.252v635.63c0 6.692 2.66 13.122 7.4 17.852l176.568 176.5c4.73 4.73 11.162 7.4 17.854 7.4h529.676c13.938 0 25.252-11.296 25.252-25.252v-812.124c0-13.98-11.312-25.26-25.252-25.26zM224.58-13.496h655.74v761.62h-493.97l-161.77-161.702v-599.918zM166.466 97.34h-141.216c-13.94 0-25.252 11.296-25.252 25.252v812.158c0 13.956 11.314 25.252 25.252 25.252h688.568c13.938 0 25.252-11.296 25.252-25.252v-141.25h-50.504v115.998h-638.064v-761.654h115.962v-50.504zM375.894 571.598h-176.568c-10.21 0-19.418 6.144-23.324 15.59s-1.742 20.302 5.472 27.524l176.568 176.534c7.214 7.23 18.062 9.368 27.524 5.488 9.436-3.914 15.588-13.122 15.588-23.342v-176.534c-0.008-13.956-11.322-25.26-25.26-25.26zM260.31 622.1h90.334v90.316l-90.332-90.316zM534.802 183.188c-7.12 0-13.956 2.988-18.762 8.35l-158.908 176.534c-9.334 10.352-8.5 26.336 1.878 35.672 10.354 9.336 26.336 8.5 35.638-1.876l137.174-152.384 193.822 290.738c7.684 11.608 23.332 14.764 35.006 7.004 11.606-7.726 14.73-23.408 7.004-35.014l-211.86-317.782c-4.336-6.49-11.398-10.63-19.174-11.178-0.624-0.042-1.212-0.058-1.818-0.058z" />
<glyph unicode="&#xe61f;" glyph-name="uniE61F" horiz-adv-x="710" d="M684.106-63.982h-164.614c-14.116 0-25.54 11.424-25.54 25.54v113.39l-72.048-126.074c-4.556-7.96-13.034-12.882-22.178-12.882h-89.808c-9.16 0-17.606 4.922-22.168 12.88l-72.064 126.074v-113.39c0-14.116-11.442-25.54-25.54-25.54h-164.604c-14.098 0-25.54 11.424-25.54 25.54v538.85c0 14.098 11.442 25.54 25.54 25.54h658.566c14.116 0 25.54-11.442 25.54-25.54v-538.842c0-14.124-11.416-25.548-25.54-25.548zM545.040-12.904h113.534v487.772h-607.494v-487.762h113.534v184.016c0 11.562 7.798 21.7 18.986 24.68 11.222 2.972 22.978-1.95 28.732-12.020l112.4-196.692h60.172l112.418 196.692c5.722 10.072 17.428 14.966 28.732 12.020 11.178-3.004 18.976-13.12 18.976-24.68v-184.024h0.010zM355.116 609.574c-96.608 0-175.204 78.612-175.204 175.222s78.594 175.204 175.204 175.204c96.626 0 175.204-78.596 175.204-175.204s-78.578-175.222-175.204-175.222zM355.116 908.92c-68.456 0-124.124-55.686-124.124-124.124 0-68.456 55.67-124.142 124.124-124.142s124.124 55.686 124.124 124.142c0 68.438-55.668 124.124-124.124 124.124z" />
<glyph unicode="&#xe620;" glyph-name="uniE620" horiz-adv-x="448" d="M224.258 711.614c-68.458 0-124.154 55.712-124.154 124.154 0 68.506 55.696 124.232 124.154 124.232 68.474 0 124.186-55.726 124.186-124.232 0-68.442-55.712-124.154-124.186-124.154zM224.258 911.808c-41.888 0-75.96-34.104-75.96-76.040 0-41.888 34.072-75.96 75.96-75.96s75.992 34.072 75.992 75.96c0 41.936-34.104 76.040-75.992 76.040zM324.346-64h-200.146c-12.644 0-23.124 9.774-24.032 22.386l-23.438 327.904h-52.634c-6.86 0-13.398 2.916-17.976 8.048-4.562 5.134-6.746 11.952-5.96 18.778l25.574 225.164c10.586 73.198 35.582 121.47 123.462 121.47h150.12c87.862 0 112.884-48.258 123.382-120.73l25.632-225.936c0.786-6.794-1.382-13.614-5.944-18.746s-11.108-8.048-17.976-8.048h-52.634l-23.422-327.904c-0.884-12.61-11.382-22.386-24.008-22.386zM146.634-15.808h155.276l23.406 327.92c0.908 12.61 11.39 22.37 24.032 22.37h48.064l-22.498 198.352c-9.068 62.394-24.628 78.724-75.598 78.724h-150.128c-50.972 0-66.53-16.33-75.662-79.446l-22.434-197.63h48.064c12.644 0 23.124-9.76 24.032-22.37l23.446-327.92z" />
<glyph unicode="&#xe621;" glyph-name="uniE621" horiz-adv-x="690" d="M344.426 732.092c64.224 0 116.51-52.266 116.51-116.492 0-64.242-52.284-116.51-116.51-116.51-64.242 0-116.526 52.266-116.526 116.51 0 64.234 52.284 116.492 116.526 116.492zM344.426 783.192c-92.618 0-167.626-74.956-167.626-167.592 0-92.62 75.008-167.61 167.626-167.61s167.608 74.99 167.608 167.61c-0.010 92.644-74.99 167.592-167.61 167.592v0zM344.426 908.9c161.988 0 293.324-137.596 293.324-307.266 0-169.704-293.324-614.534-293.324-614.534s-293.324 444.828-293.324 614.534c-0.010 169.67 131.388 307.266 293.324 307.266zM344.426 960c-189.914 0-344.426-160.752-344.426-358.366 0-179.832 270.892-595.822 301.764-642.648 9.462-14.36 25.482-22.988 42.678-22.988 17.188 0 33.19 8.636 42.668 22.986 30.89 46.826 301.764 462.816 301.764 642.648-0.026 197.614-154.52 358.366-344.45 358.366v0z" />
<glyph unicode="&#xe622;" glyph-name="uniE622" horiz-adv-x="1576" d="M538.168-64c-7.178 0-14.374 2.824-19.714 8.49-10.328 10.87-9.848 28.086 1.042 38.35l683.57 647.552-170.762 173.234-233.706-206.2c-11.242-9.884-28.412-8.842-38.342 2.408-9.902 11.242-8.842 28.412 2.408 38.324l252.996 223.206c10.798 9.514 27.154 8.98 37.282-1.312l208.272-211.26c5.106-5.194 7.956-12.238 7.828-19.534-0.144-7.286-3.186-14.228-8.49-19.252l-703.716-666.552c-5.25-4.986-11.948-7.458-18.664-7.458zM1548.346 382.342h-291.608c-15.008 0-27.154 12.148-27.154 27.154s12.146 27.154 27.154 27.154h291.608c15.026 0 27.154-12.148 27.154-27.154s-12.128-27.154-27.154-27.154zM1019.936-64c-7.25 0-14.464 2.86-19.804 8.554-10.274 10.962-9.712 28.14 1.212 38.396l199.012 186.794-231.706 184.278c-11.74 9.332-13.686 26.412-4.336 38.134 9.314 11.758 26.394 13.704 38.16 4.346l256.272-203.828c6.182-4.914 9.92-12.256 10.238-20.13s-2.806-15.524-8.526-20.928l-221.932-208.29c-5.26-4.888-11.94-7.322-18.592-7.322zM1503.76 851.42c0-60.020-48.686-108.652-108.616-108.652-60.002 0-108.616 48.632-108.616 108.652 0 59.93 48.616 108.58 108.616 108.58 59.938 0 108.616-48.65 108.616-108.58zM4.898 391.946v36.65c89.364 66.146 115.568 88.404 115.568 115.242 0 19.308-17.362 28.448-35.372 28.448-24.874 0-43.862-9.794-58.57-25.172l-26.522 30.756c21.254 24.538 53.674 35.67 84.114 35.67 46.796 0 83.482-26.204 83.482-69.704 0-37.336-30.758-69.74-87.4-110.97h89.028v-40.922h-164.328zM197.038 500.608c0 66.138 37.3 112.934 101.792 112.934 26.502 0 48.778-8.842 64.474-22.592l-20.944-35.654c-11.776 11.124-24.222 16.99-43.528 16.99-32.070 0-54.662-27.154-54.662-61.858 0-1.61 0-2.952 0.336-4.562 10.138 14.726 32.052 28.124 55.956 28.124 39.3 0 74.638-24.538 74.638-71 0-42.568-34.050-74.972-83.798-74.972-66.438 0-94.26 51.076-94.26 112.59zM327.652 461.334c0 22.908-19.66 32.738-40.27 32.738-16.374 0-32.386-7.532-42.866-20.61 1.964-20.944 13.74-44.198 44.18-44.198 25.18 0 38.956 17.008 38.956 32.070zM400.306 414.854c0 14.41 12.11 26.52 26.522 26.52 14.392 0 26.522-12.11 26.522-26.52s-12.13-26.52-26.522-26.52c-14.41 0-26.522 12.11-26.522 26.52zM484.42 391.946v36.65c89.346 66.146 115.532 88.404 115.532 115.242 0 19.308-17.342 28.448-35.336 28.448-24.89 0-43.88-9.794-58.59-25.172l-26.522 30.756c21.272 24.538 53.676 35.67 84.114 35.67 46.832 0 83.48-26.204 83.48-69.704 0-37.336-30.756-69.74-87.4-110.97h89.048v-40.922h-164.328z" />
<glyph unicode="&#xe623;" glyph-name="uniE623" horiz-adv-x="1464" d="M1426.286 886.856h-1389.714c-20.188 0-36.57 16.384-36.57 36.572s16.384 36.572 36.57 36.572h1389.714c20.212 0 36.57-16.384 36.57-36.572s-16.36-36.572-36.57-36.572zM1426.286 411.428h-1389.714c-20.188 0-36.57 16.384-36.57 36.572s16.384 36.572 36.57 36.572h1389.714c20.212 0 36.57-16.384 36.57-36.572s-16.36-36.572-36.57-36.572zM1426.286-64h-1389.714c-20.188 0-36.57 16.36-36.57 36.572s16.384 36.572 36.57 36.572h1389.714c20.212 0 36.57-16.36 36.57-36.572s-16.36-36.572-36.57-36.572z" />
<glyph unicode="&#xe624;" glyph-name="uniE624" horiz-adv-x="1216" d="M485.538 243.098c-8.788 0-17.4 4.394-22.382 12.39l-105.956 170.014-221.020 10.626c-7.83 0.394-15.054 4.218-19.772 10.448s-6.416 14.246-4.65 21.846l59.9 258.062c1.802 7.742 7.004 14.262 14.158 17.752 7.136 3.472 15.468 3.534 22.692 0.176l165.39-77.308 123.954 77.238c12.356 7.69 28.614 3.912 36.322-8.428 7.69-12.356 3.928-28.63-8.428-36.322l-136.092-84.806c-7.568-4.718-17.014-5.272-25.106-1.512l-148.878 69.584-45.4-195.57 203.258-9.782c8.646-0.43 16.548-5.044 21.108-12.392l113.252-181.718c7.706-12.346 3.928-28.63-8.428-36.322-4.342-2.716-9.148-3.98-13.92-3.98zM346.512 921.692c23.754-38.034 12.118-88.188-25.968-111.96-38.052-23.684-88.17-12.066-111.942 25.97-23.7 38.086-12.048 88.24 25.968 111.976 38.080 23.754 88.214 12.12 111.942-25.986zM197.176-64.010c-68.59 0-131.188 34.704-167.42 92.818-57.448 92.24-29.176 214.014 63.010 271.48 31.338 19.552 67.334 29.852 104.086 29.852 68.572 0 131.118-34.696 167.35-92.818 27.876-44.696 36.664-97.548 24.764-148.818s-43.060-94.85-87.758-122.706c-31.302-19.492-67.282-29.808-104.034-29.808zM196.852 277.424c-26.884 0-53.23-7.548-76.192-21.866-67.528-42.102-88.222-131.276-46.156-198.846 26.548-42.552 72.412-67.976 122.672-67.976 26.884 0 53.212 7.54 76.156 21.838 32.736 20.406 55.558 52.314 64.276 89.894 8.7 37.534 2.266 76.246-18.156 108.962-26.532 42.586-72.36 67.994-122.602 67.994zM735.206 271.326c-68.592 0-131.17 34.722-167.42 92.88-57.43 92.188-29.158 213.954 62.994 271.454 31.356 19.518 67.352 29.834 104.086 29.834 68.572 0 131.17-34.686 167.386-92.82 57.466-92.222 29.212-214.024-62.994-271.506-31.312-19.528-67.28-29.844-104.050-29.844zM734.866 612.776c-26.884 0-53.246-7.548-76.21-21.866-67.476-42.104-88.188-131.286-46.136-198.804 26.566-42.604 72.432-68.056 122.69-68.056 26.884 0 53.212 7.568 76.14 21.846 67.562 42.102 88.258 131.32 46.154 198.882-26.548 42.586-72.378 67.992-122.638 67.992zM474.282-29.384c-7.618 0-15.202 3.296-20.406 9.692-9.218 11.23-7.568 27.858 3.71 37.094l178.838 146.312c8.866 7.224 21.442 7.98 31.030 1.696l195.156-126.47 310.226 254.748c11.292 9.308 27.92 7.576 37.104-3.62 9.254-11.24 7.61-27.858-3.622-37.094l-325.122-267.034c-8.894-7.328-21.452-8.032-31.082-1.74l-195.2 126.486-163.95-134.122c-4.904-4-10.81-5.95-16.68-5.95z" />
<glyph unicode="&#xe625;" glyph-name="uniE625" horiz-adv-x="1350" d="M243.672 22.604c0 0 62.436 243.7-84.468 370.182-103.738 89.248-204.562-13.044-137.626-106.056 59.712-82.874 150.67-89.22 222.094-264.128zM291.246 87.728c0 0 12.59 98.804 0 176.71-9.26 57.64-54.308 131.372-7.422 159.938 42.768 26.024 103.276-37.264 94.848-145.084-9.296-119.026-87.428-191.562-87.428-191.562zM312.952-64c-7.178 0-14.374 2.824-19.714 8.49-10.31 10.87-9.848 28.068 1.040 38.35l683.56 647.552-170.772 173.234-233.688-206.208c-11.224-9.884-28.412-8.844-38.324 2.408s-8.86 28.412 2.39 38.324l252.976 223.206c10.788 9.514 27.154 8.98 37.302-1.312l208.254-211.26c5.114-5.194 7.956-12.236 7.828-19.532-0.136-7.286-3.194-14.23-8.49-19.252l-703.69-666.544c-5.25-4.986-11.956-7.458-18.674-7.458zM1323.138 382.342h-291.626c-14.99 0-27.154 12.148-27.154 27.154s12.164 27.154 27.154 27.154h291.626c15.008 0 27.154-12.148 27.154-27.154s-12.146-27.154-27.154-27.154zM794.73-64c-7.25 0-14.464 2.86-19.804 8.554-10.282 10.962-9.702 28.14 1.222 38.396l199.014 186.794-231.698 184.278c-11.74 9.332-13.686 26.412-4.336 38.134 9.288 11.758 26.412 13.704 38.134 4.346l256.272-203.828c6.2-4.914 9.946-12.256 10.256-20.13 0.318-7.876-2.798-15.524-8.544-20.928l-221.932-208.29c-5.26-4.888-11.938-7.322-18.582-7.322zM1278.534 851.42c0-60.020-48.686-108.652-108.616-108.652-59.982 0-108.616 48.632-108.616 108.652 0 59.93 48.634 108.58 108.616 108.58 59.93 0 108.616-48.65 108.616-108.58z" />
<glyph unicode="&#xe626;" glyph-name="uniE626" horiz-adv-x="988" d="M960.928-64h-935.258c-14.17 0-25.67 11.482-25.67 25.67v617.256c0 14.188 11.5 25.67 25.67 25.67h56.15v-51.34h-30.478v-565.916h883.918v565.916h-30.436v51.34h56.106c14.188 0 25.67-11.482 25.67-25.67v-617.256c0-14.188-11.482-25.67-25.67-25.67zM493.304 254.002c-4.784 0-9.574 1.318-13.786 4.014l-411.476 261.844c-7.384 4.716-11.884 12.904-11.884 21.658v392.812c0 14.17 11.5 25.67 25.67 25.67h823.004c14.188 0 25.67-11.5 25.67-25.67v-392.806c0-8.754-4.466-16.942-11.884-21.656l-411.544-261.854c-4.192-2.696-8.992-4.014-13.768-4.014zM107.498 555.626l385.806-245.534 385.858 245.534v353.034h-771.662v-353.034zM287.54 772.96h411.526v-51.34h-411.526v51.34zM287.54 604.596h411.526v-51.34h-411.526v51.34z" />
<glyph unicode="&#xe627;" glyph-name="uniE627" horiz-adv-x="914" d="M482.834 908.024c121.648-0.606 200.286-81.834 210.37-217.292 2.98-40.688 15.342-231.168 17.428-267.456 2.486-46.476 38.626-85.56 84.356-135.014 13.062-14.13 26.552-28.742 39.882-44.188 16.692-19.378 26.134-32.554 26.134-76.932 0-10.568 0.018-21.518 0.034-31.938h-808.832c0.034 10.404 0.052 21.37 0.052 31.938 0 44.378 9.442 57.554 26.056 76.846 13.436 15.548 26.966 30.188 40.082 44.378 45.678 49.41 81.766 88.452 84.26 134.746 1.992 35.394 14.328 225.634 17.43 267.576 10.050 135.534 88.74 216.78 210.248 217.326h52.496zM482.972 960h-52.616c-144.794-0.64-249.794-99.888-262.076-265.464-3.050-41.32-15.394-231.264-17.498-268.47-1.992-37.31-57.302-84.972-111.8-148.112-23.38-27.218-38.678-51.784-38.678-110.802 0-34.504-0.234-73.096-0.302-83.914h913.294c-0.068 10.812-0.302 49.384-0.302 83.914 0 59.018-15.298 83.586-38.678 110.802-54.514 63.14-109.772 110.802-111.756 148.112-2.13 37.206-14.492 227.158-17.524 268.47-12.318 165.576-117.3 264.822-262.060 265.464v0zM456.646-64c-84.832 0-153.848 77.182-153.848 172.098v25.988h307.694v-25.988c-0.010-94.916-69.014-172.098-153.846-172.098zM357.174 82.11c10.1-53.802 50.858-94.136 99.472-94.136 48.58 0 89.372 40.332 99.438 94.136h-198.908z" />
<glyph unicode="&#xe628;" glyph-name="uniE628" horiz-adv-x="290" d="M187.8-64h-84.642c-12.782 0-23.472 9.778-24.59 22.516l-42.308 479.678c-0.626 6.88 1.704 13.726 6.378 18.838s11.284 8.008 18.212 8.008h169.282c6.938 0 13.528-2.896 18.22-8.008 4.65-5.11 6.98-11.958 6.37-18.838l-42.348-479.678c-1.118-12.74-11.76-22.516-24.574-22.516zM125.772-14.622h39.428l37.98 430.284h-115.38l37.97-430.284zM264.524 514.416h-239.836c-13.644 0-24.69 11.062-24.69 24.69 0 13.644 11.044 24.69 24.69 24.69h239.836c13.644 0 24.69-11.044 24.69-24.69 0-13.628-11.044-24.69-24.69-24.69zM263.362 775.772c0 0 6.272-18.582 6.272-38.974 0-68.38-55.45-123.814-123.814-123.814-68.38 0-123.832 55.436-123.832 123.814 0 11.076 1.448 21.792 4.164 31.972 0 0 7.036-19.224 26.796-24.236 0 0-21.924 61.91 12.888 113.494 0 0-1.028-71.128 31.15-89.21 0 0-21.454 111.248 73.326 150.496 0 0-6.056-37.18 18.402-79.078 21.604-37.034 26.038-51.164 29.068-71.844 9.99-67.606-57.32-108.45-57.32-108.45 78.502-6.774 102.904 115.832 102.904 115.832zM224.544 849.486c0 0-0.864 39.254 4.674 66.414 4.724 22.936 14.706 44.102 14.706 44.102s-32.836-10.846-40.564-42.918c-8.23-34.086 21.182-67.598 21.182-67.598z" />
<glyph unicode="&#xe629;" glyph-name="uniE629" d="M512.010-64c-282.32 0-512.010 229.688-512.010 512.028 0 282.302 229.688 511.972 512.010 511.972s512.010-229.67 512.010-511.972c-0.010-282.338-229.698-512.028-512.010-512.028zM512.010 905.158c-252.074 0-457.166-205.074-457.166-457.13 0-252.092 205.092-457.184 457.166-457.184 252.092 0 457.166 205.092 457.166 457.186-0.010 252.056-205.074 457.13-457.166 457.13zM583.414 475.45c-14.158 90.656-71.404 345.298-71.404 345.298s-57.256-254.644-71.414-345.298h142.818zM440.596 420.606c14.158-90.674 71.404-345.352 71.404-345.352s57.264 254.678 71.404 345.352h-142.81z" />
<glyph unicode="&#xe62a;" glyph-name="uniE62A" horiz-adv-x="972" d="M944.284-64h-916.158c-15.526 0-28.126 12.6-28.126 28.126v876.362c0 15.524 12.6 28.126 28.126 28.126h916.158c15.544 0 28.126-12.6 28.126-28.126v-876.37c0-15.524-12.582-28.116-28.126-28.116zM56.25-7.75h859.908v820.11h-859.908v-820.11zM184.904 960h56.25v-199.182h-56.25v199.182zM747.408 960h56.25v-199.182h-56.25v199.182zM53.288 669.428h863.986v-56.25h-863.986v56.25zM466.286 214.832c-7.434 0-14.596 2.944-19.884 8.24l-119.494 119.494c-10.988 10.988-10.988 28.78 0 39.77s28.782 10.988 39.77 0l97.284-97.266 139.688 174.648c9.722 12.084 27.414 14.082 39.552 4.396 12.122-9.702 14.1-27.394 4.398-39.552l-159.338-199.182c-4.998-6.226-12.414-10.030-20.408-10.472-0.506-0.038-1.040-0.076-1.566-0.076z" />
<glyph unicode="&#xe62b;" glyph-name="uniE62B" horiz-adv-x="818" d="M82.022-64v0c-40.818 0-82.022 31.224-82.022 100.956v822.086c0 69.724 41.178 100.956 82.022 100.956 20.722 0 42.356-7.238 64.33-21.52l615.278-399.954c35.134-22.826 55.284-55.804 55.322-90.494 0-34.672-20.168-67.702-55.322-90.558l-615.278-399.964c-21.974-14.274-43.606-21.51-64.33-21.51zM82.022 904.382c-23.82 0-26.414-31.698-26.414-45.348v-822.086c0-13.634 2.586-45.358 26.414-45.358 6.738 0 18.1 2.168 34.032 12.548l615.27 399.954c19.332 12.548 30.010 28.166 30.010 43.904-0.038 15.71-10.668 31.298-30.010 43.876l-615.27 399.972c-15.932 10.37-27.304 12.54-34.032 12.54z" />
<glyph unicode="&#xe62c;" glyph-name="uniE62C" horiz-adv-x="1106" d="M971.092 395.076c-10.526 0-21.5 1.52-33.582 4.688-11.364 2.952-19.342 13.272-19.342 25.042v208.408c0 11.786 7.98 22.096 19.412 25.060 12.054 3.134 23.004 4.654 33.514 4.654 73.856 0 133.93-60.074 133.93-133.914 0-73.848-60.074-133.94-133.93-133.94zM969.98 446.904c0.39-0.018 0.726-0.018 1.114-0.018 45.282 0 82.12 36.856 82.12 82.136 0 45.654-37.674 83.044-83.234 82.086v-164.206zM944.074 98.028c-6.286 0-12.46 2.28-17.322 6.658-2.642 2.34-265.642 236.384-495.784 236.384h-297.048c-73.856 0-133.93 60.074-133.93 133.914v108.042c0 73.856 60.074 133.948 133.93 133.948h297.048c230.142 0 493.14 234.028 495.784 236.404 7.626 6.796 18.54 8.548 27.866 4.386 9.342-4.162 15.362-13.428 15.362-23.66v-810.152c0-10.232-6.020-19.524-15.362-23.66-3.368-1.538-6.976-2.262-10.544-2.262zM133.93 665.154c-45.282 0-82.12-36.856-82.12-82.136v-108.042c0-45.264 36.838-82.102 82.12-82.102h297.048c194.134 0 399.606-144.284 487.19-213.65v699.572c-87.594-69.366-293.058-213.632-487.19-213.632l-297.048-0.010zM410.996-64h-118.854c-12.426 0-23.126 8.816-25.448 21.052l-77.206 405.072c-1.432 7.59 0.57 15.414 5.484 21.38 4.922 5.942 12.246 9.394 19.964 9.394h118.854c12.426 0 23.126-8.834 25.448-21.052l77.206-405.072c1.452-7.59-0.57-15.448-5.5-21.39-4.904-5.95-12.236-9.386-19.948-9.386zM313.584-12.19h66.11l-67.344 353.26h-66.11l67.346-353.26z" />
<glyph unicode="&#xe62d;" glyph-name="uniE62D" horiz-adv-x="1038" d="M942.942-63.99h-916.848c-14.404 0-26.094 11.674-26.094 26.094v451.788c0 14.404 11.69 26.094 26.094 26.094h215.564c167.916 159.15 196.978 268.432 193.976 491.086-0.182 12.89 9.072 23.972 21.798 26.094 56.128 9.394 101.984-4.62 135.316-40.958 52.832-57.556 72.706-170.666 60.53-345.392h289.682c51.702 0 93.782-43.986 93.782-98.072 0-28.842-11.724-54.86-30.426-72.986 18.7-18.11 30.426-44.1 30.426-72.916 0-28.842-11.724-54.884-30.426-72.986 18.7-18.136 30.426-44.116 30.426-72.96 0-28.808-11.724-54.808-30.426-72.9 18.7-18.144 30.426-44.134 30.426-72.994-0.010-54.59-42.082-98.994-93.8-98.994zM278.086-11.802h664.866c22.938 0 41.594 21.032 41.594 46.84 0 25.886-18.666 46.9-41.594 46.9-14.438 0-26.094 11.674-26.094 26.094 0 14.414 11.654 26.094 26.094 26.094 22.938 0 41.594 20.996 41.594 46.804 0 25.832-18.666 46.866-41.594 46.866-14.438 0-26.094 11.654-26.094 26.094 0 14.394 11.654 26.094 26.094 26.094 22.938 0 41.594 21.014 41.594 46.89 0 25.808-18.666 46.822-41.594 46.822-14.438 0-26.094 11.69-26.094 26.094 0 14.438 11.654 26.094 26.094 26.094 22.938 0 41.594 21.032 41.594 46.892 0 25.294-18.666 45.882-41.594 45.882h-317.898c-7.306 0-14.274 3.080-19.198 8.446-4.948 5.402-7.428 12.604-6.784 19.876 14.866 173.076-0.192 285.418-44.76 333.99-17.022 18.536-39.14 27.354-66.288 26.842 0.644-213.748-32.348-336.572-209.946-505.168v-414.448zM52.19-11.802h173.71v399.6h-173.71v-399.598z" />
<glyph unicode="&#xe62e;" glyph-name="uniE62E" horiz-adv-x="1186" d="M1160.182-64h-1134.338c-14.266 0-25.844 11.562-25.844 25.844v972.312c0 14.266 11.578 25.844 25.844 25.844h1134.338c14.282 0 25.844-11.578 25.844-25.844v-972.312c0-14.284-11.56-25.844-25.844-25.844zM51.688-12.312h1082.648v920.624h-1082.648v-920.624zM132.908 826.506h51.688v-51.688h-51.688v51.688zM197.52 761.894h-77.534v77.534h77.534v-77.534zM145.83 787.74h25.844v25.844h-25.844v-25.844zM1001.626 826.506h51.688v-51.688h-51.688v51.688zM1066.238 761.894h-77.534v77.534h77.534v-77.534zM1014.55 787.74h25.844v25.844h-25.844v-25.844zM1001.626 120.898h51.688v-51.688h-51.688v51.688zM1066.238 56.288h-77.534v77.534h77.534v-77.534zM1014.55 82.132h25.844v25.844h-25.844v-25.844zM132.908 120.898h51.688v-51.688h-51.688v51.688zM197.52 56.288h-77.534v77.534h77.534v-77.534zM145.83 82.132h25.844v25.844h-25.844v-25.844zM232.444 358.398l31.030 39.3c18.608-19.866 48.81-31.408 75.698-31.408 33.502 0 52.128 14.456 52.128 35.14 0 21.916-16.962 31.866-55.444 31.866-11.578 0-30.186-0.438-34.32-0.852v52.946c4.944-0.404 23.992-0.404 34.322-0.404 30.626 0 51.3 9.088 51.3 29.36 0 21.924-22.752 32.676-51.3 32.676-26.888 0-50.88-9.924-70.314-28.532l-29.36 36.81c22.328 25.24 57.074 43.848 105.48 43.848 64.524 0 104.238-28.954 104.238-74.87 0-34.744-29.782-57.512-60.39-62.896 28.136-2.86 64.524-24.802 64.524-66.16 0-47.578-42.6-81.1-108.796-81.1-50.456 0.010-88.516 19.462-108.796 44.28zM609.208 319.106v57.072h-131.968v46.34l109.622 172.51h81.064v-167.126h35.588v-51.722h-35.588v-57.072h-58.718zM609.208 542.892l-74.474-114.99h74.474v114.99zM733.192 319.106v46.338c112.914 83.554 146.028 111.674 146.028 145.588 0 24.414-21.942 35.992-44.684 35.992-31.434 0-55.452-12.388-74.052-31.85l-33.528 38.888c26.904 31.030 67.842 45.090 106.306 45.090 59.158 0 105.496-33.098 105.496-88.12 0-47.148-38.87-88.12-110.432-140.222h112.526v-51.706h-207.658z" />
<glyph unicode="&#xe62f;" glyph-name="uniE62F" d="M512-64c-282.308 0-512 229.666-512 512 0 282.318 229.682 512 512 512 282.334 0 512-229.682 512-512 0-282.334-229.666-512-512-512zM512 908.8c-254.080 0-460.8-206.72-460.8-460.8 0-254.062 206.72-460.8 460.8-460.8 254.062 0 460.8 206.736 460.8 460.8 0 254.080-206.736 460.8-460.8 460.8zM495.026 233.164c-67.234 4.002-118.486 31.966-151.764 69.898l33.28 42.59c25.3-29.97 65.904-56.568 118.486-62.566v161.758c-67.882 18.638-137.778 41.266-137.778 123.136 0 68.566 57.9 117.154 137.778 123.154v60.57h40.62v-61.234c55.22-4.668 99.182-27.298 131.78-61.236l-33.28-40.602c-26.616 29.286-61.252 45.918-98.5 51.234v-145.1c68.548-19.302 141.782-44.604 141.782-131.798 0-59.904-38.63-122.47-141.78-129.802v-59.212h-40.62v59.212zM495.026 505.428v135.764c-47.266-3.336-80.538-31.266-80.538-69.88 0.010-36.618 35.276-52.582 80.538-65.886zM535.646 434.202v-151.748c63.216 6.648 84.514 44.596 84.514 76.518 0.010 43.28-37.932 61.26-84.514 75.23z" />
<glyph unicode="&#xe630;" glyph-name="uniE630" horiz-adv-x="868" d="M617.706-63.888c-9.672 0-18.554 5.432-22.948 14.092l-136.764 269.1c-17.146-1.226-32.046-1.21-48.824 0l-136.748-269.1c-4.428-8.694-12.702-15.13-23.112-14.092-9.758 0.086-18.622 5.63-22.95 14.384l-60.71 123.402-135.468-23.738c-9.604-1.614-19.344 2.214-25.128 10.058-5.802 7.844-6.668 18.288-2.266 27l139.022 273.556c-51.124 65.174-79.084 145.612-79.084 228.43 0 204.46 166.348 370.808 370.808 370.808s370.774-166.348 370.774-370.808c0-82.758-27.926-163.146-78.98-228.302l139.090-273.692c4.438-8.702 3.552-19.138-2.256-26.99-5.818-7.844-15.61-11.68-25.146-10.068l-135.502 23.746-60.71-123.402c-4.308-8.762-13.198-14.298-22.932-14.384-0.060 0-0.112 0-0.164 0zM180.234 128.334c9.688 0 18.71-5.484 23.094-14.384l46.514-94.542 121.342 238.798c4.858 9.568 15.286 15.232 25.884 13.894 26.184-2.996 45.862-3.038 73.102 0.034 10.642 1.004 20.966-4.376 25.832-13.928l121.334-238.798 46.532 94.54c5.054 10.212 16.092 15.928 27.558 14.014l103.802-18.184-123.384 242.778c-4.736 9.302-3.38 20.562 3.424 28.476 50.052 58.014 77.574 131.932 77.574 208.142 0 176.070-143.236 319.314-319.28 319.314-176.072 0-319.314-143.244-319.314-319.314 0-76.286 27.592-150.23 77.658-208.272 6.84-7.93 8.196-19.148 3.468-28.466l-123.316-242.658 103.758 18.184c1.476 0.232 2.962 0.37 4.42 0.37zM433.542 218.394c-204.46 0-370.808 166.33-370.808 370.79s166.348 370.808 370.808 370.808c204.46 0 370.774-166.346 370.774-370.808s-166.312-370.79-370.774-370.79zM433.542 908.5c-176.070 0-319.314-143.244-319.314-319.316 0-176.062 143.244-319.298 319.314-319.298 176.036 0 319.28 143.226 319.28 319.298s-143.244 319.316-319.28 319.316z" />
<glyph unicode="&#xe631;" glyph-name="uniE631" horiz-adv-x="1040" d="M25.122-64c-6.64 0-13.282 2.62-18.238 7.856-9.538 10.058-9.112 25.958 0.964 35.504l686.506 650.332-174.034 176.488-235.64-207.908c-10.4-9.196-26.286-8.206-35.454 2.212-9.194 10.4-8.198 26.286 2.212 35.472l253.478 223.64c9.972 8.802 25.172 8.274 34.518-1.214l208.726-211.668c4.714-4.808 7.36-11.322 7.244-18.072-0.142-6.74-2.956-13.164-7.856-17.81l-705.156-667.942c-4.84-4.614-11.054-6.892-17.266-6.892zM1014.546 383.282h-269.37c-13.9 0-25.122 11.238-25.122 25.122s11.222 25.122 25.122 25.122h269.37c13.866 0 25.122-11.238 25.122-25.122s-11.254-25.122-25.122-25.122zM507.892-64c-6.706 0-13.382 2.638-18.322 7.93-9.504 10.124-8.994 26.010 1.114 35.514l201.174 188.806-234.082 186.1c-10.86 8.634-12.662 24.468-4.020 35.312 8.618 10.91 24.418 12.66 35.296 4.036l256.826-204.222c5.712-4.548 9.178-11.338 9.472-18.658 0.294-7.27-2.588-14.344-7.898-19.352l-222.368-208.712c-4.856-4.496-11.028-6.758-17.192-6.758zM975.976 859.596c0-55.576-45.026-100.57-100.47-100.57-55.528 0-100.504 44.992-100.504 100.57 0 55.41 44.976 100.404 100.504 100.404 55.442 0.008 100.47-44.984 100.47-100.404z" />
<glyph unicode="&#xe632;" glyph-name="uniE632" horiz-adv-x="1172" d="M437.8 84.438c-241.402 0-437.8 196.38-437.8 437.8 0 241.382 196.4 437.76 437.8 437.76 241.42 0 437.8-196.38 437.8-437.76 0-241.422-196.39-437.8-437.8-437.8zM437.8 900.816c-208.766 0-378.626-169.84-378.626-378.586 0-208.796 169.86-378.626 378.626-378.626 208.806 0 378.626 169.83 378.626 378.626 0 208.748-169.82 378.586-378.626 378.586zM1142.842-64c-6.47 0-13 2.12-18.452 6.47l-371.092 296.876c-12.732 10.246-14.812 28.856-4.626 41.61 10.268 12.692 28.798 14.832 41.61 4.634l371.092-296.888c12.732-10.226 14.814-28.838 4.626-41.61-5.878-7.278-14.448-11.094-23.156-11.094z" />
<glyph unicode="&#xe633;" glyph-name="uniE633" d="M530.374 908.798c20.386 0 36.9-16.632 36.9-36.796v-87.050c52.686-9.684 100.934-30.78 142.638-60.886l55.4 55.27c7.168 7.168 16.598 10.752 26.036 10.752 9.422 0 18.868-3.584 26.104-10.752l25.866-25.984c14.43-14.354 14.43-37.702 0-52.096l-55.152-55.586c29.952-41.302 51.354-89.67 60.802-142.304h86.948c20.352 0 36.9-16.562 36.9-36.866v-36.702c0-20.6-16.546-37.154-36.9-37.154h-84.652c-7.562-54.4-27.298-104.996-56.748-148.832l56.432-56.448c14.37-14.55 14.37-37.948 0-52.182l-26.13-26.12c-7.202-7.184-16.632-10.752-26.070-10.752-9.464 0-18.902 3.568-26.13 10.752l-54.452 54.452c-43.248-33.452-94.602-56.952-150.89-67.048v-72.484c0-20.216-16.52-36.77-36.9-36.77h-36.72c-20.404 0-36.95 16.546-36.95 36.77v70.136c-58.198 8.15-112.002 30.098-157.238 63.344l-55.604-55.766c-7.186-7.168-16.616-10.736-26.036-10.736-9.43 0-18.868 3.568-26.036 10.736l-26.198 26.3c-14.406 14.404-14.406 37.736 0 52.088l55.698 55.374c-33.204 45.518-55.254 99.134-63.148 157.212h-70.052c-20.548 0-36.9 16.554-36.9 37.154v36.702c0 20.3 16.35 36.866 36.9 36.866h72.1c10.3 56.132 33.962 107.632 67.338 150.684l-54.468 54.82c-14.406 14.302-14.406 37.7 0 51.9l26.104 26.036c7.252 7.152 16.682 10.736 26.122 10.736 9.448 0 18.85-3.584 26.052-10.736l56.466-56.55c43.666 29.782 94.396 49.596 148.902 56.798v84.942c0 20.164 16.546 36.796 36.95 36.796h36.72zM530.374 960h-36.72c-48.598 0-88.152-39.466-88.152-87.996v-42.702c-31.18-7.85-61.416-19.464-89.772-34.534l-28.186 28.204c-16.716 16.666-38.802 25.77-62.27 25.77-23.4 0-45.45-9.062-62.098-25.498l-26.248-26.198c-16.564-16.316-25.814-38.418-25.864-62.022-0.034-23.646 9.166-45.832 25.934-62.464l24.362-24.534c-17.698-29.218-31.668-60.682-41.43-93.45h-31.83c-48.564 0-88.1-39.5-88.1-88.066v-36.702c0-48.736 39.536-88.364 88.1-88.364h27.93c8.798-34.602 22.222-67.934 39.818-98.886l-26.35-26.198c-16.7-16.606-25.864-38.716-25.9-62.252s9.132-45.672 25.796-62.336l26.13-26.216c16.7-16.7 38.802-25.804 62.302-25.804 23.484 0 45.57 9.106 62.182 25.668l26.472 26.538c30.814-17.552 64.18-31.002 99.022-39.884v-28.1c0-48.504 39.552-87.972 88.152-87.972h36.72c48.582 0 88.1 39.466 88.1 87.972v32.094c32.734 9.684 64.23 23.586 93.484 41.25l24.448-24.448c16.768-16.65 38.852-25.764 62.336-25.764 23.518 0 45.62 9.13 62.236 25.746l26.164 26.13c34.22 33.886 34.408 89.782 0.206 124.366l-28.452 28.468c15.078 28.434 26.59 58.404 34.466 89.636h42.522c48.564 0 88.1 39.648 88.1 88.364v36.694c0 48.564-39.536 88.064-88.1 88.064h-46.568c-8.688 29.236-20.788 57.568-35.934 84.182l26.25 26.438c16.504 16.486 25.702 38.648 25.686 62.218-0.034 23.536-9.232 45.654-25.932 62.252l-25.702 25.814c-16.854 16.716-38.93 25.814-62.37 25.814-23.534 0-45.638-9.148-62.236-25.754l-26.232-26.148c-26.702 15.198-54.922 27.206-84.404 35.918v46.704c0.034 48.52-39.484 87.988-88.066 87.988v0zM512.010 589.646c78.302 0 141.75-63.454 141.75-141.552 0-78.354-63.456-141.868-141.75-141.868s-141.75 63.514-141.75 141.87c-0.010 78.098 63.446 141.552 141.75 141.552zM512.010 640.848c-106.388 0-192.95-86.47-192.95-192.754 0-106.456 86.572-193.070 192.95-193.070 106.404 0 192.95 86.616 192.95 193.070 0 106.284-86.556 192.754-192.95 192.754v0z" />
<glyph unicode="&#xe634;" glyph-name="uniE634" horiz-adv-x="1230" d="M339.146 405.652c-1.472 0-2.934 0.082-4.386 0.316-13.068 1.888-23.424 11.96-25.656 24.946-0.954 5.514-22.306 136.496 69.588 245.69 77.69 92.25 210.094 139.044 393.568 139.044h75.73v113.914c0 11.422 6.386 21.89 16.6 27.13 10.224 5.178 22.468 4.224 31.706-2.456l321.614-232.39c7.878-5.706 12.558-14.854 12.6-24.61 0.040-9.738-4.598-18.894-12.458-24.652l-321.604-235.456c-9.24-6.782-21.534-7.828-31.768-2.6-10.234 5.198-16.702 15.706-16.702 27.168v117.946c-58.592 0.334-147.136 0.6-202.956-0.356-100.342-1.624-211.86-21.514-278.584-156.658-5.178-10.488-15.848-16.976-27.29-16.976zM751.314 640.834c48.846 0 97.508-0.254 127.308-0.438 16.752-0.102 30.276-13.726 30.276-30.458v-88.208l239.334 175.26-239.334 172.954v-84.756c0-16.812-13.634-30.458-30.458-30.458h-106.188c-164.66 0-281.396-39.486-346.954-117.356-26.276-31.19-40.966-64.846-49.018-95.306 82.076 83.598 187.95 96.808 267.722 98.118 29.646 0.498 68.552 0.65 107.316 0.65zM936.918-64h-906.46c-16.812 0-30.458 13.644-30.458 30.458v906.43c0 16.812 13.644 30.46 30.458 30.46h292.392c16.812 0 30.46-13.646 30.46-30.46s-13.644-30.46-30.46-30.46h-261.934v-845.512h845.544v261.964c0 16.802 13.626 30.458 30.458 30.458s30.458-13.656 30.458-30.458v-292.424c0-16.812-13.616-30.458-30.458-30.458z" />
<glyph unicode="&#xe635;" glyph-name="uniE635" horiz-adv-x="762" d="M555.23 653.57c-55.53 0-100.734 45.204-100.734 100.75 0 55.576 45.204 100.778 100.734 100.778 55.588 0 100.808-45.204 100.808-100.778 0-55.544-45.218-100.75-100.808-100.75zM555.23 810.904c-31.172 0-56.538-25.376-56.538-56.584 0-31.172 25.352-56.554 56.538-56.554 31.216 0 56.614 25.376 56.614 56.554 0 31.202-25.39 56.584-56.614 56.584zM240.586 723.486c-65.188 0-118.212 53.054-118.212 118.256s53.026 118.258 118.212 118.258c65.216 0 118.272-53.054 118.272-118.258s-53.056-118.256-118.272-118.256zM240.586 915.806c-40.814 0-74.018-33.234-74.018-74.064 0-40.842 33.206-74.062 74.018-74.062 40.844 0 74.076 33.218 74.076 74.062 0 40.828-33.234 74.062-74.076 74.062zM637.49-10.694h-164.448c-11.18 0-20.618 8.346-21.942 19.46l-31.43 260.26h-33.75c-6.268 0-12.212 2.652-16.404 7.254-4.198 4.648-6.216 10.856-5.598 17.058l1.724 17.006c1.15 11.278 10.642 19.866 21.994 19.866h61.946l-42.176 209.562c-1.224 6.1 0.162 12.432 3.86 17.448 23.416 31.82 59.126 50.81 95.504 50.81h101.338c57.13 0 110.264-47.346 118.426-105.522l34.082-207.818c1.046-6.416-0.766-12.948-5-17.906-4.162-4.934-10.318-7.786-16.822-7.786h-47.944l-31.452-260.262c-1.304-11.1-10.71-19.438-21.906-19.438zM492.634 33.5h125.262l31.452 260.276c1.364 11.078 10.76 19.446 21.95 19.446h41.534l-29.956 182.648c-5.192 37.072-39.414 67.978-74.732 67.978h-101.338c-19.306 0-39.288-9.642-53.962-25.612l45.418-225.76c1.296-6.504-0.36-13.236-4.574-18.356-4.168-5.112-10.46-8.102-17.088-8.102h-14.444l30.478-252.52zM352.096-64h-205.432c-11.35 0-20.844 8.588-21.978 19.85l-33.58 330.154h-69.002c-6.628 0-12.92 2.976-17.104 8.11-4.198 5.12-5.87 11.844-4.56 18.356l52.598 261.174c8.168 56.966 62.58 104.314 121.1 104.314h150.438c58.506 0 112.946-47.346 121.35-105.522l52.334-259.958c1.296-6.504-0.36-13.236-4.574-18.356-4.168-5.112-10.46-8.102-17.088-8.102h-68.98l-33.528-330.162c-1.164-11.27-10.658-19.858-21.994-19.858zM166.62-19.806h165.508l33.536 330.162c1.15 11.254 10.642 19.842 21.994 19.842h61.946l-47.244 234.708c-5.48 37.868-41.012 68.84-77.798 68.84h-150.424c-36.77 0-72.288-30.974-77.554-67.632l-47.502-235.918h61.99c11.336 0 20.83-8.588 21.98-19.842l33.566-330.162z" />
<glyph unicode="&#xe636;" glyph-name="uniE636" horiz-adv-x="1362" d="M334.502-64c-6.92 0-13.86 2.722-19.010 8.188-9.958 10.482-9.496 27.082 1.004 36.988l684.994 648.878-172.374 174.774-234.604-206.998c-10.822-9.548-27.38-8.51-36.972 2.322-9.548 10.84-8.528 27.396 2.322 36.954l253.202 223.38c10.394 9.19 26.182 8.64 35.95-1.248l208.534-211.45c4.922-5.010 7.672-11.8 7.532-18.818-0.14-7.042-3.072-13.72-8.186-18.582l-704.396-667.198c-5.062-4.808-11.522-7.192-17.998-7.192zM1336.072 382.75h-282.292c-14.472 0-26.182 11.712-26.182 26.182s11.712 26.182 26.182 26.182h282.294c14.472 0 26.182-11.712 26.182-26.182s-11.712-26.182-26.182-26.182zM816.75-64c-6.99 0-13.948 2.758-19.096 8.248-9.906 10.568-9.374 27.134 1.16 37.024l200.058 187.77-232.858 185.126c-11.32 8.998-13.23 25.486-4.224 36.804 9.034 11.32 25.504 13.196 36.804 4.206l256.598-203.996c5.952-4.756 9.548-11.826 9.854-19.438 0.306-7.62-2.68-14.976-8.212-20.178l-222.15-208.48c-5.088-4.74-11.528-7.086-17.936-7.086zM1293.026 855.318c0-57.908-46.912-104.786-104.734-104.786s-104.734 46.878-104.734 104.786c0 57.77 46.912 104.682 104.734 104.682s104.734-46.912 104.734-104.682zM532.544 457.234h-268.074c-14.472 0-26.182 11.714-26.182 26.182 0 14.452 11.712 26.182 26.182 26.182h268.074c14.452 0 26.182-11.73 26.182-26.182 0-14.478-11.722-26.182-26.182-26.182zM413.392 352.99h-268.058c-14.454 0-26.182 11.712-26.182 26.182s11.73 26.182 26.182 26.182h268.058c14.452 0 26.182-11.712 26.182-26.182s-11.73-26.182-26.182-26.182zM294.24 248.718h-268.058c-14.452 0-26.182 11.712-26.182 26.182s11.73 26.182 26.182 26.182h268.058c14.452 0 26.182-11.712 26.182-26.182s-11.73-26.182-26.182-26.182z" />
<glyph unicode="&#xe637;" glyph-name="uniE637" horiz-adv-x="2740" d="M2288.476 607.302c0-143.84-116.316-260.004-259.982-260.004-143.45 0-260.156 116.142-260.156 260.004 0 143.884 116.706 260.112 260.156 260.112 143.666 0 259.982-116.25 259.982-260.112zM2021.43-64c-185.906 0-281.958 76.872-366.784 144.684-77.934 62.308-145.228 116.142-285.426 116.142s-207.492-53.834-285.426-116.142c-84.782-67.812-180.878-144.684-366.784-144.684-185.776 0-281.87 76.828-366.568 144.642-77.934 62.352-145.228 116.186-285.426 116.186-35.932 0-65.016 29.084-65.016 65.016s29.084 65.018 65.016 65.018c185.818 0 281.916-76.872 366.654-144.684 77.892-62.308 145.184-116.142 285.338-116.142 140.286 0 207.622 53.834 285.556 116.186 84.782 67.812 180.836 144.642 366.654 144.642 185.776 0 281.914-76.828 366.61-144.642 77.978-62.352 145.27-116.186 285.598-116.186 140.242 0 207.536 53.834 285.468 116.186 84.826 67.812 180.9 144.642 366.784 144.642 35.976 0 65.016-29.084 65.016-65.018s-29.042-65.018-65.016-65.018c-140.286 0-207.556-53.834-285.512-116.186-84.848-67.812-180.878-144.642-366.74-144.642zM1528.47 193.664c-22.106 0-43.648 11.248-55.828 31.534l-355.578 592.676-778.43-239.48c-34.156-10.49-70.694 8.668-81.228 42.998-10.532 34.286 8.712 70.694 43.040 81.228l827.020 254.478c28.608 8.842 59.512-3.056 74.878-28.65l381.76-636.28c18.508-30.818 8.582-70.782-22.236-89.226-10.51-6.284-22.020-9.276-33.396-9.276z" />
<glyph unicode="&#xe638;" glyph-name="uniE638" horiz-adv-x="776" d="M642.248-63.99h-292.202c-43.158 0-90.154 23.4-109.294 54.44-55.458 89.852-185.26 369.066-196.854 394.018-11.79 19.604-15.5 42.634-10.376 65.040 5.234 22.994 19.138 42.556 39.080 55.086 14.084 8.84 30.29 13.506 46.85 13.506 30.574 0 58.538-15.448 74.796-41.304l60.496-96.27c3.942-5.226 5.934-6.356 6.132-6.47 4.432-0.172 9.348-0.138 21.346 10.238 23.536 20.302 29.498 26.736 29.498 38.63l-0.828 448.81c0 48.696 39.572 88.284 88.216 88.284 48.67 0 88.24-39.588 88.24-88.232v-317.194c44.020-19.896 163.612-74.57 220.572-100.634 34.938-16.982 58.424-59.848 54.052-97.876l-38.336-347.486c-4.77-40.77-40.486-72.586-81.384-72.586zM119.454 466.332c-6.822 0-13.506-1.924-19.32-5.572-8.236-5.176-13.98-13.274-16.138-22.794-2.192-9.504-0.526-19.25 4.65-27.48 0.604-0.94 1.13-1.924 1.588-2.932 1.38-2.994 139.342-300.488 194.568-389.938 8.728-14.126 37.666-29.868 65.254-29.868h292.202c14.318 0 28.28 12.438 29.962 26.668l38.336 347.452c1.924 16.542-9.884 38.044-24.726 45.28-89.516 40.952-226.332 103.42-234.062 106.654-9.626 4.028-16.172 13.54-16.172 23.986v333.952c0 20.112-16.36 36.482-36.492 36.482-20.104 0-36.466-16.37-36.466-36.482l0.828-448.81c0-36.94-23.028-56.786-47.418-77.806-12.334-10.696-29.566-22.976-53.266-22.976-25.718 0-39.604 14.050-50.792 29.246l-61.556 97.856c-6.728 10.694-18.318 17.076-30.98 17.076zM250.3 808.48h-199.51c-14.284 0-25.874 11.592-25.874 25.874s11.592 25.874 25.874 25.874h199.518c14.3 0 25.874-11.592 25.874-25.874s-11.574-25.874-25.884-25.874zM100.668 746.164c-5.83 0-11.704 1.958-16.542 5.978l-74.828 62.314c-5.9 4.916-9.298 12.212-9.298 19.896 0 7.668 3.408 14.956 9.298 19.88l74.828 62.358c10.962 9.15 27.272 7.684 36.44-3.322 9.15-10.98 7.666-27.288-3.32-36.44l-50.954-42.486 50.954-42.434c10.978-9.15 12.464-25.452 3.338-36.44-5.124-6.142-12.506-9.306-19.916-9.306zM724.116 808.48h-199.484c-14.3 0-25.874 11.592-25.874 25.874s11.574 25.874 25.874 25.874h199.484c14.318 0 25.874-11.592 25.874-25.874s-11.558-25.874-25.874-25.874zM674.272 746.164c-7.426 0-14.774 3.164-19.914 9.316-9.15 10.98-7.668 27.288 3.338 36.44l50.956 42.434-50.956 42.486c-10.996 9.152-12.48 25.452-3.338 36.44 9.178 10.98 25.452 12.48 36.44 3.322l74.846-62.358c5.924-4.916 9.316-12.196 9.316-19.88s-3.408-14.972-9.316-19.896l-74.846-62.314c-4.822-4.028-10.686-5.986-16.524-5.986z" />
<glyph unicode="&#xe639;" glyph-name="uniE639" horiz-adv-x="1384" d="M345.418-64c-7.178 0-14.374 2.824-19.714 8.49-10.328 10.87-9.848 28.086 1.040 38.35l683.568 647.552-170.764 173.234-160.896-141.954c-11.242-9.902-28.412-8.86-38.324 2.408-9.938 11.242-8.86 28.394 2.39 38.324l180.178 158.952c10.798 9.514 27.136 8.978 37.284-1.312l208.272-211.26c5.106-5.194 7.956-12.238 7.828-19.534-0.144-7.286-3.186-14.228-8.49-19.252l-703.716-666.552c-5.24-4.978-11.94-7.448-18.654-7.448zM1355.596 382.342h-291.608c-15.008 0-27.154 12.148-27.154 27.154s12.146 27.154 27.154 27.154h291.608c15.026 0 27.154-12.148 27.154-27.154s-12.128-27.154-27.154-27.154zM827.188-64c-7.25 0-14.464 2.86-19.804 8.554-10.274 10.962-9.712 28.14 1.212 38.396l199.014 186.794-231.706 184.278c-11.74 9.332-13.686 26.412-4.336 38.134 9.314 11.758 26.412 13.704 38.162 4.346l256.272-203.828c6.182-4.914 9.92-12.256 10.238-20.13s-2.806-15.524-8.526-20.928l-221.932-208.29c-5.26-4.888-11.938-7.322-18.592-7.322zM1311.010 851.42c0-60.020-48.686-108.652-108.616-108.652-60.002 0-108.616 48.632-108.616 108.652 0 59.93 48.616 108.58 108.616 108.58 59.938 0 108.616-48.65 108.616-108.58zM218.628 391.946v158.418l-36.314-36.966-26.52 27.806 68.736 69.054h40.586v-218.31h-46.488zM297.844 500.932c0 56.326 27.806 112.608 90.35 112.608 62.49 0 90.306-56.29 90.306-112.608 0-56.29-27.806-112.916-90.306-112.916-62.546 0-90.35 56.626-90.35 112.916zM431.072 500.932c0 40.27-11.46 71.352-42.868 71.352-31.118 0-42.884-31.082-42.884-71.352 0-40.25 11.776-71.668 42.884-71.668 31.072 0 42.868 31.408 42.868 71.668zM318.12 190.036c-175.408 0-318.12 142.722-318.12 318.138 0 175.406 142.722 318.11 318.12 318.11 175.426 0 318.138-142.704 318.138-318.11 0.010-175.416-142.712-318.138-318.138-318.138zM318.12 771.976c-145.456 0-263.81-118.338-263.81-263.802 0-145.492 118.356-263.828 263.81-263.828 145.492 0 263.83 118.338 263.83 263.83 0.010 145.464-118.338 263.802-263.83 263.802z" />
<glyph unicode="&#xe63a;" glyph-name="uniE63A" horiz-adv-x="898" d="M26.558-64c-8.28 0-16.428 3.856-21.612 11.11-8.52 11.924-5.75 28.514 6.166 37.014l89.538 63.952c9.228 6.564 21.594 6.564 30.822 0l75.090-53.628 87.256 54.53c8.608 5.38 19.508 5.38 28.116 0l87.272-54.53 75.056 53.628c9.226 6.564 21.63 6.564 30.856 0l74.092-52.93 74.072 52.93c11.908 8.52 28.496 5.724 37.024-6.184 8.52-11.916 5.74-28.476-6.166-37.014l-89.502-63.944c-9.226-6.582-21.596-6.582-30.822 0l-74.108 52.922-74.056-52.922c-8.758-6.254-20.408-6.582-29.496-0.902l-88.264 55.116-88.246-55.116c-9.086-5.688-20.772-5.352-29.496 0.902l-74.090 52.922-74.090-52.922c-4.67-3.344-10.058-4.936-15.412-4.936zM64.908 166.19c-7.068 0-14.138 2.832-19.356 8.394-10.024 10.678-9.484 27.47 1.212 37.51l523.748 491.148-138.636 119.474-161.778-138.628c-11.164-9.536-27.902-8.226-37.42 2.884-9.538 11.13-8.246 27.884 2.884 37.42l179.092 153.464c9.97 8.536 24.674 8.52 34.59-0.052l178.278-153.64c5.716-4.91 9.068-12.004 9.226-19.542s-2.902-14.774-8.394-19.904l-545.28-511.346c-5.112-4.804-11.626-7.182-18.162-7.182zM870.528 498.666h-230.172c-14.684 0-26.54 11.89-26.54 26.54 0 14.668 11.856 26.54 26.54 26.54h230.172c14.668 0 26.54-11.872 26.54-26.54 0-14.658-11.872-26.54-26.54-26.54zM444.73 166.19c-7.050 0-14.084 2.796-19.302 8.326-10.076 10.644-9.59 27.442 1.070 37.528l143.218 135.222-174.642 138.856c-11.474 9.12-13.376 25.814-4.246 37.288 9.104 11.474 25.814 13.412 37.306 4.246l198.572-157.894c6.060-4.804 9.688-11.986 10.032-19.684 0.318-7.67-2.706-15.138-8.298-20.436l-165.494-156.232c-5.13-4.804-11.686-7.22-18.214-7.22zM844.97 857.742c0-56.538-45.826-102.356-102.284-102.356-56.504 0-102.32 45.826-102.32 102.356 0 56.416 45.836 102.258 102.32 102.258 56.468 0 102.284-45.842 102.284-102.258z" />
<glyph unicode="&#xe63b;" glyph-name="uniE63B" horiz-adv-x="820" d="M726.892-64h-633.406c-14.138 0-25.614 11.458-25.614 25.616v837.038c0 14.14 11.474 25.616 25.614 25.616h633.406c14.158 0 25.616-11.476 25.616-25.616v-837.038c0-14.158-11.458-25.616-25.616-25.616zM119.1-12.77h582.176v785.808h-582.176v-785.808zM794.78 775.794h-769.164c-14.138 0-25.614 11.476-25.614 25.616s11.474 25.616 25.614 25.616h769.164c14.158 0 25.616-11.476 25.616-25.616s-11.458-25.616-25.616-25.616zM560.24 821.27h-51.23v67.888c0 10.826-8.82 19.612-19.664 19.612h-158.326c-10.844 0-19.646-8.786-19.646-19.612v-67.888h-51.23v67.888c0 39.054 31.806 70.842 70.878 70.842h158.326c39.088 0 70.894-31.788 70.894-70.842v-67.888zM568.548 184.85c-14.158 0-25.616 11.458-25.616 25.616v316.712c0 14.14 11.458 25.616 25.616 25.616s25.616-11.476 25.616-25.616v-316.712c0-14.164-11.458-25.616-25.616-25.616zM251.83 184.85c-14.158 0-25.616 11.458-25.616 25.616v316.712c0 14.14 11.458 25.616 25.616 25.616 14.14 0 25.616-11.476 25.616-25.616v-316.712c0-14.164-11.476-25.616-25.616-25.616zM410.224 184.85c-14.156 0-25.616 11.458-25.616 25.616v316.712c0 14.14 11.458 25.616 25.616 25.616 14.14 0 25.598-11.476 25.598-25.616v-316.712c0-14.164-11.458-25.616-25.598-25.616z" />
<glyph unicode="&#xe63c;" glyph-name="uniE63C" horiz-adv-x="1040" d="M900.822 373.664c-6.952 0-13.884 2.756-19.014 8.206-9.934 10.492-9.456 27.054 1.038 36.962 57.232 54.102 88.788 127.2 88.788 205.836 0 156.060-126.948 283-283 283-151.716 0-275.9-118.634-282.712-270.072-0.644-14.462-13.3-25.328-27.308-24.972-14.442 0.664-25.626 12.882-24.972 27.326 8.076 179.462 155.224 320.048 334.99 320.048 184.894 0 335.33-150.434 335.33-335.33 0-93.184-37.374-179.784-105.178-243.856-5.076-4.77-11.514-7.152-17.966-7.152zM732.784 624.67c0-24.414-19.79-44.15-44.15-44.15-24.414 0-44.15 19.746-44.15 44.15 0 24.378 19.754 44.15 44.15 44.15 24.378 0 44.15-19.772 44.15-44.15zM803.11 186.292h-788.396v246.952c0 62.422 42.058 85.1 70.316 85.1h10.832l7.668-7.668c1.378-1.326 38.77-36.492 113.996-36.492 74.31 0 110.592 47.77 110.95 48.258l11.296 15.228 327.646-109.024c40.818-13.59 135.686-53.238 135.686-127.898l0.010-114.456zM67.046 238.624h683.734v62.144c0 33.222-53.778 62.912-99.856 78.244l-293.648 97.694c-21.142-20.392-67.542-54.834-139.734-54.834-72.242 0-118.87 26.986-139.228 42.022-5.574-3.34-11.26-11.478-11.26-30.648l-0.010-194.62zM453.092 392.398c-8.452 0-16.746 4.092-21.806 11.652-8.008 12.010-4.772 28.26 7.258 36.284l44.15 29.472c12.046 8.060 28.276 4.752 36.292-7.258 8.024-12.026 4.788-28.276-7.248-36.282l-44.15-29.472c-4.466-2.966-9.524-4.396-14.496-4.396zM585.604 348.24c-8.47 0-16.764 4.092-21.788 11.652-8.042 12.028-4.788 28.26 7.256 36.284l44.15 29.436c12.028 8.058 28.24 4.788 36.284-7.256 8.006-12.028 4.77-28.26-7.256-36.284l-44.15-29.436c-4.474-2.956-9.498-4.396-14.496-4.396zM765.902-64c-72.14 0-108.9 35.14-141.356 66.13-29.026 27.736-54.068 51.686-105.256 51.686-51.136 0-76.194-23.95-105.202-51.65-32.454-31.024-69.234-66.164-141.356-66.164-72.14 0-108.918 35.14-141.372 66.164-29.010 27.702-54.050 51.65-105.194 51.65-14.442 0-26.166 11.688-26.166 26.166 0 14.442 11.722 26.166 26.166 26.166 72.13 0 108.884-35.14 141.338-66.13 29.010-27.736 54.050-51.686 105.222-51.686 51.136 0 76.194 23.95 105.204 51.65 32.454 31.024 69.234 66.164 141.356 66.164 72.148 0 108.936-35.14 141.39-66.164 29.026-27.702 54.068-51.65 105.212-51.65 51.188 0 76.23 23.95 105.256 51.686 32.438 30.99 69.226 66.13 141.32 66.13 14.462 0 26.166-11.722 26.166-26.166 0-14.478-11.704-26.166-26.166-26.166-51.136 0-76.178-23.95-105.178-51.65-32.446-31.024-69.216-66.164-141.382-66.164z" />
<glyph unicode="&#xe63d;" glyph-name="uniE63D" horiz-adv-x="1100" d="M772.85-64h-447.12c-15.252 0-27.632 12.36-27.632 27.632s12.38 27.632 27.632 27.632h447.12c15.254 0 27.632-12.36 27.632-27.632s-12.38-27.632-27.632-27.632zM623.81-64h-149.048c-15.252 0-27.632 12.36-27.632 27.632v443.832c-166.734 79.914-207.436 334.894-223.436 522.566-0.646 7.7 1.944 15.326 7.194 21.028 5.212 5.702 12.61 8.944 20.328 8.944h596.15c7.754 0 15.116-3.242 20.366-8.944 5.212-5.702 7.848-13.328 7.158-21.028-12.416-145.88-37.846-444.456-223.454-526.13v-440.266c0.010-15.27-12.352-27.632-27.624-27.632zM502.392-8.736h93.784v431.488c0 11.818 7.498 22.308 18.688 26.158 156.436 53.504 189.65 315.994 202.37 455.822h-535.828c11.624-124.042 47.168-393.254 203.282-453.346 10.666-4.1 17.702-14.36 17.702-25.798v-434.326zM288.49 569.406c-0.432 0-0.866 0-1.298 0.018-227.176 10.416-287.192 241.966-287.192 362.942 0 15.254 12.362 27.632 27.632 27.632h241.424c15.252 0 27.632-12.378 27.632-27.632s-12.38-27.632-27.632-27.632h-212.344c6.458-74.33 41.634-271.322 233.024-280.1 15.236-0.7 27.044-13.624 26.334-28.876-0.664-14.802-12.914-26.352-27.576-26.352zM810.090 569.406c-14.682 0-26.914 11.55-27.596 26.352-0.682 15.252 11.1 28.176 26.334 28.876 191.99 8.796 226.76 205.786 233.078 280.1h-212.392c-15.29 0-27.632 12.38-27.632 27.632s12.342 27.632 27.632 27.632h241.386c15.29 0 27.632-12.378 27.632-27.632 0-120.984-60.028-352.524-287.164-362.942-0.414-0.018-0.846-0.018-1.28-0.018zM623.81-64h-149.048c-15.252 0-27.632 12.36-27.632 27.632v461.958c0 9.1 4.496 17.63 12.002 22.778 7.516 5.166 17.086 6.3 25.56 3.002 20.974-8.078 43.696-12.47 67.57-13.042l2.984 0.018c20.402 0.488 40.692 4.034 59.602 10.528 8.418 2.846 17.758 1.548 25.026-3.638 7.25-5.196 11.568-13.586 11.568-22.502v-459.102c0-15.27-12.36-27.632-27.632-27.632zM502.392-8.736h93.784v395.87c-13.154-2.376-26.592-3.722-40.278-4.034h-4.302c-16.986 0.414-33.39 2.284-49.204 5.6v-397.436z" />
<glyph unicode="&#xe63e;" glyph-name="uniE63E" horiz-adv-x="1104" d="M696.85-64.010h-224.808c-17.928 0-32.442 14.534-32.442 32.442 0 17.952 14.512 32.442 32.442 32.442h203.028c200.716 0 363.97 146.828 363.97 327.248 0 180.438-164.736 327.248-367.202 327.248h-559.482c-17.908 0-32.442 14.512-32.442 32.44 0 17.908 14.534 32.442 32.442 32.442h559.494c238.27 0 432.086-175.918 432.086-392.13 0-207.15-176.61-377.326-399.406-391.2-2.456-0.584-5.018-0.93-7.678-0.93zM312.162 415.558c-7.472 0-15 2.574-21.098 7.818l-279.742 239.774c-7.202 6.164-11.322 15.16-11.322 24.644 0 9.462 4.12 18.458 11.322 24.622l279.742 239.764c13.56 11.658 34.062 10.1 45.742-3.524 11.656-13.604 10.078-34.086-3.524-45.742l-250.998-215.108 250.998-215.182c13.604-11.656 15.182-32.14 3.524-45.742-6.424-7.482-15.518-11.322-24.644-11.322z" />
<glyph unicode="&#xe63f;" glyph-name="uniE63F" horiz-adv-x="840" d="M814.818-64h-789.366c-14.066 0-25.452 11.384-25.452 25.452v552.534c0 14.048 11.384 25.452 25.452 25.452h157.838c14.066 0 25.45-11.402 25.45-25.452s-11.384-25.452-25.45-25.452h-132.388v-501.632h738.464v501.632h-132.422c-14.066 0-25.452 11.402-25.452 25.452s11.384 25.452 25.452 25.452h157.872c14.066 0 25.452-11.402 25.452-25.452v-552.536c0-14.066-11.384-25.452-25.452-25.452zM420.112 278.046c-14.048 0-25.452 11.384-25.452 25.452v605.144c0 14.048 11.402 25.452 25.452 25.452 14.066 0 25.452-11.402 25.452-25.452v-605.144c0-14.066-11.384-25.452-25.452-25.452zM235.906 699.050c-5.948 0-11.912 2.070-16.754 6.296-10.57 9.264-11.648 25.332-2.384 35.904l184.208 210.472c9.68 11.054 28.632 11.036 38.296 0l184.208-210.472c9.246-10.572 8.17-26.648-2.418-35.904-10.562-9.248-26.612-8.17-35.912 2.384l-165.034 188.584-165.050-188.576c-5.022-5.752-12.064-8.688-19.156-8.688z" />
<glyph unicode="&#xe640;" glyph-name="uniE640" horiz-adv-x="848" d="M423.624 465.834c-136.212 0-247.020 110.824-247.020 247.040 0 136.248 110.808 247.126 247.020 247.126 136.25 0 247.144-110.878 247.144-247.126 0-136.214-110.894-247.040-247.144-247.040zM423.624 907.364c-107.192 0-194.384-87.244-194.384-194.49 0-107.212 87.192-194.404 194.384-194.404 107.246 0 194.508 87.192 194.508 194.404 0 107.246-87.262 194.49-194.508 194.49zM821.070-64h-794.752c-14.528 0-26.318 11.79-26.318 26.318v146.836c0 126.142 107.686 232.694 235.152 232.694h385.762c124.862 0 226.466-104.394 226.466-232.694v-146.836c0.010-14.536-11.782-26.318-26.308-26.318zM52.636-11.364h742.116v120.52c0 99.272-77.998 180.058-173.832 180.058h-385.77c-98.93 0-182.516-82.446-182.516-180.058v-120.52z" />
<glyph unicode="&#xe641;" glyph-name="uniE641" horiz-adv-x="1588" d="M793.976-64c-431.904 0-771.876 467.656-786.13 487.548-10.462 14.618-10.462 34.284 0 48.904 14.268 19.892 354.212 487.548 786.13 487.548 431.86 0 771.82-467.656 786.072-487.548 10.49-14.618 10.49-34.284 0-48.904-14.268-19.89-354.212-487.548-786.072-487.548zM94.826 448.028c74.782-94.168 363.696-428.098 699.136-428.098 335.37 0 624.256 333.858 699.122 428.070-74.866 94.224-363.752 428.070-699.122 428.070-336.012 0-624.438-333.818-699.136-428.042zM793.976 206.268c-126.846 0-230.038 103.164-230.038 229.982 0 126.79 103.192 229.982 230.038 229.982 126.762 0 229.884-103.192 229.884-229.982-0.014-126.818-103.122-229.982-229.884-229.982zM793.976 582.316c-80.572 0-146.108-65.55-146.108-146.052 0-80.558 65.548-146.052 146.108-146.052 80.462 0 145.954 65.534 145.954 146.052-0.014 80.504-65.492 146.052-145.954 146.052z" />
<glyph unicode="&#xe642;" glyph-name="uniE642" horiz-adv-x="524" d="M430.246-64c-14.036 0-25.396 11.36-25.396 25.398v271.182l-192.902 154.322c-6.036 4.818-9.54 12.14-9.54 19.844v248.114l-151.622-50.514v-197.608c0-14.036-11.362-25.398-25.396-25.398-14.020 0-25.396 11.36-25.396 25.398v215.91c0 10.946 7.010 20.64 17.38 24.11l202.416 67.43c7.704 2.582 16.22 1.286 22.866-3.506 6.628-4.758 10.548-12.436 10.548-20.588v-271.158l192.916-154.322c6.036-4.842 9.524-12.124 9.524-19.844v-283.392c0-14.028-11.354-25.38-25.396-25.38zM79.35-64c-3.004 0-6.070 0.524-9.040 1.65-13.098 4.996-19.674 19.674-14.68 32.804l107.954 283.374c4.978 13.096 19.674 19.726 32.77 14.68 13.112-4.978 19.692-19.658 14.698-32.77l-107.972-283.408c-3.852-10.116-13.494-16.33-23.728-16.33zM497.658 367.846c-5.554 0-11.158 1.82-15.838 5.554l-134.952 107.938c-10.946 8.762-12.732 24.738-3.97 35.682 8.778 10.946 24.754 12.732 35.716 3.97l134.952-107.904c10.928-8.778 12.716-24.754 3.97-35.716-5.046-6.248-12.402-9.524-19.878-9.524zM349.28 872.286c0-48.45-39.29-87.698-87.73-87.698s-87.73 39.256-87.73 87.698c0 48.466 39.29 87.714 87.73 87.714s87.73-39.246 87.73-87.714z" />
<glyph unicode="&#xe643;" glyph-name="uniE643" horiz-adv-x="1248" d="M594.024 534.99h58.62v-293.106h-58.62v293.106zM594.024 183.264h58.62v-58.62h-58.62v58.62zM1217.372-64h-1188.070c-10.61 0-20.4 5.764-25.568 14.996-5.188 9.272-4.944 20.606 0.606 29.652l594.016 966.346c10.688 17.342 39.276 17.342 49.956 0l594.016-966.346c5.568-9.048 5.804-20.38 0.606-29.652-5.168-9.232-14.958-14.996-25.558-14.996zM81.736-5.38h1083.208l-541.618 881.052-541.59-881.052z" />
<glyph unicode="&#xe644;" glyph-name="uniE644" d="M960 640l-82.188 82.156-210.562-210.532-91.624 91.624 210.562 210.564-82.188 82.188c0 35.344 28.624 64 64 64h192c35.376 0 64-28.656 64-64v-192c0-35.376-28.624-64-64-64zM320 0c0-35.376-28.624-64-64-64h-192c-35.376 0-64 28.624-64 64v192c0 35.376 28.624 64 64 64l82.188-82.188 210.562 210.562 91.624-91.624-210.562-210.626 82.188-82.124z" />
<glyph unicode="&#xe645;" glyph-name="uniE645" d="M792.736 521.568c-20.832-21.408-240.384-230.56-240.384-230.56-11.168-11.424-25.76-17.088-40.352-17.088-14.656 0-29.248 5.696-40.352 17.088 0 0-219.552 209.152-240.448 230.56-20.832 21.408-22.272 59.84 0 82.752 22.336 22.848 53.408 24.64 80.704 0l200.096-191.904 200.032 191.84c27.328 24.64 58.464 22.848 80.704 0 22.336-22.848 20.928-61.344 0-82.688z" />
<glyph unicode="&#xe646;" glyph-name="uniE646" d="M687.008 570.816c13.888 13.728 36.288 13.728 50.112 0 13.888-13.728 13.888-35.904 0-49.6l-200.032-196.096c-13.888-13.728-36.288-13.728-50.112 0l-200.096 196.096c-13.824 13.728-13.824 35.904 0 49.6 13.888 13.728 36.256 13.728 50.112 0l175.008-160.768 175.008 160.768z" />
<glyph unicode="&#xe647;" glyph-name="uniE647" d="M585.568 728.768c-21.408-20.896-230.496-240.448-230.496-240.448-11.424-11.168-17.088-25.76-17.088-40.352s5.696-29.184 17.088-40.352c0 0 209.088-219.552 230.496-240.384 21.408-20.896 59.904-22.336 82.752 0 22.784 22.272 24.576 53.344-0.064 80.64l-191.84 200.096 191.84 200.096c24.64 27.328 22.848 58.432 0.064 80.704-22.88 22.272-61.376 20.896-82.752 0z" />
<glyph unicode="&#xe648;" glyph-name="uniE648" d="M634.816 272.992c13.728-13.888 13.728-36.288 0-50.112-13.728-13.888-35.904-13.888-49.6 0l-196.096 200.032c-13.728 13.888-13.728 36.288 0 50.112l196.096 200.096c13.728 13.888 35.904 13.888 49.6 0s13.728-36.256 0-50.112l-160.768-175.008 160.768-175.008z" />
<glyph unicode="&#xe649;" glyph-name="uniE649" d="M438.432 728.768c21.408-20.896 230.496-240.448 230.496-240.448 11.456-11.168 17.152-25.76 17.152-40.352s-5.696-29.184-17.152-40.352c0 0-209.088-219.552-230.496-240.384-21.408-20.896-59.84-22.336-82.752 0-22.848 22.272-24.64 53.344 0 80.64l191.904 200.096-191.84 200.096c-24.64 27.328-22.848 58.432 0 80.704s61.344 20.896 82.688 0z" />
<glyph unicode="&#xe64a;" glyph-name="uniE64A" d="M389.184 272.992c-13.728-13.888-13.728-36.288 0-50.112 13.664-13.888 35.904-13.888 49.6 0l196.096 200.032c13.728 13.888 13.728 36.288 0 50.112l-196.096 200.096c-13.728 13.888-35.904 13.888-49.6 0s-13.728-36.256-0.064-50.080l160.832-175.040-160.768-175.008z" />
<glyph unicode="&#xe64b;" glyph-name="uniE64B" d="M792.736 374.432c-20.832 21.408-240.384 230.496-240.384 230.496-11.168 11.424-25.76 17.152-40.352 17.152-14.656 0-29.248-5.728-40.352-17.152 0 0-219.552-209.088-240.448-230.496-20.832-21.408-22.272-59.904 0-82.752 22.336-22.784 53.408-24.64 80.704 0l200.096 191.84 200.032-191.84c27.328-24.64 58.464-22.784 80.704 0 22.336 22.88 20.928 61.376 0 82.752z" />
<glyph unicode="&#xe64c;" glyph-name="uniE64C" d="M336.96 325.184c-13.888-13.728-36.256-13.728-50.112 0-13.824 13.728-13.888 35.904 0 49.664l200.096 196c13.888 13.728 36.288 13.728 50.112 0l200.096-196.032c13.888-13.76 13.888-35.936 0-49.664s-36.256-13.728-50.112 0l-175.040 160.832-175.008-160.768z" />
<glyph unicode="&#xe64d;" glyph-name="uniE64D" horiz-adv-x="1666" d="M1539.946 385.814h-1477.792c-34.308 0-62.156 27.846-62.156 62.154s27.844 62.154 62.156 62.154h1477.792c34.372 0 62.154-27.846 62.154-62.154s-27.782-62.154-62.154-62.154zM1090.258-64c-17.278 0-34.496 7.148-46.802 21.256-22.562 25.794-19.952 65.076 5.904 87.7l460.504 402.948-460.506 403.136c-25.856 22.624-28.466 61.906-5.904 87.7 22.624 25.856 61.906 28.466 87.7 5.842l514.020-449.876c13.55-11.81 21.258-28.84 21.258-46.74 0-17.962-7.708-34.932-21.258-46.74l-514.020-449.814c-11.748-10.38-26.354-15.414-40.898-15.414z" />
<glyph unicode="&#xe64e;" glyph-name="uniE64E" horiz-adv-x="1666" d="M1604.278 385.814h-1477.854c-34.308 0-62.156 27.846-62.156 62.154s27.844 62.154 62.156 62.154h1477.792c34.372 0 62.154-27.846 62.154-62.154s-27.782-62.154-62.094-62.154zM576.114-64c-14.482 0-29.088 5.034-40.898 15.352l-514.020 449.814c-13.426 11.808-21.196 28.84-21.196 46.802 0 17.902 7.77 34.93 21.196 46.74l514.020 449.876c25.856 22.624 65.076 20.014 87.7-5.842s20.014-65.076-5.842-87.7l-460.568-403.136 460.568-402.95c25.856-22.624 28.466-61.906 5.842-87.7-12.308-14.048-29.524-21.258-46.802-21.258z" />
<glyph unicode="&#xe64f;" glyph-name="uniE64F" horiz-adv-x="1248" d="M704.356-64h-673.342c-17.12 0-31.016 13.864-31.016 31.014v961.97c0 17.12 13.894 31.014 31.016 31.014h673.342c17.15 0 31.014-13.894 31.014-31.014v-192.388c0-17.12-13.864-31.014-31.014-31.014s-31.014 13.894-31.014 31.014v161.372h-611.312v-899.94h611.312v161.372c0 17.15 13.864 31.014 31.014 31.014s31.014-13.864 31.014-31.014v-192.388c0-17.12-13.864-31.014-31.014-31.014zM1185.31 416.986h-737.45c-17.12 0-31.014 13.894-31.014 31.014s13.894 31.014 31.014 31.014h737.42c17.152 0 31.016-13.894 31.016-31.014s-13.834-31.014-30.984-31.014zM960.884 192.558c-8.622 0-17.212 3.568-23.354 10.606-11.26 12.87-9.956 32.472 2.946 43.764l229.792 201.072-229.792 201.164c-12.902 11.29-14.206 30.892-2.946 43.762 11.29 12.902 30.89 14.206 43.764 2.916l256.496-224.488c6.76-5.892 10.606-14.392 10.606-23.322 0-8.964-3.846-17.43-10.606-23.324l-256.496-224.456c-5.862-5.18-13.12-7.692-20.408-7.692z" />
<glyph unicode="&#xe650;" glyph-name="uniE650" horiz-adv-x="816" d="M408.182-64c-14.332 0-25.964 11.606-25.964 25.964v972.072c0 14.332 11.632 25.964 25.964 25.964s25.964-11.632 25.964-25.964v-972.072c0-14.358-11.632-25.964-25.964-25.964zM790.322 551.818h-764.36c-14.332 0-25.964 11.632-25.964 25.964s11.632 25.964 25.964 25.964h764.36c14.358 0 25.964-11.632 25.964-25.964s-11.606-25.964-25.964-25.964z" />
<glyph unicode="&#xe651;" glyph-name="uniE651" d="M31.063-54.22c-8.403 0-16.6 3.488-22.517 9.381v0c-5.9 5.918-9.339 14.136-9.339 22.539v0 948.742c0 8.403 3.446 16.6 9.339 22.517v0c5.918 5.973 14.109 9.339 22.517 9.339v0h306.058c17.573 0 31.901-14.281 31.901-31.857v0c0-17.6-14.325-31.901-31.901-31.901v0h-274.157v-884.921h885.007v274.182c0 17.51 14.237 31.841 31.841 31.841v0c17.6 0 31.841-14.325 31.841-31.841v0-306.104c0-8.53-3.263-16.501-9.295-22.539v0c-5.973-6.038-14.010-9.381-22.539-9.381v0h-948.742zM1004.847 838.661l-112.823 112.804c-12.458 12.475-32.623 12.475-45.119 0l-502.434-502.507c-3.741-3.741-6.492-8.345-8.017-13.33l-47.597-157.465c-3.355-11.081-0.415-23.252 7.725-31.596 6.079-6.184 14.39-9.524 22.869-9.524 2.823 0 5.666 0.372 8.47 1.135l160.42 44.706c5.314 1.497 10.039 4.21 13.965 8.139l502.529 502.573c6.038 5.973 9.381 14.070 9.295 22.539 0.005 8.521-3.314 16.536-9.287 22.517zM463.085 342.019l-96.428-26.789 28.524 94.274 364.468 364.487 67.699-67.699-364.262-364.262zM872.469 751.381l-67.684 67.699 64.738 64.759 67.661-67.699-64.718-64.759z" />
<glyph unicode="&#xe652;" glyph-name="uniE652" d="M512-64c-282.317 0-512 229.683-512 512s229.683 512 512 512c282.317 0 512-229.683 512-512s-229.683-512-512-512zM512 908.8c-254.080 0-460.8-206.72-460.8-460.8s206.72-460.8 460.8-460.8c254.080 0 460.8 206.72 460.8 460.8s-206.72 460.8-460.8 460.8zM457.549 191.744c-7.296 0-14.259 3.098-19.149 8.602l-206.694 232.55c-9.395 10.573-8.448 26.726 2.125 36.147 10.598 9.37 26.752 8.448 36.147-2.125l184.934-208.051 297.088 434.227c7.987 11.674 23.885 14.669 35.584 6.682 11.674-7.987 14.643-23.91 6.682-35.584l-315.597-461.286c-4.454-6.502-11.648-10.598-19.507-11.11-0.538-0.026-1.075-0.051-1.613-0.051z" />
<glyph unicode="&#xe653;" glyph-name="uniE653" d="M1006.626 464.384c-4.164 113.681-52.378 218.931-135.748 296.38-83.354 77.431-191.778 117.641-305.545 113.613-115.575-4.267-221.781-54.238-299.025-140.715-71.219-79.735-110.677-184.013-113.92-298.052l-87.194 124.57c-5.41 7.731-16.043 9.591-23.774 4.198-7.731-5.41-9.591-16.043-4.198-23.774l119.467-170.667c0.341-0.495 0.922-0.734 1.314-1.178 0.956-1.092 1.963-2.048 3.174-2.867 0.836-0.58 1.655-1.058 2.594-1.485 1.246-0.546 2.526-0.887 3.908-1.126 0.683-0.137 1.28-0.529 1.98-0.58 0.307-0.017 0.666-0.034 1.007-0.034 0.222 0 0.41 0.137 0.631 0.137 0.239 0 0.427-0.102 0.666-0.085 1.161 0.085 2.133 0.597 3.226 0.922 0.939 0.273 1.911 0.358 2.799 0.785 1.502 0.717 2.748 1.775 3.942 2.867 0.444 0.393 1.024 0.58 1.417 1.041l153.6 170.667c6.315 7.014 5.734 17.801-1.263 24.098-7.014 6.315-17.801 5.717-24.098-1.263l-125.303-139.213c0.512 110.711 37.205 211.9 105.489 288.324 71.014 79.497 168.602 125.423 274.842 129.331 104.38 3.874 204.373-33.28 281.071-104.499 76.681-71.236 121.020-168.055 124.86-272.623 3.891-104.585-33.195-204.407-104.448-281.088-71.236-76.663-168.073-121.003-272.674-124.843-9.421-0.341-16.759-8.243-16.418-17.681 0.341-9.199 7.902-16.435 17.033-16.435 0.222 0 0.427 0 0.649 0.017 113.698 4.164 218.965 52.361 296.414 135.714 77.449 83.337 117.76 191.881 113.527 305.545z" />
<glyph unicode="&#xe654;" glyph-name="uniE654" horiz-adv-x="1068" d="M1036.909 960h-1006.026c-17.047 0-30.882-13.835-30.882-30.882v-962.235c0-17.078 13.835-30.882 30.882-30.882h1006.026c17.078 0 30.882 13.804 30.882 30.882v962.235c0 17.047-13.804 30.882-30.882 30.882zM1006.026 898.235v-233.162l-186.252 66.243c-3.551 38.232-35.391 68.312-74.612 68.312-41.568 0-75.291-33.785-75.291-75.353 0-21.216 8.801-40.271 22.853-53.952l-106.514-267.565c-0.649 0-1.328 0.185-1.976 0.185-18.035 0-34.372-6.578-47.343-17.202l-164.85 117.353c0.649 3.984 1.204 8.029 1.204 12.229 0 41.568-33.724 75.353-75.322 75.353s-75.291-33.785-75.291-75.353c0-18.653 7.010-35.484 18.221-48.64l-179.087-366.328v797.879h944.262zM80.356-2.235l216.208 442.329c0.463-0.031 0.865-0.154 1.328-0.154 14.7 0 28.288 4.416 39.9 11.674l171.336-121.924c-0.031-0.71-0.247-1.39-0.247-2.1 0-41.63 33.724-75.322 75.353-75.322 41.568 0 75.322 33.724 75.322 75.322 0 18.344-6.825 34.866-17.665 47.96l109.046 273.958c19.302 1.482 36.503 10.037 48.98 23.316l206.109-73.315v-601.744h-925.67z" />
<glyph unicode="&#xe655;" glyph-name="uniE655" horiz-adv-x="1072" d="M1065.25 480.922l-91.187 91.17c-8.704 8.721-22.835 8.721-31.539 0l-58.436-58.419v424.004c0.017 12.339-9.967 22.323-22.289 22.323h-839.475c-12.339 0-22.323-9.984-22.323-22.323v-979.371c0-12.322 9.984-22.306 22.323-22.306h839.475c12.322 0 22.306 9.984 22.306 22.323v309.897l181.146 181.146c8.721 8.721 8.721 22.835 0 31.556zM839.475-19.371h-794.846v934.758h794.846v-446.327l-160.307-160.324h-494.251v-44.629h449.604l-10.155-10.155c-3.106-3.106-5.205-7.014-6.076-11.315l-23.467-114.637c-1.519-7.356 0.785-14.95 6.076-20.258 4.233-4.215 9.899-6.537 15.77-6.537 1.485 0 3.004 0.154 4.471 0.444l114.671 23.45c4.301 0.87 8.209 2.987 11.298 6.076l92.365 92.365v-242.91zM846.029 293.257c0-0.017-0.034-0.034-0.034-0.051l-125.696-125.696-75.008-15.326 15.343 74.957 36.983 36.983h1.57v1.553l178.33 178.347c0.034 0.017 0.034 0.034 0.068 0.051l80.708 80.708 59.614-59.614-171.878-171.913zM184.917 797.423h514.287v-44.612h-514.287v44.612zM184.917 634.522h514.287v-44.629h-514.287v44.629zM184.917 471.62h514.287v-44.629h-514.287v44.629zM184.917 145.852h318.071v-44.629h-318.071v44.629z" />
<glyph unicode="&#xe656;" glyph-name="uniE656" d="M867.396 939.81c30.993-13.466 58.112-31.812 81.374-55.057 23.228-23.245 41.591-50.364 55.057-81.357 13.431-30.993 20.173-64.017 20.173-99.089v-511.386c0-35.072-6.741-68.301-20.19-99.703-13.466-31.403-31.812-58.726-55.057-81.971-23.245-23.262-50.364-41.609-81.374-55.074-30.959-13.431-64-20.173-99.072-20.173h-512.614c-35.089 0-68.113 6.741-99.106 20.19-30.993 13.466-58.112 31.795-81.374 55.074-23.228 23.228-41.591 50.569-55.057 81.971-13.414 31.386-20.156 64.614-20.156 99.686v511.386c0 35.072 6.741 68.096 20.19 99.089 13.466 30.993 31.812 58.112 55.057 81.357s50.364 41.609 81.374 55.057c30.959 13.449 64 20.19 99.072 20.19h512.597c35.089 0 68.13-6.741 99.106-20.19zM595.797 736.119c-21.197 0-40.789-3.669-58.709-11.025-17.954-7.339-33.451-16.913-46.507-28.757-13.056-11.827-23.45-25.481-31.181-40.977-7.748-15.497-11.639-30.993-11.639-46.49v-64.836h-95.42v-127.249h95.42v-256.922h128.461v256.939h95.42v127.249h-95.42v31.812c0 10.598 3.874 18.756 11.622 24.474s14.49 8.567 20.19 8.567h95.437v127.232h-107.674z" />
</font>
</defs>
</svg>
