<?xml version="1.0" standalone="no"?><!DOCTYPE svg PUBLIC "-//W3C//DTD SVG 1.1//EN" "http://www.w3.org/Graphics/SVG/1.1/DTD/svg11.dtd" ><svg xmlns="http://www.w3.org/2000/svg"><metadata></metadata><defs><font id="fonteditor" horiz-adv-x="2197"><font-face font-family="." font-weight="800" font-stretch="normal" units-per-em="2048" panose-1="2 0 5 6 3 0 0 2 0 4" ascent="1851" descent="-448" x-height="4" bbox="-389 -408 2314 1851" underline-thickness="40" underline-position="-251" unicode-range="U+0000-fb04" /><missing-glyph horiz-adv-x="2048"  /><glyph glyph-name=".null" unicode="" d="" /><glyph glyph-name="nonmarkingreturn" unicode="" d="" /><glyph glyph-name="nonmarkingreturn" unicode="" d="" /><glyph glyph-name="space" unicode=" " d="" /><glyph glyph-name="exclam" unicode="!" d="M10 152 Q10 238 72 299 Q134 360 221 360 Q293 360 344 308 Q395 256 395 182 Q395 98 332 36.5 Q269 -25 184 -25 Q111 -25 60.5 27 Q10 79 10 152 ZM127 477 L276 1366 L653 1366 L410 477 L127 477 Z" /><glyph glyph-name="quotedbl" unicode="&quot;" d="M227 731 Q233 1151 233 1196 Q234 1277 289.5 1331.5 Q345 1386 424 1386 Q484 1386 526.5 1343 Q569 1300 569 1237 Q569 1201 553 1169 L360 731 L227 731 ZM639 731 Q643 1151 645 1196 Q645 1277 700 1331.5 Q755 1386 834 1386 Q894 1386 936.5 1343 Q979 1300 979 1237 Q979 1201 963 1169 L770 731 L639 731 Z" /><glyph glyph-name="numbersign" unicode="#" d="M-8 336 L98 530 L289 530 L457 834 L266 834 L371 1026 L563 1026 L752 1366 L977 1366 L791 1026 L967 1026 L1153 1366 L1380 1366 L1192 1026 L1382 1026 L1280 834 L1085 834 L915 530 L1112 530 L1008 336 L807 336 L623 0 L395 0 L582 336 L403 336 L219 0 L-6 0 L180 336 L-8 336 ZM514 530 L688 530 L858 834 L682 834 L514 530 Z" /><glyph glyph-name="dollar" unicode="$" d="M4 236 L219 489 Q290 395 417.5 337 Q545 279 684 279 Q762 279 802 312 Q842 345 842 387 Q842 417 805.5 443 Q769 469 711 490.5 Q653 512 582.5 535.5 Q512 559 441.5 592 Q371 625 313 667 Q255 709 218.5 774 Q182 839 182 920 Q182 1007 219 1089.5 Q256 1172 323.5 1238 Q391 1304 498.5 1344.5 Q606 1385 735 1386 L778 1573 L1006 1573 L956 1360 Q1175 1305 1313 1161 L1098 915 Q1023 998 909 1041.5 Q795 1085 686 1085 Q627 1085 590 1057.5 Q553 1030 553 989 Q553 960 589.5 935.5 Q626 911 684 889.5 Q742 868 813 844 Q884 820 954.5 786.5 Q1025 753 1083 710.5 Q1141 668 1177.5 602.5 Q1214 537 1214 457 Q1214 251 1061 113 Q908 -25 655 -25 L649 -25 L610 -205 L383 -205 L428 0 Q292 28 182 89.5 Q72 151 4 236 Z" /><glyph glyph-name="percent" unicode="%" d="M156 0 L1329 1366 L1507 1366 L332 0 L156 0 ZM162 989 Q162 1163 275 1274.5 Q388 1386 547 1386 Q688 1386 787.5 1308 Q887 1230 887 1100 Q887 984 834 892 Q781 800 693 751 Q605 702 500 702 Q360 702 261 780.5 Q162 859 162 989 ZM379 1010 Q379 957 415 924 Q451 891 508 891 Q576 891 622 942.5 Q668 994 668 1079 Q668 1131 632.5 1164.5 Q597 1198 541 1198 Q473 1198 426 1146 Q379 1094 379 1010 ZM772 262 Q772 436 885 547.5 Q998 659 1157 659 Q1298 659 1397.5 581.5 Q1497 504 1497 373 Q1497 200 1383.5 87.5 Q1270 -25 1110 -25 Q970 -25 871 53.5 Q772 132 772 262 ZM989 283 Q989 231 1024.5 197.5 Q1060 164 1118 164 Q1186 164 1232 216 Q1278 268 1278 352 Q1278 404 1242.5 437.5 Q1207 471 1151 471 Q1083 471 1036 419.5 Q989 368 989 283 Z" /><glyph glyph-name="ampersand" unicode="&amp;" d="M0 344 Q0 420 21.5 484.5 Q43 549 77.5 594.5 Q112 640 164 679 Q216 718 268.5 744 Q321 770 387 793 Q356 914 356 997 Q356 1164 481 1275 Q606 1386 791 1386 Q895 1386 980.5 1354.5 Q1066 1323 1121 1255.5 Q1176 1188 1176 1094 Q1176 1043 1162.5 999.5 Q1149 956 1130 924 Q1111 892 1075.5 862 Q1040 832 1010 812.5 Q980 793 929.5 771.5 Q879 750 846 738 Q813 726 756 707 L817 592 Q891 457 895 451 Q996 555 1063 676 L1284 537 Q1147 353 1024 240 Q1099 125 1190 0 L823 0 Q801 25 778 61 Q616 -25 457 -25 Q357 -25 276 -4 Q195 17 132 60 Q69 103 34.5 175.5 Q0 248 0 344 ZM342 383 Q342 305 389.5 262 Q437 219 510 219 Q573 219 645 254 Q580 356 540.5 426.5 Q501 497 463 588 Q342 511 342 383 ZM670 999 Q670 949 686 887 Q791 922 845 961.5 Q899 1001 899 1063 Q899 1112 872.5 1137.5 Q846 1163 803 1163 Q749 1163 709.5 1120 Q670 1077 670 999 Z" /><glyph glyph-name="quotesingle" unicode="&#39;" d="M227 731 Q233 1151 233 1196 Q234 1277 289.5 1331.5 Q345 1386 424 1386 Q484 1386 526.5 1343 Q569 1300 569 1237 Q569 1201 553 1169 L360 731 L227 731 Z" /><glyph glyph-name="parenleft" unicode="(" d="M47 236 Q47 556 203 870.5 Q359 1185 623 1403 L788 1235 Q593 1010 484 730 Q375 450 375 156 Q375 -52 457 -276 L225 -408 Q138 -292 92.5 -119.5 Q47 53 47 236 Z" /><glyph glyph-name="parenright" unicode=")" d="M-131 -240 Q64 -16 172.5 264.5 Q281 545 281 838 Q281 1043 201 1272 L430 1403 Q518 1287 564 1115.5 Q610 944 610 760 Q610 440 454 125 Q298 -190 35 -408 L-131 -240 Z" /><glyph glyph-name="asterisk" unicode="*" d="M145 993 L360 1071 L188 1190 L291 1307 L446 1171 L485 1386 L637 1386 L573 1157 L784 1253 L829 1120 L616 1042 L786 924 L682 807 L524 940 L489 727 L338 727 L399 954 L186 860 L145 993 Z" /><glyph glyph-name="plus" unicode="+" d="M80 596 L123 784 L479 784 L565 1176 L772 1176 L686 784 L1042 784 L1001 596 L645 596 L555 190 L346 190 L436 596 L80 596 Z" /><glyph glyph-name="comma" unicode="," d="M-37 -166 Q27 -139 89 -92.5 Q151 -46 178 6 Q172 4 154 4 Q92 4 50 44 Q8 84 8 158 Q8 240 73 300 Q138 360 219 360 Q296 360 349.5 309.5 Q403 259 403 170 Q403 43 309 -83.5 Q215 -210 72 -279 L-37 -166 Z" /><glyph glyph-name="hyphen" unicode="-" d="M31 365 L90 629 L582 629 L522 365 L31 365 Z" /><glyph glyph-name="period" unicode="." d="M10 152 Q10 238 72 299 Q134 360 221 360 Q293 360 344 308 Q395 256 395 182 Q395 98 332 36.5 Q269 -25 184 -25 Q111 -25 60.5 27 Q10 79 10 152 Z" /><glyph glyph-name="slash" unicode="/" d="M-125 -41 L680 1407 L913 1407 L106 -41 L-125 -41 Z" /><glyph glyph-name="zero" unicode="0" d="M74 535 Q74 706 126 861.5 Q178 1017 269 1133 Q360 1249 490.5 1317.5 Q621 1386 770 1386 Q1002 1386 1142 1241 Q1282 1096 1282 829 Q1282 693 1249 564.5 Q1216 436 1154 330 Q1092 224 1008 144 Q924 64 815.5 19.5 Q707 -25 588 -25 Q356 -25 215 121.5 Q74 268 74 535 ZM426 520 Q426 413 474.5 350 Q523 287 621 287 Q693 287 753 340 Q813 393 850 477 Q887 561 907.5 657 Q928 753 928 846 Q928 952 880 1013.5 Q832 1075 735 1075 Q663 1075 602.5 1022 Q542 969 504.5 885.5 Q467 802 446.5 706.5 Q426 611 426 520 Z" /><glyph glyph-name="one" unicode="1" d="M96 895 L678 1366 L983 1366 L682 0 L330 0 L530 915 L252 684 L96 895 Z" /><glyph glyph-name="two" unicode="2" d="M-20 0 L49 322 Q179 393 256.5 435.5 Q334 478 429 532 Q524 586 577 619.5 Q630 653 690.5 694 Q751 735 782 763.5 Q813 792 841.5 824.5 Q870 857 880.5 885.5 Q891 914 891 944 Q891 1006 829.5 1042.5 Q768 1079 670 1079 Q488 1079 334 961 L193 1214 Q287 1295 422 1340.5 Q557 1386 698 1386 Q850 1386 976 1338.5 Q1102 1291 1181 1194.5 Q1260 1098 1260 969 Q1260 788 1100 628.5 Q940 469 618 307 L1120 307 L1051 0 L-20 0 Z" /><glyph glyph-name="three" unicode="3" d="M-35 260 L193 475 Q261 384 374.5 335.5 Q488 287 596 287 Q696 287 746.5 326 Q797 365 797 428 Q797 535 573 535 Q421 535 391 532 L463 846 Q486 844 655 844 Q769 844 830 870 Q891 896 891 958 Q891 1015 826.5 1046 Q762 1077 645 1077 Q455 1077 319 977 L199 1214 Q288 1293 413 1339.5 Q538 1386 680 1386 Q946 1386 1100.5 1289.5 Q1255 1193 1255 1024 Q1255 942 1199.5 868.5 Q1144 795 1061 750 Q978 705 887 692 Q1004 663 1074.5 589.5 Q1145 516 1145 389 Q1145 270 1070 174.5 Q995 79 870 27 Q745 -25 598 -25 Q395 -25 221.5 49.5 Q48 124 -35 260 Z" /><glyph glyph-name="four" unicode="4" d="M-12 250 L55 553 L735 1366 L1243 1366 L1063 559 L1229 559 L1161 250 L995 250 L942 0 L588 0 L643 250 L-12 250 ZM397 559 L711 559 L823 1059 L397 559 Z" /><glyph glyph-name="five" unicode="5" d="M20 233 L266 459 Q323 379 416.5 333 Q510 287 627 287 Q729 287 786.5 336 Q844 385 844 457 Q844 525 780 563.5 Q716 602 610 602 Q533 602 482.5 584.5 Q432 567 377 526 L152 612 L315 1366 L1307 1366 L1239 1059 L600 1059 L545 801 Q602 846 662.5 866.5 Q723 887 809 887 Q983 887 1096.5 783 Q1210 679 1210 498 Q1210 392 1167.5 296.5 Q1125 201 1049.5 129.5 Q974 58 863.5 16.5 Q753 -25 623 -25 Q421 -25 267.5 42 Q114 109 20 233 Z" /><glyph glyph-name="six" unicode="6" d="M66 518 Q66 659 99 788.5 Q132 918 197 1026.5 Q262 1135 353 1215.5 Q444 1296 566.5 1341 Q689 1386 829 1386 Q1120 1386 1309 1210 L1098 961 Q1047 1017 970 1046 Q893 1075 807 1075 Q689 1075 596.5 1003.5 Q504 932 465 829 Q453 807 444 768 Q500 825 590.5 861 Q681 897 780 897 Q968 897 1094.5 791.5 Q1221 686 1221 512 Q1221 366 1141 242 Q1061 118 926 46.5 Q791 -25 635 -25 Q369 -25 217.5 118.5 Q66 262 66 518 ZM408 489 Q408 396 473.5 341.5 Q539 287 635 287 Q728 287 790 338.5 Q852 390 852 469 Q852 535 781.5 575.5 Q711 616 610 616 Q498 616 412 547 Q408 519 408 489 Z" /><glyph glyph-name="seven" unicode="7" d="M123 0 L813 1059 L166 1059 L233 1366 L1305 1366 L1249 1122 L526 0 L123 0 Z" /><glyph glyph-name="eight" unicode="8" d="M14 350 Q14 478 107.5 583 Q201 688 375 739 Q291 779 237.5 850.5 Q184 922 184 1008 Q184 1086 217 1150.5 Q250 1215 305 1258 Q360 1301 434 1330.5 Q508 1360 586.5 1373 Q665 1386 748 1386 Q831 1386 910.5 1373.5 Q990 1361 1063.5 1332.5 Q1137 1304 1192 1263.5 Q1247 1223 1280 1162.5 Q1313 1102 1313 1030 Q1313 900 1221.5 803.5 Q1130 707 975 672 Q1076 616 1132 537.5 Q1188 459 1188 369 Q1188 276 1138 200 Q1088 124 1004.5 75.5 Q921 27 816.5 1 Q712 -25 598 -25 Q483 -25 381.5 -3 Q280 19 196 62.5 Q112 106 63 180 Q14 254 14 350 ZM387 399 Q387 336 446 302 Q505 268 610 268 Q703 268 766 305 Q829 342 829 399 Q829 452 777 490.5 Q725 529 641 549 Q532 544 459.5 504.5 Q387 465 387 399 ZM539 971 Q539 927 590.5 891 Q642 855 709 840 Q810 846 873 880.5 Q936 915 936 967 Q936 1022 876.5 1058 Q817 1094 727 1094 Q650 1094 594.5 1059.5 Q539 1025 539 971 Z" /><glyph glyph-name="nine" unicode="9" d="M33 154 L244 406 Q295 349 372 319 Q449 289 535 289 Q653 289 744.5 360 Q836 431 877 535 Q892 568 895 594 Q840 537 750 502 Q660 467 561 467 Q373 467 246 572.5 Q119 678 119 852 Q119 998 199.5 1122 Q280 1246 415.5 1317.5 Q551 1389 707 1389 Q973 1389 1124.5 1245.5 Q1276 1102 1276 846 Q1276 669 1223 511.5 Q1170 354 1074 235 Q978 116 832.5 46.5 Q687 -23 512 -23 Q220 -23 33 154 ZM487 895 Q487 829 557.5 788.5 Q628 748 729 748 Q841 748 930 817 Q932 831 932 874 Q932 966 866.5 1021.5 Q801 1077 707 1077 Q613 1077 550 1025.5 Q487 974 487 895 Z" /><glyph glyph-name="colon" unicode=":" d="M10 152 Q10 238 72 299 Q134 360 221 360 Q293 360 344 308 Q395 256 395 182 Q395 98 332 36.5 Q269 -25 184 -25 Q111 -25 60.5 27 Q10 79 10 152 ZM150 797 Q150 882 212.5 944 Q275 1006 360 1006 Q433 1006 485 953 Q537 900 537 827 Q537 741 474 679.5 Q411 618 326 618 Q253 618 201.5 670.5 Q150 723 150 797 Z" /><glyph glyph-name="semicolon" unicode=";" d="M-37 -166 Q27 -139 89 -92.5 Q151 -46 178 6 Q172 4 154 4 Q92 4 50 44 Q8 84 8 158 Q8 240 73 300 Q138 360 219 360 Q296 360 349.5 309.5 Q403 259 403 170 Q403 43 309 -83.5 Q215 -210 72 -279 L-37 -166 ZM150 797 Q150 882 212.5 944 Q275 1006 360 1006 Q433 1006 485 953 Q537 900 537 827 Q537 741 474 679.5 Q411 618 326 618 Q253 618 201.5 670.5 Q150 723 150 797 Z" /><glyph glyph-name="less" unicode="&lt;" d="M74 571 L125 799 L1130 1188 L1079 954 L311 674 L956 399 L907 184 L74 571 Z" /><glyph glyph-name="equal" unicode="=" d="M37 399 L78 588 L997 588 L956 399 L37 399 ZM121 780 L162 969 L1081 969 L1040 780 L121 780 Z" /><glyph glyph-name="greater" unicode="&gt;" d="M-12 184 L41 418 L809 692 L164 973 L211 1188 L1044 799 L993 571 L-12 184 Z" /><glyph glyph-name="question" unicode="?" d="M162 1241 Q345 1386 580 1386 Q766 1386 895 1304.5 Q1024 1223 1024 1083 Q1024 1009 1000.5 950.5 Q977 892 939.5 854.5 Q902 817 856.5 786.5 Q811 756 765.5 731.5 Q720 707 682.5 683 Q645 659 621.5 626 Q598 593 598 553 Q598 526 614 508 L326 438 Q297 501 297 582 Q297 643 316.5 693.5 Q336 744 367 776.5 Q398 809 436 836 Q474 863 512 882.5 Q550 902 581 920 Q612 938 631.5 959 Q651 980 651 1004 Q651 1079 524 1079 Q470 1079 412.5 1057.5 Q355 1036 309 997 L162 1241 ZM199 152 Q199 238 261 299 Q323 360 410 360 Q482 360 533 308 Q584 256 584 182 Q584 97 521.5 36 Q459 -25 373 -25 Q301 -25 250 27.5 Q199 80 199 152 Z" /><glyph glyph-name="at" unicode="@" d="M113 500 Q113 628 156 750.5 Q199 873 276.5 972 Q354 1071 455 1147 Q556 1223 678 1265 Q800 1307 926 1307 Q1070 1307 1192.5 1257.5 Q1315 1208 1397 1124 Q1479 1040 1525 927.5 Q1571 815 1571 690 Q1571 564 1529.5 461.5 Q1488 359 1423 298.5 Q1358 238 1285 206 Q1212 174 1141 174 Q1046 174 993.5 218.5 Q941 263 932 332 Q879 257 803.5 215.5 Q728 174 651 174 Q504 174 418 272.5 Q332 371 332 524 Q332 654 396 768.5 Q460 883 565 950.5 Q670 1018 786 1018 Q873 1018 938 984 Q1003 950 1038 893 L1059 991 L1337 991 L1237 520 Q1233 500 1233 467 Q1233 383 1298 383 Q1366 383 1421.5 464 Q1477 545 1477 690 Q1477 931 1326 1076 Q1175 1221 918 1221 Q777 1221 644 1162.5 Q511 1104 413.5 1007 Q316 910 257.5 778 Q199 646 199 506 Q199 264 361.5 102.5 Q524 -59 772 -59 Q967 -59 1141 51 L1188 -14 Q988 -143 762 -143 Q579 -143 430 -58 Q281 27 197 174 Q113 321 113 500 ZM618 549 Q618 478 658.5 435.5 Q699 393 768 393 Q874 393 956 502 L1001 719 Q983 752 947 776.5 Q911 801 858 801 Q754 801 686 724.5 Q618 648 618 549 Z" /><glyph glyph-name="A" unicode="a" d="M-133 0 L682 1366 L1124 1366 L1339 0 L956 0 L932 197 L393 197 L285 0 L-133 0 ZM557 504 L905 504 L844 1018 L557 504 Z" /><glyph glyph-name="B" unicode="b" d="M12 0 L313 1366 L1026 1366 Q1119 1366 1193.5 1338 Q1268 1310 1314 1262.5 Q1360 1215 1384.5 1156 Q1409 1097 1409 1032 Q1409 899 1316.5 795 Q1224 691 1100 680 Q1192 655 1243 578 Q1294 501 1294 408 Q1294 334 1267.5 265 Q1241 196 1186.5 135 Q1132 74 1035.5 37 Q939 0 813 0 L12 0 ZM430 297 L782 297 Q855 297 898.5 336.5 Q942 376 942 436 Q942 483 911.5 513 Q881 543 829 543 L485 543 L430 297 ZM551 842 L889 842 Q964 842 998 880 Q1032 918 1032 971 Q1032 1013 1002.5 1041 Q973 1069 926 1069 L602 1069 L551 842 Z" /><glyph glyph-name="C" unicode="c" d="M74 596 Q74 771 138.5 920.5 Q203 1070 313 1172 Q423 1274 570.5 1331.5 Q718 1389 881 1389 Q1014 1389 1124 1354 Q1234 1319 1309.5 1258 Q1385 1197 1435 1125 Q1485 1053 1513 969 L1174 858 Q1145 960 1062 1018.5 Q979 1077 864 1077 Q747 1077 649.5 1015 Q552 953 496 847.5 Q440 742 440 618 Q440 476 535 381.5 Q630 287 786 287 Q870 287 953.5 331 Q1037 375 1083 444 L1358 264 Q1299 184 1223 125.5 Q1147 67 1067.5 35.5 Q988 4 913.5 -10.5 Q839 -25 766 -25 Q622 -25 495.5 19 Q369 63 275.5 142 Q182 221 128 338.5 Q74 456 74 596 Z" /><glyph glyph-name="D" unicode="d" d="M12 0 L313 1366 L877 1366 Q991 1366 1099.5 1323.5 Q1208 1281 1293.5 1206 Q1379 1131 1431 1019 Q1483 907 1483 778 Q1483 667 1454.5 561.5 Q1426 456 1358 352.5 Q1290 249 1189.5 172 Q1089 95 933 47.5 Q777 0 584 0 L12 0 ZM432 307 L649 307 Q756 307 845.5 343 Q935 379 994 440 Q1053 501 1085.5 582 Q1118 663 1118 754 Q1118 883 1032 971 Q946 1059 813 1059 L598 1059 L432 307 Z" /><glyph glyph-name="E" unicode="e" d="M12 0 L313 1366 L1315 1366 L1245 1059 L598 1059 L551 846 L1186 846 L1118 539 L483 539 L432 307 L1081 307 L1014 0 L12 0 Z" /><glyph glyph-name="F" unicode="f" d="M12 0 L313 1366 L1315 1366 L1245 1059 L598 1059 L551 846 L1186 846 L1118 539 L483 539 L365 0 L12 0 Z" /><glyph glyph-name="G" unicode="g" d="M74 596 Q74 764 136 910.5 Q198 1057 308 1162.5 Q418 1268 575 1328.5 Q732 1389 915 1389 Q1026 1389 1123.5 1358 Q1221 1327 1291.5 1274.5 Q1362 1222 1411.5 1160.5 Q1461 1099 1491 1030 L1167 895 Q1140 971 1055 1024 Q970 1077 864 1077 Q689 1077 564.5 943.5 Q440 810 440 618 Q440 479 533.5 383 Q627 287 786 287 Q910 287 1016 369 L1038 477 L731 477 L801 784 L1458 784 L1337 240 Q1238 114 1090 44.5 Q942 -25 766 -25 Q625 -25 499.5 18 Q374 61 279.5 139 Q185 217 129.5 335.5 Q74 454 74 596 Z" /><glyph glyph-name="H" unicode="h" d="M12 0 L313 1366 L666 1366 L553 856 L1120 856 L1233 1366 L1585 1366 L1284 0 L932 0 L1053 549 L485 549 L365 0 L12 0 Z" /><glyph glyph-name="I" unicode="i" d="M12 0 L313 1366 L666 1366 L365 0 L12 0 Z" /><glyph glyph-name="J" unicode="j" d="M-68 121 L119 385 Q151 342 204.5 314.5 Q258 287 317 287 Q401 287 454 335.5 Q507 384 526 473 L723 1366 L1075 1366 L877 469 Q821 214 694 94.5 Q567 -25 344 -25 Q224 -25 112.5 12 Q1 49 -68 121 Z" /><glyph glyph-name="K" unicode="k" d="M12 0 L313 1366 L666 1366 L549 831 L1067 1366 L1520 1366 L850 727 L1247 0 L834 0 L580 526 L453 399 L365 0 L12 0 Z" /><glyph glyph-name="L" unicode="l" d="M12 0 L313 1366 L666 1366 L432 307 L981 307 L913 0 L12 0 Z" /><glyph glyph-name="M" unicode="m" d="M12 0 L313 1366 L791 1366 L909 610 L1362 1366 L1864 1366 L1563 0 L1210 0 L1409 903 L864 0 L709 0 L563 903 L365 0 L12 0 Z" /><glyph glyph-name="N" unicode="n" d="M12 0 L313 1366 L676 1366 L1057 590 L1229 1366 L1583 1366 L1282 0 L942 0 L545 815 L365 0 L12 0 Z" /><glyph glyph-name="O" unicode="o" d="M74 596 Q74 759 135.5 905 Q197 1051 303.5 1157.5 Q410 1264 560.5 1326.5 Q711 1389 881 1389 Q1076 1389 1233 1313 Q1390 1237 1481.5 1095.5 Q1573 954 1573 772 Q1573 608 1511.5 461 Q1450 314 1343.5 207 Q1237 100 1086.5 37.5 Q936 -25 766 -25 Q571 -25 414 51 Q257 127 165.5 269.5 Q74 412 74 596 ZM440 618 Q440 470 536.5 378.5 Q633 287 786 287 Q964 287 1085 420.5 Q1206 554 1206 745 Q1206 894 1109.5 985.5 Q1013 1077 860 1077 Q682 1077 561 943 Q440 809 440 618 Z" /><glyph glyph-name="P" unicode="p" d="M12 0 L313 1366 L975 1366 Q1152 1366 1264 1253 Q1376 1140 1376 975 Q1376 910 1359.5 843.5 Q1343 777 1300 706.5 Q1257 636 1193.5 582 Q1130 528 1026 493.5 Q922 459 793 459 L465 459 L365 0 L12 0 ZM532 766 L811 766 Q897 766 954.5 814 Q1012 862 1012 936 Q1012 992 973 1025.5 Q934 1059 870 1059 L598 1059 L532 766 Z" /><glyph glyph-name="Q" unicode="q" d="M74 596 Q74 759 135.5 905 Q197 1051 303.5 1157.5 Q410 1264 560.5 1326.5 Q711 1389 881 1389 Q1076 1389 1233 1313 Q1390 1237 1481.5 1095.5 Q1573 954 1573 772 Q1573 581 1492 416 Q1411 251 1268 141 L1331 37 L1051 -92 L991 4 Q875 -25 766 -25 Q571 -25 414 51 Q257 127 165.5 269.5 Q74 412 74 596 ZM440 618 Q440 470 536.5 378.5 Q633 287 786 287 L821 287 L725 446 L1008 578 L1094 430 Q1206 561 1206 745 Q1206 894 1109.5 985.5 Q1013 1077 860 1077 Q682 1077 561 943 Q440 809 440 618 Z" /><glyph glyph-name="R" unicode="r" d="M12 0 L313 1366 L936 1366 Q1055 1366 1155 1318.5 Q1255 1271 1316.5 1178.5 Q1378 1086 1378 967 Q1378 789 1274 656.5 Q1170 524 1014 483 L1178 0 L788 0 L662 459 L465 459 L365 0 L12 0 ZM532 766 L813 766 Q903 766 957.5 810.5 Q1012 855 1012 930 Q1012 986 969 1022.5 Q926 1059 866 1059 L598 1059 L532 766 Z" /><glyph glyph-name="S" unicode="s" d="M-20 236 L195 489 Q266 395 393 337 Q520 279 659 279 Q737 279 777 312 Q817 345 817 387 Q817 417 780.5 443 Q744 469 686 490.5 Q628 512 558 535.5 Q488 559 417.5 592 Q347 625 289 667 Q231 709 194.5 774 Q158 839 158 920 Q158 990 181 1057 Q204 1124 251 1183.5 Q298 1243 363.5 1288.5 Q429 1334 520.5 1360 Q612 1386 717 1386 Q885 1386 1035.5 1327.5 Q1186 1269 1288 1161 L1073 915 Q998 998 884.5 1041.5 Q771 1085 662 1085 Q603 1085 565.5 1057.5 Q528 1030 528 989 Q528 960 564.5 935.5 Q601 911 659.5 889.5 Q718 868 788.5 844 Q859 820 929.5 786.5 Q1000 753 1058.5 710.5 Q1117 668 1153.5 602.5 Q1190 537 1190 457 Q1190 251 1037 113 Q884 -25 631 -25 Q425 -25 251 46 Q77 117 -20 236 Z" /><glyph glyph-name="T" unicode="t" d="M166 1059 L236 1366 L1352 1366 L1284 1059 L901 1059 L670 0 L317 0 L549 1059 L166 1059 Z" /><glyph glyph-name="U" unicode="u" d="M123 463 Q123 503 133 553 L313 1366 L672 1366 L494 561 Q487 543 487 504 Q489 413 557.5 348 Q626 283 750 283 Q884 283 962.5 358 Q1041 433 1069 561 L1247 1366 L1604 1366 L1425 555 Q1396 424 1347 323 Q1298 222 1219 141.5 Q1140 61 1022 18 Q904 -25 750 -25 Q444 -25 283.5 107.5 Q123 240 123 463 Z" /><glyph glyph-name="V" unicode="v" d="M168 1366 L549 1366 L670 381 L1223 1366 L1640 1366 L823 0 L381 0 L168 1366 Z" /><glyph glyph-name="W" unicode="w" d="M178 1366 L565 1366 L571 455 L1006 1366 L1274 1366 L1307 455 L1714 1366 L2120 1366 L1427 0 L1055 0 L1036 856 L641 0 L268 0 L178 1366 Z" /><glyph glyph-name="X" unicode="x" d="M-133 0 L512 721 L199 1366 L596 1366 L784 956 L1128 1366 L1565 1366 L961 680 L1294 0 L897 0 L686 438 L303 0 L-133 0 Z" /><glyph glyph-name="Y" unicode="y" d="M168 1366 L547 1366 L733 862 L1137 1366 L1554 1366 L858 551 L737 0 L385 0 L506 551 L168 1366 Z" /><glyph glyph-name="Z" unicode="z" d="M-31 0 L31 281 L766 1059 L203 1059 L270 1366 L1317 1366 L1255 1085 L518 307 L1098 307 L1030 0 L-31 0 Z" /><glyph glyph-name="bracketleft" unicode="[" d="M-96 -389 L301 1389 L772 1389 L727 1186 L477 1186 L174 -186 L422 -186 L377 -389 L-96 -389 Z" /><glyph glyph-name="backslash" unicode="\" d="M201 1407 L424 1407 L588 -41 L365 -41 L201 1407 Z" /><glyph glyph-name="bracketright" unicode="]" d="M-160 -389 L-117 -186 L133 -186 L438 1186 L188 1186 L233 1389 L705 1389 L309 -389 L-160 -389 Z" /><glyph glyph-name="asciicircum" unicode="^" d="M78 682 L535 1366 L762 1366 L911 682 L698 682 L610 1155 L315 682 L78 682 Z" /><glyph glyph-name="underscore" unicode="_" d="M-180 -285 L-133 -82 L1032 -82 L985 -285 L-180 -285 Z" /><glyph glyph-name="grave" unicode="`" d="M207 1434 L485 1434 L680 1139 L467 1139 L207 1434 Z" /><glyph glyph-name="a" unicode="a" d="M41 385 Q41 496 75 605 Q109 714 171.5 806.5 Q234 899 335.5 956.5 Q437 1014 561 1014 Q655 1014 735.5 977 Q816 940 862 872 L889 989 L1202 989 L983 0 L670 0 L694 115 Q572 -25 412 -25 Q243 -25 142 83 Q41 191 41 385 ZM367 451 Q367 363 421.5 308.5 Q476 254 559 254 Q666 254 745 346 L813 645 Q781 686 729 710.5 Q677 735 616 735 Q509 735 438 652.5 Q367 570 367 451 Z" /><glyph glyph-name="b" unicode="b" d="M4 0 L305 1366 L621 1366 L512 874 Q635 1014 795 1014 Q965 1014 1066 905.5 Q1167 797 1167 602 Q1167 515 1146 427.5 Q1125 340 1081.5 258.5 Q1038 177 977.5 114 Q917 51 831 13 Q745 -25 645 -25 Q552 -25 472.5 12 Q393 49 344 117 L319 0 L4 0 ZM395 344 Q427 303 479 278.5 Q531 254 592 254 Q698 254 770 337 Q842 420 842 537 Q842 626 786.5 680.5 Q731 735 649 735 Q546 735 461 643 L395 344 Z" /><glyph glyph-name="c" unicode="c" d="M43 430 Q43 591 120 725 Q197 859 332 936.5 Q467 1014 629 1014 Q782 1014 888 959 Q994 904 1049 813 L813 635 Q785 680 737 707.5 Q689 735 627 735 Q511 735 436.5 652.5 Q362 570 362 449 Q362 359 424 306.5 Q486 254 578 254 Q632 254 681 278.5 Q730 303 764 342 L934 135 Q873 69 772.5 22 Q672 -25 547 -25 Q318 -25 180.5 101.5 Q43 228 43 430 Z" /><glyph glyph-name="d" unicode="d" d="M41 385 Q41 496 75 605 Q109 714 171.5 806.5 Q234 899 335.5 956.5 Q437 1014 561 1014 Q655 1014 735.5 977 Q816 940 862 872 L973 1366 L1286 1366 L983 0 L670 0 L694 115 Q572 -25 412 -25 Q243 -25 142 83 Q41 191 41 385 ZM367 451 Q367 363 421.5 308.5 Q476 254 559 254 Q666 254 745 346 L813 645 Q781 686 729 710.5 Q677 735 616 735 Q509 735 438 652.5 Q367 570 367 451 Z" /><glyph glyph-name="e" unicode="e" d="M43 424 Q43 582 116.5 716.5 Q190 851 324 932.5 Q458 1014 623 1014 Q750 1014 851.5 963.5 Q953 913 1015 810 Q1077 707 1077 567 Q1077 482 1057 395 L356 395 L356 383 Q356 334 420.5 276.5 Q485 219 594 219 Q657 219 721.5 236 Q786 253 825 281 L922 72 Q853 24 758.5 -0.5 Q664 -25 569 -25 Q329 -25 186 94 Q43 213 43 424 ZM387 600 L797 600 Q799 602 799 614 Q799 671 750 720.5 Q701 770 608 770 Q525 770 462.5 716.5 Q400 663 387 600 Z" /><glyph glyph-name="f" unicode="f" d="M66 717 L127 989 L289 989 L301 1042 Q336 1195 438 1290.5 Q540 1386 707 1386 Q890 1386 989 1284 L840 1106 Q799 1147 733 1147 Q639 1147 616 1036 L604 989 L807 989 L745 717 L545 717 L387 0 L72 0 L229 717 L66 717 Z" /><glyph glyph-name="g" unicode="g" d="M-61 -227 L117 -18 Q162 -77 249 -110 Q336 -143 428 -143 Q633 -143 686 88 L702 160 Q646 91 572 53.5 Q498 16 416 16 Q340 16 274.5 38.5 Q209 61 155.5 107 Q102 153 71.5 232 Q41 311 41 416 Q41 505 63 591.5 Q85 678 128.5 754 Q172 830 232.5 888 Q293 946 376.5 980 Q460 1014 555 1014 Q640 1014 722.5 976 Q805 938 858 872 L887 989 L1200 989 L999 88 Q974 -28 926.5 -116.5 Q879 -205 823.5 -258 Q768 -311 699 -344 Q630 -377 566.5 -389 Q503 -401 434 -401 Q113 -401 -61 -227 ZM367 477 Q367 397 422.5 346 Q478 295 565 295 Q670 295 752 387 L807 635 Q742 735 598 735 Q498 735 432.5 663.5 Q367 592 367 477 Z" /><glyph glyph-name="h" unicode="h" d="M6 0 L307 1366 L623 1366 L510 868 Q582 935 657 974.5 Q732 1014 831 1014 Q978 1014 1063.5 943 Q1149 872 1149 758 Q1149 726 1139 676 L991 0 L676 0 L797 561 Q807 606 807 627 Q807 682 766 708.5 Q725 735 657 735 Q557 735 461 639 L322 0 L6 0 Z" /><glyph glyph-name="i" unicode="i" d="M4 0 L223 989 L539 989 L319 0 L4 0 ZM256 1233 Q256 1326 320.5 1383 Q385 1440 461 1440 Q531 1440 577 1395 Q623 1350 623 1286 Q623 1193 559 1135 Q495 1077 420 1077 Q349 1077 302.5 1123 Q256 1169 256 1233 Z" /><glyph glyph-name="j" unicode="j" d="M-389 -319 L-262 -94 Q-219 -143 -141 -143 Q-31 -143 4 8 L223 989 L539 989 L319 8 Q278 -186 180 -293.5 Q82 -401 -94 -401 Q-294 -401 -389 -319 ZM256 1233 Q256 1326 320.5 1383 Q385 1440 461 1440 Q531 1440 577 1395 Q623 1350 623 1286 Q623 1193 559 1135 Q495 1077 420 1077 Q349 1077 302.5 1123 Q256 1169 256 1233 Z" /><glyph glyph-name="k" unicode="k" d="M4 0 L305 1366 L621 1366 L453 610 L827 989 L1221 989 L756 539 L1020 0 L641 0 L498 356 L371 238 L319 0 L4 0 Z" /><glyph glyph-name="l" unicode="l" d="M4 0 L305 1366 L621 1366 L319 0 L4 0 Z" /><glyph glyph-name="m" unicode="m" d="M4 0 L223 989 L539 989 L510 868 Q651 1014 807 1014 Q865 1014 915 998 Q965 982 997 959 Q1029 936 1052 909.5 Q1075 883 1084.5 862 Q1094 841 1094 829 L1094 827 Q1127 867 1158.5 896.5 Q1190 926 1232 955 Q1274 984 1324.5 999 Q1375 1014 1432 1014 Q1554 1014 1640 945.5 Q1726 877 1726 758 Q1726 746 1716 676 L1565 0 L1251 0 L1374 559 L1379 587 Q1384 615 1384 629 Q1384 680 1347.5 707.5 Q1311 735 1255 735 Q1163 735 1083 639 L942 0 L627 0 L750 559 Q762 619 762 633 Q762 679 728 707 Q694 735 633 735 Q544 735 461 639 L319 0 L4 0 Z" /><glyph glyph-name="n" unicode="n" d="M4 0 L223 989 L539 989 L510 868 Q582 935 657 974.5 Q732 1014 831 1014 Q978 1014 1063.5 943 Q1149 872 1149 758 Q1149 726 1139 676 L989 0 L674 0 L797 555 Q807 600 807 627 Q807 682 768.5 708.5 Q730 735 672 735 Q557 735 461 639 L319 0 L4 0 Z" /><glyph glyph-name="o" unicode="o" d="M41 430 Q41 544 84.5 650 Q128 756 203.5 836.5 Q279 917 388.5 965.5 Q498 1014 623 1014 Q865 1014 999 886 Q1133 758 1133 557 Q1133 443 1089.5 337.5 Q1046 232 970.5 151.5 Q895 71 785.5 23 Q676 -25 551 -25 Q310 -25 175.5 103 Q41 231 41 430 ZM365 446 Q365 356 417.5 305 Q470 254 563 254 Q670 254 740.5 340.5 Q811 427 811 543 Q811 633 758 684 Q705 735 612 735 Q503 735 434 649 Q365 563 365 446 Z" /><glyph glyph-name="p" unicode="p" d="M-80 -377 L223 989 L539 989 L512 874 Q635 1014 795 1014 Q965 1014 1066 905.5 Q1167 797 1167 602 Q1167 515 1146 427.5 Q1125 340 1081.5 258.5 Q1038 177 977.5 114 Q917 51 831 13 Q745 -25 645 -25 Q552 -25 472.5 12 Q393 49 344 117 L236 -377 L-80 -377 ZM395 344 Q427 303 479 278.5 Q531 254 592 254 Q698 254 770 337 Q842 420 842 537 Q842 626 786.5 680.5 Q731 735 649 735 Q546 735 461 643 L395 344 Z" /><glyph glyph-name="q" unicode="q" d="M41 385 Q41 496 75 605 Q109 714 171.5 806.5 Q234 899 335.5 956.5 Q437 1014 561 1014 Q655 1014 735.5 977 Q816 940 862 872 L889 989 L1202 989 L899 -377 L586 -377 L694 115 Q572 -25 412 -25 Q243 -25 142 83 Q41 191 41 385 ZM367 451 Q367 363 421.5 308.5 Q476 254 559 254 Q666 254 745 346 L813 645 Q781 686 729 710.5 Q677 735 616 735 Q509 735 438 652.5 Q367 570 367 451 Z" /><glyph glyph-name="r" unicode="r" d="M4 0 L223 989 L539 989 L512 870 Q648 1016 854 1016 L784 707 Q728 721 682 721 Q619 721 559.5 694 Q500 667 457 623 L319 0 L4 0 Z" /><glyph glyph-name="s" unicode="s" d="M-29 156 L137 358 Q189 302 290.5 253.5 Q392 205 489 205 Q535 205 564.5 225.5 Q594 246 594 276 Q594 301 567 321 Q540 341 496.5 355.5 Q453 370 400.5 385.5 Q348 401 295.5 423.5 Q243 446 199.5 475.5 Q156 505 129 554 Q102 603 102 666 Q102 734 130.5 796 Q159 858 211 907 Q263 956 345 985 Q427 1014 526 1014 Q651 1014 768 971.5 Q885 929 967 854 L815 659 Q772 706 690.5 744 Q609 782 526 782 Q474 782 445 761.5 Q416 741 416 713 Q416 692 443 675.5 Q470 659 513.5 645.5 Q557 632 609.5 616.5 Q662 601 715 577.5 Q768 554 811.5 523.5 Q855 493 882 443.5 Q909 394 909 332 Q909 178 787.5 76.5 Q666 -25 461 -25 Q322 -25 191 22.5 Q60 70 -29 156 Z" /><glyph glyph-name="t" unicode="t" d="M63 717 L125 989 L289 989 L348 1260 L664 1260 L604 989 L805 989 L743 717 L543 717 L469 381 Q463 357 463 336 Q463 298 487 276 Q511 254 557 254 Q598 254 618 270 L623 18 Q568 -25 453 -25 Q302 -25 213.5 34 Q125 93 125 209 Q125 240 131 281 L227 717 L63 717 Z" /><glyph glyph-name="u" unicode="u" d="M61 231 Q61 258 72 313 L223 989 L537 989 L412 418 Q403 378 403 365 Q403 308 443.5 281 Q484 254 549 254 Q650 254 752 352 L891 989 L1206 989 L987 0 L672 0 L700 121 Q628 54 553 14.5 Q478 -25 379 -25 Q232 -25 146.5 46 Q61 117 61 231 Z" /><glyph glyph-name="v" unicode="v" d="M88 989 L412 989 L494 362 L860 989 L1202 989 L594 0 L258 0 L88 989 Z" /><glyph glyph-name="w" unicode="w" d="M96 989 L412 989 L434 383 L766 989 L1047 989 L1106 383 L1399 989 L1733 989 L1221 0 L881 0 L829 612 L510 0 L170 0 L96 989 Z" /><glyph glyph-name="x" unicode="x" d="M-123 0 L326 508 L117 989 L455 989 L563 721 L791 989 L1147 989 L723 508 L950 0 L614 0 L489 299 L231 0 L-123 0 Z" /><glyph glyph-name="y" unicode="y" d="M-98 -377 L2 -106 Q39 -121 104 -121 Q180 -121 217 -68 L256 -4 L88 989 L412 989 L494 362 L860 989 L1202 989 L504 -141 Q416 -285 319.5 -343 Q223 -401 84 -401 Q-22 -401 -98 -377 Z" /><glyph glyph-name="z" unicode="z" d="M-33 0 L16 231 L512 715 L125 715 L186 989 L1012 989 L961 766 L457 272 L860 272 L801 0 L-33 0 Z" /><glyph glyph-name="braceleft" unicode="{" d="M-16 -104 Q-16 -70 -8 -39 L63 281 Q68 311 68 317 Q68 361 46 388.5 Q24 416 -14 416 L25 584 Q80 584 113.5 621 Q147 658 160 719 L231 1036 Q270 1214 380.5 1301.5 Q491 1389 657 1389 L780 1389 L735 1186 L612 1186 Q488 1186 453 1036 L369 662 Q336 504 236 477 Q295 443 295 360 Q295 324 287 291 L213 -37 Q209 -61 209 -74 Q209 -124 241.5 -155 Q274 -186 322 -186 L432 -186 L385 -389 L295 -389 Q167 -389 75.5 -307.5 Q-16 -226 -16 -104 Z" /><glyph glyph-name="bar" unicode="|" d="M164 -41 L164 1407 L367 1407 L367 -41 L164 -41 Z" /><glyph glyph-name="braceright" unicode="}" d="M-164 -389 L-119 -186 L4 -186 Q129 -186 164 -39 L248 338 Q281 495 381 522 Q322 556 322 639 Q322 676 330 709 L403 1036 Q408 1066 408 1071 Q408 1122 375.5 1154 Q343 1186 295 1186 L184 1186 L231 1389 L322 1389 Q450 1389 541.5 1307.5 Q633 1226 633 1104 Q633 1067 625 1036 L553 719 Q549 695 549 682 Q549 637 571 610.5 Q593 584 631 584 L592 416 Q537 416 503.5 379 Q470 342 457 281 L387 -37 Q347 -215 236 -302 Q125 -389 -41 -389 L-164 -389 Z" /><glyph glyph-name="asciitilde" unicode="~" d="M129 856 Q232 1366 528 1366 Q599 1366 645.5 1340 Q692 1314 709.5 1275.5 Q727 1237 737 1192 Q747 1147 749 1108.5 Q751 1070 763.5 1044 Q776 1018 801 1018 Q853 1018 907 1127.5 Q961 1237 985 1366 L1186 1341 Q1168 1260 1147.5 1193.5 Q1127 1127 1093 1058 Q1059 989 1018 941.5 Q977 894 918 864 Q859 834 788 834 Q726 834 683.5 853 Q641 872 620.5 902.5 Q600 933 588.5 970 Q577 1007 573 1044 Q569 1081 565 1111.5 Q561 1142 549.5 1161 Q538 1180 516 1180 Q464 1180 411.5 1072 Q359 964 334 831 L129 856 Z" /><glyph glyph-name="nonbreakingspace" unicode=" " d="" /><glyph glyph-name="exclamdown" unicode="¡" d="M-109 -377 L135 512 L418 512 L268 -377 L-109 -377 ZM150 805 Q150 891 212.5 952.5 Q275 1014 360 1014 Q433 1014 485 962 Q537 910 537 836 Q537 752 474 690.5 Q411 629 326 629 Q253 629 201.5 681 Q150 733 150 805 Z" /><glyph glyph-name="cent" unicode="¢" d="M43 430 Q43 665 201.5 832.5 Q360 1000 594 1012 L627 1157 L850 1157 L813 987 Q970 940 1049 813 L813 635 Q785 680 737 707.5 Q689 735 627 735 Q511 735 436.5 652.5 Q362 570 362 449 Q362 359 424 306.5 Q486 254 578 254 Q632 254 681 278.5 Q730 303 764 342 L934 135 Q877 74 787.5 29 Q698 -16 586 -23 L547 -205 L324 -205 L369 0 Q216 43 129.5 157 Q43 271 43 430 Z" /><glyph glyph-name="sterling" unicode="£" d="M31 221 Q145 272 216 357.5 Q287 443 287 539 L287 551 L59 551 L104 748 L229 748 Q182 855 182 942 Q182 1065 258 1167.5 Q334 1270 462 1328 Q590 1386 739 1386 Q931 1386 1068.5 1311.5 Q1206 1237 1251 1098 L934 969 Q922 1033 874 1067.5 Q826 1102 756 1102 Q673 1102 619 1044.5 Q565 987 565 899 Q565 878 569 856 Q573 834 577 821 Q581 808 590 782.5 Q599 757 602 748 L887 748 L842 551 L612 551 Q591 479 542 418 Q493 357 444 332 Q496 346 532 346 Q591 346 675 316.5 Q759 287 811 287 Q899 287 967 358 L1040 80 Q949 -25 780 -25 Q705 -25 614 -3 Q523 19 444.5 41 Q366 63 322 63 Q218 63 96 -14 L31 221 Z" /><glyph glyph-name="currency" unicode="¤" d="M0 281 L180 428 Q139 515 139 623 Q139 831 279 993 L166 1141 L373 1307 L496 1145 Q605 1190 725 1190 Q894 1190 1022 1116 L1214 1272 L1374 1077 L1194 930 Q1237 836 1237 737 Q1237 527 1096 367 L1208 227 L1001 61 L879 215 Q773 174 653 174 Q489 174 362 242 L162 80 L0 281 ZM459 643 Q459 558 515.5 504.5 Q572 451 670 451 Q776 451 848 528 Q920 605 920 713 Q920 799 864.5 855 Q809 911 705 911 Q596 911 527.5 832.5 Q459 754 459 643 Z" /><glyph glyph-name="yen" unicode="¥" d="M-12 227 L29 416 L477 416 L508 551 L59 551 L102 739 L430 739 L170 1366 L549 1366 L735 862 L1139 1366 L1556 1366 L1020 739 L1348 739 L1305 551 L860 551 L829 416 L1274 416 L1233 227 L788 227 L739 0 L387 0 L436 227 L-12 227 Z" /><glyph glyph-name="brokenbar" unicode="¦" d="M164 -41 L164 606 L367 606 L367 -41 L164 -41 ZM164 760 L164 1407 L367 1407 L367 760 L164 760 Z" /><glyph glyph-name="section" unicode="§" d="M-76 8 L92 195 Q152 129 246.5 89 Q341 49 436 49 Q492 49 526.5 75 Q561 101 561 137 Q561 163 540 184 Q519 205 485.5 219 Q452 233 408.5 249 Q365 265 319.5 280 Q274 295 230.5 319 Q187 343 153.5 371.5 Q120 400 99 445 Q78 490 78 545 Q78 758 319 840 Q257 871 222.5 927 Q188 983 188 1053 Q188 1202 308.5 1294 Q429 1386 614 1386 Q912 1386 1067 1237 L909 1065 Q865 1112 787 1140.5 Q709 1169 627 1169 Q563 1169 531.5 1145.5 Q500 1122 500 1085 Q500 1054 536 1030 Q572 1006 626 991 Q680 976 743.5 952 Q807 928 861 899.5 Q915 871 951 817.5 Q987 764 987 692 Q987 591 922.5 507 Q858 423 758 387 Q816 353 845 300 Q874 247 874 186 Q874 33 750.5 -66.5 Q627 -166 436 -166 Q280 -166 145.5 -120.5 Q11 -75 -76 8 ZM393 606 Q393 527 537 483 Q598 499 630 538 Q662 577 662 621 Q662 667 628.5 696 Q595 725 545 739 Q470 727 431.5 691.5 Q393 656 393 606 Z" /><glyph glyph-name="dieresis" unicode="¨" d="M100 1241 Q100 1311 156 1365 Q212 1419 283 1419 Q344 1419 385 1378.5 Q426 1338 426 1276 Q426 1206 370.5 1152 Q315 1098 244 1098 Q182 1098 141 1139 Q100 1180 100 1241 ZM539 1241 Q539 1311 594.5 1365 Q650 1419 721 1419 Q781 1419 821.5 1378 Q862 1337 862 1276 Q862 1206 806.5 1152 Q751 1098 680 1098 Q620 1098 579.5 1139 Q539 1180 539 1241 Z" /><glyph glyph-name="copyright" unicode="©" d="M131 684 Q131 876 225.5 1039 Q320 1202 482.5 1296.5 Q645 1391 836 1391 Q1028 1391 1191 1296.5 Q1354 1202 1449 1039 Q1544 876 1544 684 Q1544 541 1488 410 Q1432 279 1337 184 Q1242 89 1111 33 Q980 -23 836 -23 Q645 -23 482.5 72 Q320 167 225.5 330 Q131 493 131 684 ZM295 997.5 Q211 853 211 684 Q211 515 295 370.5 Q379 226 523 141.5 Q667 57 836 57 Q1005 57 1150 141.5 Q1295 226 1379.5 370.5 Q1464 515 1464 684 Q1464 853 1379.5 997.5 Q1295 1142 1150 1226.5 Q1005 1311 836 1311 Q667 1311 523 1226.5 Q379 1142 295 997.5 ZM416 629 Q416 731 455.5 822 Q495 913 560.5 976.5 Q626 1040 712.5 1077 Q799 1114 891 1114 Q997 1114 1083 1072 Q1169 1030 1221 948 L1135 889 Q1060 1026 885 1026 Q819 1026 753 996 Q687 966 635 915 Q583 864 550.5 789.5 Q518 715 518 633 Q518 512 597 427 Q676 342 809 342 Q872 342 932 370 Q992 398 1038 442 L1096 367 Q1037 317 961 285.5 Q885 254 807 254 Q631 254 523.5 359.5 Q416 465 416 629 Z" /><glyph glyph-name="ordfeminine" unicode="ª" d="M150 922 Q150 1093 250.5 1210 Q351 1327 492 1327 Q630 1327 696 1239 L713 1311 L936 1311 L795 668 L569 668 L584 739 Q507 651 401 651 Q294 651 222 722.5 Q150 794 150 922 ZM381 950 Q381 890 414.5 859.5 Q448 829 502 829 Q567 829 616 881 L668 1108 Q628 1151 553 1151 Q481 1151 431 1091 Q381 1031 381 950 Z" /><glyph glyph-name="guillemotleft" unicode="«" d="M59 498 L469 860 L762 860 L344 487 L582 129 L305 129 L59 498 ZM494 498 L903 860 L1196 860 L778 487 L1016 129 L739 129 L494 498 Z" /><glyph glyph-name="logicalnot" unicode="¬" d="M121 780 L162 969 L1081 969 L956 399 L764 399 L846 780 L121 780 Z" /><glyph glyph-name="uni00AD" unicode="­" d="M31 365 L90 629 L582 629 L522 365 L31 365 Z" /><glyph glyph-name="registered" unicode="®" d="M172 952 Q172 1133 299 1259.5 Q426 1386 606 1386 Q725 1386 825 1328.5 Q925 1271 982.5 1171 Q1040 1071 1040 952 Q1040 772 912.5 645 Q785 518 604 518 Q424 518 298 645 Q172 772 172 952 ZM240 952 Q240 801 346 693.5 Q452 586 604 586 Q756 586 863.5 693.5 Q971 801 971 952 Q971 1105 864 1211 Q757 1317 604 1317 Q452 1317 346 1211.5 Q240 1106 240 952 ZM383 702 L492 1200 L684 1200 Q750 1200 790.5 1162 Q831 1124 831 1069 Q831 1000 781 950.5 Q731 901 668 901 L758 702 L672 702 L586 899 L500 899 L457 702 L383 702 ZM514 963 L643 963 Q694 963 724 992.5 Q754 1022 754 1065 Q754 1098 732.5 1118.5 Q711 1139 668 1139 L553 1139 L514 963 Z" /><glyph glyph-name="macron" unicode="¯" d="M141 1139 L180 1313 L922 1313 L883 1139 L141 1139 Z" /><glyph glyph-name="degree" unicode="°" d="M170 1096 Q170 1216 254.5 1301 Q339 1386 459 1386 Q580 1386 666 1301 Q752 1216 752 1096 Q752 975 666.5 890 Q581 805 459 805 Q339 805 254.5 890 Q170 975 170 1096 ZM370.5 1187 Q334 1149 334 1096 Q334 1043 369.5 1006 Q405 969 457 969 Q510 969 549 1006.5 Q588 1044 588 1096 Q588 1148 550 1186.5 Q512 1225 459 1225 Q407 1225 370.5 1187 Z" /><glyph glyph-name="plusminus" unicode="±" d="M-51 0 L-10 188 L909 188 L868 0 L-51 0 ZM96 670 L137 858 L494 858 L582 1247 L788 1247 L700 858 L1057 858 L1016 670 L659 670 L569 264 L362 264 L453 670 L96 670 Z" /><glyph glyph-name="twosuperior" unicode="²" d="M170 862 L209 1038 Q434 1167 536.5 1233.5 Q639 1300 679 1341.5 Q719 1383 719 1425 Q719 1464 686 1486.5 Q653 1509 598 1509 Q533 1509 470.5 1483.5 Q408 1458 369 1421 L274 1577 Q336 1632 428 1663 Q520 1694 608 1694 Q765 1694 863 1626.5 Q961 1559 961 1448 Q961 1348 864.5 1256.5 Q768 1165 551 1047 L879 1047 L838 862 L170 862 Z" /><glyph glyph-name="threesuperior" unicode="³" d="M178 999 L319 1143 Q359 1088 422.5 1060 Q486 1032 551 1032 Q609 1032 637.5 1056 Q666 1080 666 1116 Q666 1186 494 1186 Q434 1186 422 1184 L461 1366 Q481 1364 598 1364 Q725 1364 725 1438 Q725 1473 681.5 1491 Q638 1509 575 1509 Q453 1509 367 1440 L293 1585 Q351 1636 433.5 1665 Q516 1694 600 1694 Q768 1694 865.5 1634 Q963 1574 963 1470 Q963 1393 904.5 1334 Q846 1275 737 1268 Q809 1250 853 1205 Q897 1160 897 1090 Q897 994 806 921 Q715 848 563 848 Q434 848 329.5 889 Q225 930 178 999 Z" /><glyph glyph-name="acute" unicode="´" d="M137 1139 L463 1434 L745 1434 L354 1139 L137 1139 Z" /><glyph glyph-name="mu" unicode="µ" d="M-82 -377 L227 989 L543 989 L414 416 Q394 337 429.5 295.5 Q465 254 539 254 Q654 254 750 350 L891 989 L1204 989 L1061 332 Q1052 295 1068.5 274.5 Q1085 254 1118 254 Q1144 254 1159 260 L1120 -6 Q1058 -25 975 -25 Q744 -25 723 154 Q664 73 586 24 Q508 -25 424 -25 Q390 -25 360.5 -15 Q331 -5 319 10 L231 -377 L-82 -377 Z" /><glyph glyph-name="paragraph" unicode="¶" d="M162 981 Q162 1078 212.5 1166 Q263 1254 355.5 1310 Q448 1366 559 1366 L1040 1366 L692 -205 L547 -205 L862 1221 L713 1221 L395 -205 L250 -205 L442 662 Q326 662 244 753 Q162 844 162 981 Z" /><glyph glyph-name="periodcentered" unicode="·" d="M82 487 Q82 572 145 634 Q208 696 293 696 Q366 696 416.5 643.5 Q467 591 467 518 Q467 432 405 370.5 Q343 309 258 309 Q185 309 133.5 361 Q82 413 82 487 Z" /><glyph glyph-name="cedilla" unicode="¸" d="M-182 -317 L-102 -207 Q-21 -281 72 -281 Q113 -281 137.5 -265 Q162 -249 162 -219 Q162 -201 148 -189.5 Q134 -178 109 -178 Q77 -178 53 -205 L-41 -143 L59 23 L205 23 L125 -100 Q158 -80 186 -80 Q239 -80 274 -116 Q309 -152 309 -211 Q309 -299 241 -352.5 Q173 -406 72 -406 Q-8 -406 -76 -380.5 Q-144 -355 -182 -317 Z" /><glyph glyph-name="onesuperior" unicode="¹" d="M201 1382 L573 1681 L774 1681 L594 862 L360 862 L473 1376 L305 1241 L201 1382 Z" /><glyph glyph-name="ordmasculine" unicode="º" d="M150 952 Q150 1112 268.5 1219.5 Q387 1327 547 1327 Q704 1327 797.5 1242 Q891 1157 891 1024 Q891 865 772 758 Q653 651 494 651 Q337 651 243.5 735.5 Q150 820 150 952 ZM381 946 Q381 891 412.5 860 Q444 829 500 829 Q578 829 618.5 890 Q659 951 659 1028 Q659 1083 628 1114 Q597 1145 541 1145 Q463 1145 422 1084 Q381 1023 381 946 Z" /><glyph glyph-name="guillemotright" unicode="»" d="M-23 129 L395 502 L158 860 L434 860 L680 492 L270 129 L-23 129 ZM412 129 L829 502 L592 860 L868 860 L1114 492 L705 129 L412 129 Z" /><glyph glyph-name="onequarter" unicode="¼" d="M131 1067 L504 1366 L705 1366 L524 547 L291 547 L403 1061 L236 926 L131 1067 ZM203 0 L1376 1366 L1556 1366 L379 0 L203 0 ZM922 160 L956 317 L1374 819 L1702 819 L1595 342 L1698 342 L1657 160 L1554 160 L1522 0 L1290 0 L1323 160 L922 160 ZM1192 342 L1364 342 L1425 616 L1192 342 Z" /><glyph glyph-name="onehalf" unicode="½" d="M131 1067 L504 1366 L705 1366 L524 547 L291 547 L403 1061 L236 926 L131 1067 ZM203 0 L1376 1366 L1556 1366 L379 0 L203 0 ZM991 0 L1030 176 Q1255 305 1357.5 371.5 Q1460 438 1500 479.5 Q1540 521 1540 563 Q1540 602 1507 624.5 Q1474 647 1419 647 Q1354 647 1291.5 621.5 Q1229 596 1190 559 L1096 715 Q1158 770 1250 800.5 Q1342 831 1430 831 Q1587 831 1684.5 764 Q1782 697 1782 586 Q1782 486 1685 394 Q1588 302 1372 184 L1700 184 L1659 0 L991 0 Z" /><glyph glyph-name="threequarters" unicode="¾" d="M109 684 L250 827 Q290 772 353 744.5 Q416 717 481 717 Q539 717 567.5 741 Q596 765 596 801 Q596 870 424 870 Q364 870 352 868 L391 1051 Q411 1049 528 1049 Q655 1049 655 1122 Q655 1157 612 1175.5 Q569 1194 506 1194 Q384 1194 297 1124 L223 1270 Q281 1321 363.5 1349.5 Q446 1378 530 1378 Q698 1378 795.5 1318.5 Q893 1259 893 1155 Q893 1078 835 1018.5 Q777 959 668 952 Q740 934 783.5 889 Q827 844 827 774 Q827 678 736.5 605 Q646 532 494 532 Q365 532 260.5 573.5 Q156 615 109 684 ZM360 0 L1534 1366 L1714 1366 L537 0 L360 0 ZM1079 160 L1114 317 L1532 819 L1860 819 L1753 342 L1855 342 L1815 160 L1712 160 L1679 0 L1448 0 L1481 160 L1079 160 ZM1350 342 L1522 342 L1583 616 L1350 342 Z" /><glyph glyph-name="questiondown" unicode="¿" d="M-98 -96 Q-98 -22 -74.5 36.5 Q-51 95 -13.5 132.5 Q24 170 69.5 200.5 Q115 231 160.5 255.5 Q206 280 243.5 304 Q281 328 304.5 361 Q328 394 328 434 Q328 459 311 479 L600 549 Q627 490 627 406 Q627 345 607.5 294.5 Q588 244 557 211.5 Q526 179 488 152 Q450 125 412.5 105.5 Q375 86 344 68 Q313 50 293.5 29 Q274 8 274 -16 Q274 -92 401 -92 Q455 -92 512.5 -70.5 Q570 -49 616 -10 L764 -254 Q581 -399 346 -399 Q225 -399 125.5 -364.5 Q26 -330 -36 -260 Q-98 -190 -98 -96 ZM342 805 Q342 890 404 951 Q466 1012 551 1012 Q624 1012 675.5 960 Q727 908 727 836 Q727 750 664 688.5 Q601 627 516 627 Q443 627 392.5 679 Q342 731 342 805 Z" /><glyph glyph-name="Agrave" unicode="à" d="M-133 0 L682 1366 L1124 1366 L1339 0 L956 0 L932 197 L393 197 L285 0 L-133 0 ZM557 504 L905 504 L844 1018 L557 504 ZM594 1776 L872 1776 L1067 1481 L854 1481 L594 1776 Z" /><glyph glyph-name="Aacute" unicode="á" d="M-133 0 L682 1366 L1124 1366 L1339 0 L956 0 L932 197 L393 197 L285 0 L-133 0 ZM557 504 L905 504 L844 1018 L557 504 ZM791 1481 L1116 1776 L1399 1776 L1008 1481 L791 1481 Z" /><glyph glyph-name="Acircumflex" unicode="â" d="M-133 0 L682 1366 L1124 1366 L1339 0 L956 0 L932 197 L393 197 L285 0 L-133 0 ZM557 504 L905 504 L844 1018 L557 504 ZM606 1481 L856 1776 L1133 1776 L1257 1481 L1073 1481 L969 1647 L797 1481 L606 1481 Z" /><glyph glyph-name="Atilde" unicode="ã" d="M-133 0 L682 1366 L1124 1366 L1339 0 L956 0 L932 197 L393 197 L285 0 L-133 0 ZM557 504 L905 504 L844 1018 L557 504 ZM590 1489 Q617 1630 675 1696.5 Q733 1763 844 1763 Q892 1763 930.5 1745.5 Q969 1728 990.5 1707 Q1012 1686 1039.5 1668.5 Q1067 1651 1094 1651 Q1146 1651 1169 1751 L1331 1751 Q1300 1610 1242.5 1543.5 Q1185 1477 1075 1477 Q1027 1477 988.5 1494.5 Q950 1512 929 1533 Q908 1554 880.5 1571.5 Q853 1589 825 1589 Q772 1589 752 1489 L590 1489 Z" /><glyph glyph-name="Adieresis" unicode="ä" d="M-133 0 L682 1366 L1124 1366 L1339 0 L956 0 L932 197 L393 197 L285 0 L-133 0 ZM557 504 L905 504 L844 1018 L557 504 ZM575 1583 Q575 1653 631 1707 Q687 1761 758 1761 Q820 1761 860.5 1720.5 Q901 1680 901 1618 Q901 1548 845.5 1494 Q790 1440 719 1440 Q657 1440 616 1481 Q575 1522 575 1583 ZM1014 1583 Q1014 1653 1069.5 1707 Q1125 1761 1196 1761 Q1256 1761 1296.5 1720 Q1337 1679 1337 1618 Q1337 1548 1281.5 1494 Q1226 1440 1155 1440 Q1095 1440 1054.5 1481 Q1014 1522 1014 1583 Z" /><glyph glyph-name="Aring" unicode="å" d="M-133 0 L682 1366 L1124 1366 L1339 0 L956 0 L932 197 L393 197 L285 0 L-133 0 ZM557 504 L905 504 L844 1018 L557 504 ZM737 1610 Q737 1708 809.5 1779.5 Q882 1851 981 1851 Q1072 1851 1128 1795.5 Q1184 1740 1184 1649 Q1184 1551 1111 1479 Q1038 1407 940 1407 Q849 1407 793 1463 Q737 1519 737 1610 ZM879 1624 Q879 1590 899.5 1569 Q920 1548 954 1548 Q990 1548 1016 1574 Q1042 1600 1042 1636 Q1042 1670 1021.5 1691 Q1001 1712 967 1712 Q932 1712 905.5 1685.5 Q879 1659 879 1624 Z" /><glyph glyph-name="AE" unicode="æ" d="M-145 0 L975 1366 L2122 1366 L2052 1059 L1405 1059 L1358 846 L1993 846 L1923 539 L1290 539 L1239 307 L1888 307 L1821 0 L819 0 L862 197 L418 197 L266 0 L-145 0 ZM651 504 L930 504 L1038 1001 L651 504 Z" /><glyph glyph-name="Ccedilla" unicode="ç" d="M74 596 Q74 771 138.5 920.5 Q203 1070 313 1172 Q423 1274 570.5 1331.5 Q718 1389 881 1389 Q1014 1389 1124 1354 Q1234 1319 1309.5 1258 Q1385 1197 1435 1125 Q1485 1053 1513 969 L1174 858 Q1145 960 1062 1018.5 Q979 1077 864 1077 Q747 1077 649.5 1015 Q552 953 496 847.5 Q440 742 440 618 Q440 476 535 381.5 Q630 287 786 287 Q870 287 953.5 331 Q1037 375 1083 444 L1358 264 Q1299 184 1223 125.5 Q1147 67 1067.5 35.5 Q988 4 913.5 -10.5 Q839 -25 766 -25 Q735 -25 721 -23 L672 -100 Q705 -80 733 -80 Q786 -80 821 -116 Q856 -152 856 -211 Q856 -299 787.5 -352.5 Q719 -406 618 -406 Q538 -406 470.5 -380.5 Q403 -355 365 -317 L444 -207 Q525 -281 618 -281 Q659 -281 684 -265 Q709 -249 709 -219 Q709 -201 694.5 -189.5 Q680 -178 655 -178 Q624 -178 600 -205 L506 -143 L588 -6 Q359 41 216.5 201 Q74 361 74 596 Z" /><glyph glyph-name="Egrave" unicode="è" d="M12 0 L313 1366 L1315 1366 L1245 1059 L598 1059 L551 846 L1186 846 L1118 539 L483 539 L432 307 L1081 307 L1014 0 L12 0 ZM502 1776 L780 1776 L975 1481 L762 1481 L502 1776 Z" /><glyph glyph-name="Eacute" unicode="é" d="M12 0 L313 1366 L1315 1366 L1245 1059 L598 1059 L551 846 L1186 846 L1118 539 L483 539 L432 307 L1081 307 L1014 0 L12 0 ZM698 1481 L1024 1776 L1307 1776 L915 1481 L698 1481 Z" /><glyph glyph-name="Ecircumflex" unicode="ê" d="M12 0 L313 1366 L1315 1366 L1245 1059 L598 1059 L551 846 L1186 846 L1118 539 L483 539 L432 307 L1081 307 L1014 0 L12 0 ZM512 1481 L762 1776 L1038 1776 L1163 1481 L979 1481 L874 1647 L702 1481 L512 1481 Z" /><glyph glyph-name="Edieresis" unicode="ë" d="M12 0 L313 1366 L1315 1366 L1245 1059 L598 1059 L551 846 L1186 846 L1118 539 L483 539 L432 307 L1081 307 L1014 0 L12 0 ZM485 1583 Q485 1653 541 1707 Q597 1761 668 1761 Q730 1761 770.5 1720.5 Q811 1680 811 1618 Q811 1548 755.5 1494 Q700 1440 629 1440 Q567 1440 526 1481 Q485 1522 485 1583 ZM924 1583 Q924 1653 979.5 1707 Q1035 1761 1106 1761 Q1166 1761 1206.5 1720 Q1247 1679 1247 1618 Q1247 1548 1191.5 1494 Q1136 1440 1065 1440 Q1005 1440 964.5 1481 Q924 1522 924 1583 Z" /><glyph glyph-name="Igrave" unicode="ì" d="M12 0 L313 1366 L666 1366 L365 0 L12 0 ZM178 1776 L457 1776 L651 1481 L438 1481 L178 1776 Z" /><glyph glyph-name="Iacute" unicode="í" d="M12 0 L313 1366 L666 1366 L365 0 L12 0 ZM373 1481 L698 1776 L981 1776 L590 1481 L373 1481 Z" /><glyph glyph-name="Icircumflex" unicode="î" d="M12 0 L313 1366 L666 1366 L365 0 L12 0 ZM188 1481 L438 1776 L715 1776 L840 1481 L655 1481 L551 1647 L379 1481 L188 1481 Z" /><glyph glyph-name="Idieresis" unicode="ï" d="M12 0 L313 1366 L666 1366 L365 0 L12 0 ZM160 1583 Q160 1653 215.5 1707 Q271 1761 342 1761 Q404 1761 444.5 1720.5 Q485 1680 485 1618 Q485 1548 429.5 1494 Q374 1440 303 1440 Q242 1440 201 1481 Q160 1522 160 1583 ZM598 1583 Q598 1653 653.5 1707 Q709 1761 780 1761 Q840 1761 881 1720 Q922 1679 922 1618 Q922 1548 866 1494 Q810 1440 739 1440 Q679 1440 638.5 1481 Q598 1522 598 1583 Z" /><glyph glyph-name="Eth" unicode="ð" d="M25 543 L86 823 L240 823 L360 1366 L924 1366 Q1038 1366 1146.5 1323.5 Q1255 1281 1340.5 1206 Q1426 1131 1478 1019 Q1530 907 1530 778 Q1530 667 1501.5 561.5 Q1473 456 1405 352.5 Q1337 249 1236.5 172 Q1136 95 980 47.5 Q824 0 631 0 L59 0 L178 543 L25 543 ZM479 307 L702 307 Q842 308 949 370 Q1056 432 1110.5 532.5 Q1165 633 1165 754 Q1165 883 1079 971 Q993 1059 860 1059 L645 1059 L592 823 L877 823 L815 543 L530 543 L479 307 Z" /><glyph glyph-name="Ntilde" unicode="ñ" d="M12 0 L313 1366 L676 1366 L1057 590 L1229 1366 L1583 1366 L1282 0 L942 0 L545 815 L365 0 L12 0 ZM633 1489 Q660 1630 718 1696.5 Q776 1763 887 1763 Q935 1763 973.5 1745.5 Q1012 1728 1033.5 1707 Q1055 1686 1082.5 1668.5 Q1110 1651 1137 1651 Q1189 1651 1212 1751 L1374 1751 Q1343 1610 1285.5 1543.5 Q1228 1477 1118 1477 Q1070 1477 1031.5 1494.5 Q993 1512 972 1533 Q951 1554 923.5 1571.5 Q896 1589 868 1589 Q815 1589 795 1489 L633 1489 Z" /><glyph glyph-name="Ograve" unicode="ò" d="M74 596 Q74 759 135.5 905 Q197 1051 303.5 1157.5 Q410 1264 560.5 1326.5 Q711 1389 881 1389 Q1076 1389 1233 1313 Q1390 1237 1481.5 1095.5 Q1573 954 1573 772 Q1573 608 1511.5 461 Q1450 314 1343.5 207 Q1237 100 1086.5 37.5 Q936 -25 766 -25 Q571 -25 414 51 Q257 127 165.5 269.5 Q74 412 74 596 ZM440 618 Q440 470 536.5 378.5 Q633 287 786 287 Q964 287 1085 420.5 Q1206 554 1206 745 Q1206 894 1109.5 985.5 Q1013 1077 860 1077 Q682 1077 561 943 Q440 809 440 618 ZM666 1776 L944 1776 L1139 1481 L926 1481 L666 1776 Z" /><glyph glyph-name="Oacute" unicode="ó" d="M74 596 Q74 759 135.5 905 Q197 1051 303.5 1157.5 Q410 1264 560.5 1326.5 Q711 1389 881 1389 Q1076 1389 1233 1313 Q1390 1237 1481.5 1095.5 Q1573 954 1573 772 Q1573 608 1511.5 461 Q1450 314 1343.5 207 Q1237 100 1086.5 37.5 Q936 -25 766 -25 Q571 -25 414 51 Q257 127 165.5 269.5 Q74 412 74 596 ZM440 618 Q440 470 536.5 378.5 Q633 287 786 287 Q964 287 1085 420.5 Q1206 554 1206 745 Q1206 894 1109.5 985.5 Q1013 1077 860 1077 Q682 1077 561 943 Q440 809 440 618 ZM858 1481 L1184 1776 L1466 1776 L1075 1481 L858 1481 Z" /><glyph glyph-name="Ocircumflex" unicode="ô" d="M74 596 Q74 759 135.5 905 Q197 1051 303.5 1157.5 Q410 1264 560.5 1326.5 Q711 1389 881 1389 Q1076 1389 1233 1313 Q1390 1237 1481.5 1095.5 Q1573 954 1573 772 Q1573 608 1511.5 461 Q1450 314 1343.5 207 Q1237 100 1086.5 37.5 Q936 -25 766 -25 Q571 -25 414 51 Q257 127 165.5 269.5 Q74 412 74 596 ZM440 618 Q440 470 536.5 378.5 Q633 287 786 287 Q964 287 1085 420.5 Q1206 554 1206 745 Q1206 894 1109.5 985.5 Q1013 1077 860 1077 Q682 1077 561 943 Q440 809 440 618 ZM676 1481 L926 1776 L1202 1776 L1327 1481 L1143 1481 L1038 1647 L866 1481 L676 1481 Z" /><glyph glyph-name="Otilde" unicode="õ" d="M74 596 Q74 759 135.5 905 Q197 1051 303.5 1157.5 Q410 1264 560.5 1326.5 Q711 1389 881 1389 Q1076 1389 1233 1313 Q1390 1237 1481.5 1095.5 Q1573 954 1573 772 Q1573 608 1511.5 461 Q1450 314 1343.5 207 Q1237 100 1086.5 37.5 Q936 -25 766 -25 Q571 -25 414 51 Q257 127 165.5 269.5 Q74 412 74 596 ZM440 618 Q440 470 536.5 378.5 Q633 287 786 287 Q964 287 1085 420.5 Q1206 554 1206 745 Q1206 894 1109.5 985.5 Q1013 1077 860 1077 Q682 1077 561 943 Q440 809 440 618 ZM662 1489 Q689 1631 747 1697 Q805 1763 915 1763 Q963 1763 1001.5 1745.5 Q1040 1728 1061.5 1707 Q1083 1686 1110.5 1668.5 Q1138 1651 1165 1651 Q1218 1651 1241 1751 L1403 1751 Q1372 1610 1314.5 1543.5 Q1257 1477 1147 1477 Q1099 1477 1060.5 1494.5 Q1022 1512 1001 1533 Q980 1554 952.5 1571.5 Q925 1589 897 1589 Q843 1589 823 1489 L662 1489 Z" /><glyph glyph-name="Odieresis" unicode="ö" d="M74 596 Q74 759 135.5 905 Q197 1051 303.5 1157.5 Q410 1264 560.5 1326.5 Q711 1389 881 1389 Q1076 1389 1233 1313 Q1390 1237 1481.5 1095.5 Q1573 954 1573 772 Q1573 608 1511.5 461 Q1450 314 1343.5 207 Q1237 100 1086.5 37.5 Q936 -25 766 -25 Q571 -25 414 51 Q257 127 165.5 269.5 Q74 412 74 596 ZM440 618 Q440 470 536.5 378.5 Q633 287 786 287 Q964 287 1085 420.5 Q1206 554 1206 745 Q1206 894 1109.5 985.5 Q1013 1077 860 1077 Q682 1077 561 943 Q440 809 440 618 ZM645 1583 Q645 1653 700.5 1707 Q756 1761 827 1761 Q889 1761 930 1720 Q971 1679 971 1618 Q971 1548 915 1494 Q859 1440 788 1440 Q726 1440 685.5 1481 Q645 1522 645 1583 ZM1083 1583 Q1083 1653 1139 1707 Q1195 1761 1266 1761 Q1326 1761 1366.5 1720 Q1407 1679 1407 1618 Q1407 1548 1351.5 1494 Q1296 1440 1225 1440 Q1165 1440 1124 1481 Q1083 1522 1083 1583 Z" /><glyph glyph-name="multiply" unicode="×" d="M76 408 L430 696 L215 971 L365 1094 L575 819 L926 1104 L1042 961 L692 672 L905 397 L756 274 L543 549 L193 264 L76 408 Z" /><glyph glyph-name="Oslash" unicode="ø" d="M-20 0 L203 217 Q74 374 74 596 Q74 759 135.5 905 Q197 1051 303.5 1157.5 Q410 1264 560.5 1326.5 Q711 1389 881 1389 Q1115 1389 1292 1278 L1382 1366 L1628 1366 L1425 1167 Q1573 1003 1573 772 Q1573 608 1511.5 461 Q1450 314 1343.5 207 Q1237 100 1086.5 37.5 Q936 -25 766 -25 Q513 -25 330 100 L225 0 L-20 0 ZM440 618 Q440 543 469 477 L1040 1034 Q959 1077 860 1077 Q682 1077 561 943 Q440 809 440 618 ZM580 344 Q665 287 786 287 Q964 287 1085 420.5 Q1206 554 1206 745 Q1206 838 1163 913 L580 344 Z" /><glyph glyph-name="Ugrave" unicode="ù" d="M123 463 Q123 503 133 553 L313 1366 L672 1366 L494 561 Q487 543 487 504 Q489 413 557.5 348 Q626 283 750 283 Q884 283 962.5 358 Q1041 433 1069 561 L1247 1366 L1604 1366 L1425 555 Q1396 424 1347 323 Q1298 222 1219 141.5 Q1140 61 1022 18 Q904 -25 750 -25 Q444 -25 283.5 107.5 Q123 240 123 463 ZM647 1776 L926 1776 L1120 1481 L907 1481 L647 1776 Z" /><glyph glyph-name="Uacute" unicode="ú" d="M123 463 Q123 503 133 553 L313 1366 L672 1366 L494 561 Q487 543 487 504 Q489 413 557.5 348 Q626 283 750 283 Q884 283 962.5 358 Q1041 433 1069 561 L1247 1366 L1604 1366 L1425 555 Q1396 424 1347 323 Q1298 222 1219 141.5 Q1140 61 1022 18 Q904 -25 750 -25 Q444 -25 283.5 107.5 Q123 240 123 463 ZM840 1481 L1165 1776 L1448 1776 L1057 1481 L840 1481 Z" /><glyph glyph-name="Ucircumflex" unicode="û" d="M123 463 Q123 503 133 553 L313 1366 L672 1366 L494 561 Q487 543 487 504 Q489 413 557.5 348 Q626 283 750 283 Q884 283 962.5 358 Q1041 433 1069 561 L1247 1366 L1604 1366 L1425 555 Q1396 424 1347 323 Q1298 222 1219 141.5 Q1140 61 1022 18 Q904 -25 750 -25 Q444 -25 283.5 107.5 Q123 240 123 463 ZM655 1481 L905 1776 L1182 1776 L1307 1481 L1122 1481 L1018 1647 L846 1481 L655 1481 Z" /><glyph glyph-name="Udieresis" unicode="ü" d="M123 463 Q123 503 133 553 L313 1366 L672 1366 L494 561 Q487 543 487 504 Q489 413 557.5 348 Q626 283 750 283 Q884 283 962.5 358 Q1041 433 1069 561 L1247 1366 L1604 1366 L1425 555 Q1396 424 1347 323 Q1298 222 1219 141.5 Q1140 61 1022 18 Q904 -25 750 -25 Q444 -25 283.5 107.5 Q123 240 123 463 ZM629 1583 Q629 1653 684.5 1707 Q740 1761 811 1761 Q872 1761 913 1720.5 Q954 1680 954 1618 Q954 1548 898.5 1494 Q843 1440 772 1440 Q710 1440 669.5 1481 Q629 1522 629 1583 ZM1067 1583 Q1067 1653 1122.5 1707 Q1178 1761 1249 1761 Q1309 1761 1350 1720 Q1391 1679 1391 1618 Q1391 1548 1335 1494 Q1279 1440 1208 1440 Q1148 1440 1107.5 1481 Q1067 1522 1067 1583 Z" /><glyph glyph-name="Yacute" unicode="ý" d="M168 1366 L547 1366 L733 862 L1137 1366 L1554 1366 L858 551 L737 0 L385 0 L506 551 L168 1366 ZM745 1481 L1071 1776 L1354 1776 L963 1481 L745 1481 Z" /><glyph glyph-name="Thorn" unicode="þ" d="M12 0 L313 1366 L666 1366 L621 1157 L940 1157 Q1108 1157 1219.5 1041.5 Q1331 926 1331 766 Q1331 694 1312 624 Q1293 554 1248 485.5 Q1203 417 1138 365.5 Q1073 314 972.5 282 Q872 250 750 250 L420 250 L365 0 L12 0 ZM487 559 L766 559 Q855 559 910 608 Q965 657 965 727 Q965 783 926 816.5 Q887 850 823 850 L551 850 L487 559 Z" /><glyph glyph-name="germandbls" unicode="ß" d="M6 0 L215 948 Q236 1040 277 1116.5 Q318 1193 383 1255 Q448 1317 545.5 1351.5 Q643 1386 764 1386 Q881 1386 982 1349.5 Q1083 1313 1146.5 1242 Q1210 1171 1210 1081 Q1210 1017 1185 964 Q1160 911 1123 878.5 Q1086 846 1042 817.5 Q998 789 961 770 Q924 751 899 727.5 Q874 704 874 680 Q874 663 897.5 649.5 Q921 636 958.5 624 Q996 612 1041.5 598.5 Q1087 585 1132.5 563.5 Q1178 542 1215.5 513 Q1253 484 1276.5 437 Q1300 390 1300 330 Q1300 185 1176 80 Q1052 -25 868 -25 Q725 -25 616 17 Q507 59 418 152 L584 346 Q703 213 874 213 Q922 213 954.5 236 Q987 259 987 289 Q987 312 963.5 329 Q940 346 902.5 358.5 Q865 371 820 384 Q775 397 730 416.5 Q685 436 647.5 462 Q610 488 586.5 531.5 Q563 575 563 631 Q563 698 586 752 Q609 806 643.5 838.5 Q678 871 718.5 899.5 Q759 928 793.5 946 Q828 964 851 987.5 Q874 1011 874 1036 Q874 1076 833.5 1102 Q793 1128 733 1128 Q571 1128 530 948 L322 0 L6 0 Z" /><glyph glyph-name="agrave" unicode="à" d="M41 385 Q41 496 75 605 Q109 714 171.5 806.5 Q234 899 335.5 956.5 Q437 1014 561 1014 Q655 1014 735.5 977 Q816 940 862 872 L889 989 L1202 989 L983 0 L670 0 L694 115 Q572 -25 412 -25 Q243 -25 142 83 Q41 191 41 385 ZM367 451 Q367 363 421.5 308.5 Q476 254 559 254 Q666 254 745 346 L813 645 Q781 686 729 710.5 Q677 735 616 735 Q509 735 438 652.5 Q367 570 367 451 ZM401 1434 L680 1434 L874 1139 L662 1139 L401 1434 Z" /><glyph glyph-name="aacute" unicode="á" d="M41 385 Q41 496 75 605 Q109 714 171.5 806.5 Q234 899 335.5 956.5 Q437 1014 561 1014 Q655 1014 735.5 977 Q816 940 862 872 L889 989 L1202 989 L983 0 L670 0 L694 115 Q572 -25 412 -25 Q243 -25 142 83 Q41 191 41 385 ZM367 451 Q367 363 421.5 308.5 Q476 254 559 254 Q666 254 745 346 L813 645 Q781 686 729 710.5 Q677 735 616 735 Q509 735 438 652.5 Q367 570 367 451 ZM594 1139 L920 1434 L1202 1434 L811 1139 L594 1139 Z" /><glyph glyph-name="acircumflex" unicode="â" d="M41 385 Q41 496 75 605 Q109 714 171.5 806.5 Q234 899 335.5 956.5 Q437 1014 561 1014 Q655 1014 735.5 977 Q816 940 862 872 L889 989 L1202 989 L983 0 L670 0 L694 115 Q572 -25 412 -25 Q243 -25 142 83 Q41 191 41 385 ZM367 451 Q367 363 421.5 308.5 Q476 254 559 254 Q666 254 745 346 L813 645 Q781 686 729 710.5 Q677 735 616 735 Q509 735 438 652.5 Q367 570 367 451 ZM410 1139 L659 1434 L936 1434 L1061 1139 L877 1139 L772 1305 L600 1139 L410 1139 Z" /><glyph glyph-name="atilde" unicode="ã" d="M41 385 Q41 496 75 605 Q109 714 171.5 806.5 Q234 899 335.5 956.5 Q437 1014 561 1014 Q655 1014 735.5 977 Q816 940 862 872 L889 989 L1202 989 L983 0 L670 0 L694 115 Q572 -25 412 -25 Q243 -25 142 83 Q41 191 41 385 ZM367 451 Q367 363 421.5 308.5 Q476 254 559 254 Q666 254 745 346 L813 645 Q781 686 729 710.5 Q677 735 616 735 Q509 735 438 652.5 Q367 570 367 451 ZM397 1147 Q424 1288 482 1354.5 Q540 1421 651 1421 Q699 1421 737.5 1403.5 Q776 1386 797.5 1365 Q819 1344 846.5 1326.5 Q874 1309 901 1309 Q954 1309 977 1409 L1139 1409 Q1108 1268 1050.5 1201.5 Q993 1135 883 1135 Q835 1135 796.5 1152.5 Q758 1170 737 1191 Q716 1212 688.5 1229.5 Q661 1247 633 1247 Q579 1247 559 1147 L397 1147 Z" /><glyph glyph-name="adieresis" unicode="ä" d="M41 385 Q41 496 75 605 Q109 714 171.5 806.5 Q234 899 335.5 956.5 Q437 1014 561 1014 Q655 1014 735.5 977 Q816 940 862 872 L889 989 L1202 989 L983 0 L670 0 L694 115 Q572 -25 412 -25 Q243 -25 142 83 Q41 191 41 385 ZM367 451 Q367 363 421.5 308.5 Q476 254 559 254 Q666 254 745 346 L813 645 Q781 686 729 710.5 Q677 735 616 735 Q509 735 438 652.5 Q367 570 367 451 ZM379 1241 Q379 1311 434.5 1365 Q490 1419 561 1419 Q623 1419 664 1378 Q705 1337 705 1276 Q705 1206 649 1152 Q593 1098 522 1098 Q460 1098 419.5 1139 Q379 1180 379 1241 ZM817 1241 Q817 1311 872.5 1365 Q928 1419 999 1419 Q1059 1419 1100 1378 Q1141 1337 1141 1276 Q1141 1206 1085 1152 Q1029 1098 958 1098 Q898 1098 857.5 1139 Q817 1180 817 1241 Z" /><glyph glyph-name="aring" unicode="å" d="M41 385 Q41 496 75 605 Q109 714 171.5 806.5 Q234 899 335.5 956.5 Q437 1014 561 1014 Q655 1014 735.5 977 Q816 940 862 872 L889 989 L1202 989 L983 0 L670 0 L694 115 Q572 -25 412 -25 Q243 -25 142 83 Q41 191 41 385 ZM367 451 Q367 363 421.5 308.5 Q476 254 559 254 Q666 254 745 346 L813 645 Q781 686 729 710.5 Q677 735 616 735 Q509 735 438 652.5 Q367 570 367 451 ZM547 1268 Q547 1366 619.5 1437.5 Q692 1509 791 1509 Q882 1509 937.5 1453.5 Q993 1398 993 1307 Q993 1209 920.5 1137 Q848 1065 750 1065 Q659 1065 603 1121 Q547 1177 547 1268 ZM688 1282 Q688 1248 709 1227 Q730 1206 764 1206 Q800 1206 826 1232 Q852 1258 852 1294 Q852 1328 831 1349 Q810 1370 776 1370 Q741 1370 714.5 1343.5 Q688 1317 688 1282 Z" /><glyph glyph-name="ae" unicode="æ" d="M41 385 Q41 496 75 605 Q109 714 171.5 806.5 Q234 899 335.5 956.5 Q437 1014 561 1014 Q655 1014 735.5 977 Q816 940 862 872 L889 989 L1202 989 L1182 893 Q1303 1014 1454 1014 Q1623 1014 1713.5 909.5 Q1804 805 1804 592 Q1804 491 1782 395 L1083 395 L1083 383 Q1083 335 1151.5 280 Q1220 225 1335 225 Q1395 225 1454 241.5 Q1513 258 1552 287 L1649 72 Q1578 26 1494 0.5 Q1410 -25 1341 -25 Q1218 -25 1135.5 19 Q1053 63 1014 135 L983 0 L670 0 L694 115 Q572 -25 412 -25 Q243 -25 142 83 Q41 191 41 385 ZM367 451 Q367 363 421.5 308.5 Q476 254 559 254 Q666 254 745 346 L813 645 Q781 686 729 710.5 Q677 735 616 735 Q509 735 438 652.5 Q367 570 367 451 ZM1116 600 L1524 600 L1524 612 Q1524 672 1477 721 Q1430 770 1337 770 Q1253 770 1192 717 Q1131 664 1116 600 Z" /><glyph glyph-name="ccedilla" unicode="ç" d="M43 430 Q43 591 120 725 Q197 859 332 936.5 Q467 1014 629 1014 Q782 1014 888 959 Q994 904 1049 813 L813 635 Q785 680 737 707.5 Q689 735 627 735 Q511 735 436.5 652.5 Q362 570 362 449 Q362 359 424 306.5 Q486 254 578 254 Q632 254 681 278.5 Q730 303 764 342 L934 135 Q873 69 772.5 22 Q672 -25 547 -25 L539 -25 L489 -100 Q522 -80 551 -80 Q604 -80 639 -116 Q674 -152 674 -211 Q674 -299 605.5 -352.5 Q537 -406 436 -406 Q356 -406 288 -380.5 Q220 -355 182 -317 L262 -207 Q343 -281 436 -281 Q477 -281 501.5 -265 Q526 -249 526 -219 Q526 -201 512 -189.5 Q498 -178 473 -178 Q442 -178 418 -205 L324 -143 L403 -10 Q235 27 139 144.5 Q43 262 43 430 Z" /><glyph glyph-name="egrave" unicode="è" d="M43 424 Q43 582 116.5 716.5 Q190 851 324 932.5 Q458 1014 623 1014 Q750 1014 851.5 963.5 Q953 913 1015 810 Q1077 707 1077 567 Q1077 482 1057 395 L356 395 L356 383 Q356 334 420.5 276.5 Q485 219 594 219 Q657 219 721.5 236 Q786 253 825 281 L922 72 Q853 24 758.5 -0.5 Q664 -25 569 -25 Q329 -25 186 94 Q43 213 43 424 ZM387 600 L797 600 Q799 602 799 614 Q799 671 750 720.5 Q701 770 608 770 Q525 770 462.5 716.5 Q400 663 387 600 ZM397 1434 L676 1434 L870 1139 L657 1139 L397 1434 Z" /><glyph glyph-name="eacute" unicode="é" d="M43 424 Q43 582 116.5 716.5 Q190 851 324 932.5 Q458 1014 623 1014 Q750 1014 851.5 963.5 Q953 913 1015 810 Q1077 707 1077 567 Q1077 482 1057 395 L356 395 L356 383 Q356 334 420.5 276.5 Q485 219 594 219 Q657 219 721.5 236 Q786 253 825 281 L922 72 Q853 24 758.5 -0.5 Q664 -25 569 -25 Q329 -25 186 94 Q43 213 43 424 ZM387 600 L797 600 Q799 602 799 614 Q799 671 750 720.5 Q701 770 608 770 Q525 770 462.5 716.5 Q400 663 387 600 ZM590 1139 L915 1434 L1198 1434 L807 1139 L590 1139 Z" /><glyph glyph-name="ecircumflex" unicode="ê" d="M43 424 Q43 582 116.5 716.5 Q190 851 324 932.5 Q458 1014 623 1014 Q750 1014 851.5 963.5 Q953 913 1015 810 Q1077 707 1077 567 Q1077 482 1057 395 L356 395 L356 383 Q356 334 420.5 276.5 Q485 219 594 219 Q657 219 721.5 236 Q786 253 825 281 L922 72 Q853 24 758.5 -0.5 Q664 -25 569 -25 Q329 -25 186 94 Q43 213 43 424 ZM387 600 L797 600 Q799 602 799 614 Q799 671 750 720.5 Q701 770 608 770 Q525 770 462.5 716.5 Q400 663 387 600 ZM406 1139 L655 1434 L932 1434 L1057 1139 L872 1139 L768 1305 L596 1139 L406 1139 Z" /><glyph glyph-name="edieresis" unicode="ë" d="M43 424 Q43 582 116.5 716.5 Q190 851 324 932.5 Q458 1014 623 1014 Q750 1014 851.5 963.5 Q953 913 1015 810 Q1077 707 1077 567 Q1077 482 1057 395 L356 395 L356 383 Q356 334 420.5 276.5 Q485 219 594 219 Q657 219 721.5 236 Q786 253 825 281 L922 72 Q853 24 758.5 -0.5 Q664 -25 569 -25 Q329 -25 186 94 Q43 213 43 424 ZM377 1241 Q377 1311 432.5 1365 Q488 1419 559 1419 Q620 1419 661 1378.5 Q702 1338 702 1276 Q702 1206 646.5 1152 Q591 1098 520 1098 Q458 1098 417.5 1139 Q377 1180 377 1241 ZM387 600 L797 600 Q799 602 799 614 Q799 671 750 720.5 Q701 770 608 770 Q525 770 462.5 716.5 Q400 663 387 600 ZM815 1241 Q815 1311 870.5 1365 Q926 1419 997 1419 Q1057 1419 1098 1378 Q1139 1337 1139 1276 Q1139 1206 1083 1152 Q1027 1098 956 1098 Q896 1098 855.5 1139 Q815 1180 815 1241 Z" /><glyph glyph-name="igrave" unicode="ì" d="M4 0 L223 989 L539 989 L319 0 L4 0 ZM80 1434 L358 1434 L553 1139 L340 1139 L80 1434 Z" /><glyph glyph-name="iacute" unicode="í" d="M4 0 L223 989 L539 989 L319 0 L4 0 ZM270 1139 L596 1434 L879 1434 L487 1139 L270 1139 Z" /><glyph glyph-name="icircumflex" unicode="î" d="M4 0 L223 989 L539 989 L319 0 L4 0 ZM88 1139 L338 1434 L614 1434 L739 1139 L555 1139 L451 1305 L279 1139 L88 1139 Z" /><glyph glyph-name="idieresis" unicode="ï" d="M4 0 L223 989 L539 989 L319 0 L4 0 ZM59 1241 Q59 1311 115 1365 Q171 1419 242 1419 Q304 1419 344.5 1378.5 Q385 1338 385 1276 Q385 1206 329.5 1152 Q274 1098 203 1098 Q141 1098 100 1139 Q59 1180 59 1241 ZM498 1241 Q498 1311 553.5 1365 Q609 1419 680 1419 Q740 1419 780.5 1378 Q821 1337 821 1276 Q821 1206 765.5 1152 Q710 1098 639 1098 Q579 1098 538.5 1139 Q498 1180 498 1241 Z" /><glyph glyph-name="eth" unicode="ð" d="M35 410 Q35 552 99 669.5 Q163 787 276 854.5 Q389 922 526 922 Q771 922 860 698 Q835 856 621 1063 L289 965 L256 1106 L496 1176 Q477 1193 441.5 1220 Q406 1247 399 1253 L618 1481 Q759 1372 846 1278 L1065 1343 L1100 1206 L948 1161 Q1149 906 1149 629 Q1149 497 1108.5 379 Q1068 261 994 171 Q920 81 807 28 Q694 -25 557 -25 Q321 -25 178 93 Q35 211 35 410 ZM358 422 Q358 342 411 298 Q464 254 563 254 Q665 254 731 318 Q797 382 797 479 Q797 550 741 597.5 Q685 645 586 645 Q486 645 422 580.5 Q358 516 358 422 Z" /><glyph glyph-name="ntilde" unicode="ñ" d="M4 0 L223 989 L539 989 L510 868 Q582 935 657 974.5 Q732 1014 831 1014 Q978 1014 1063.5 943 Q1149 872 1149 758 Q1149 726 1139 676 L989 0 L674 0 L797 555 Q807 600 807 627 Q807 682 768.5 708.5 Q730 735 672 735 Q557 735 461 639 L319 0 L4 0 ZM408 1147 Q435 1288 493 1354.5 Q551 1421 662 1421 Q710 1421 748.5 1403.5 Q787 1386 808 1365 Q829 1344 856.5 1326.5 Q884 1309 911 1309 Q964 1309 987 1409 L1149 1409 Q1118 1268 1060.5 1201.5 Q1003 1135 893 1135 Q845 1135 806.5 1152.5 Q768 1170 747 1191 Q726 1212 698.5 1229.5 Q671 1247 643 1247 Q589 1247 569 1147 L408 1147 Z" /><glyph glyph-name="ograve" unicode="ò" d="M41 430 Q41 544 84.5 650 Q128 756 203.5 836.5 Q279 917 388.5 965.5 Q498 1014 623 1014 Q865 1014 999 886 Q1133 758 1133 557 Q1133 443 1089.5 337.5 Q1046 232 970.5 151.5 Q895 71 785.5 23 Q676 -25 551 -25 Q310 -25 175.5 103 Q41 231 41 430 ZM365 446 Q365 356 417.5 305 Q470 254 563 254 Q670 254 740.5 340.5 Q811 427 811 543 Q811 633 758 684 Q705 735 612 735 Q503 735 434 649 Q365 563 365 446 ZM399 1434 L678 1434 L872 1139 L659 1139 L399 1434 Z" /><glyph glyph-name="oacute" unicode="ó" d="M41 430 Q41 544 84.5 650 Q128 756 203.5 836.5 Q279 917 388.5 965.5 Q498 1014 623 1014 Q865 1014 999 886 Q1133 758 1133 557 Q1133 443 1089.5 337.5 Q1046 232 970.5 151.5 Q895 71 785.5 23 Q676 -25 551 -25 Q310 -25 175.5 103 Q41 231 41 430 ZM365 446 Q365 356 417.5 305 Q470 254 563 254 Q670 254 740.5 340.5 Q811 427 811 543 Q811 633 758 684 Q705 735 612 735 Q503 735 434 649 Q365 563 365 446 ZM588 1139 L913 1434 L1196 1434 L805 1139 L588 1139 Z" /><glyph glyph-name="ocircumflex" unicode="ô" d="M41 430 Q41 544 84.5 650 Q128 756 203.5 836.5 Q279 917 388.5 965.5 Q498 1014 623 1014 Q865 1014 999 886 Q1133 758 1133 557 Q1133 443 1089.5 337.5 Q1046 232 970.5 151.5 Q895 71 785.5 23 Q676 -25 551 -25 Q310 -25 175.5 103 Q41 231 41 430 ZM365 446 Q365 356 417.5 305 Q470 254 563 254 Q670 254 740.5 340.5 Q811 427 811 543 Q811 633 758 684 Q705 735 612 735 Q503 735 434 649 Q365 563 365 446 ZM406 1139 L655 1434 L932 1434 L1057 1139 L872 1139 L768 1305 L596 1139 L406 1139 Z" /><glyph glyph-name="otilde" unicode="õ" d="M41 430 Q41 544 84.5 650 Q128 756 203.5 836.5 Q279 917 388.5 965.5 Q498 1014 623 1014 Q865 1014 999 886 Q1133 758 1133 557 Q1133 443 1089.5 337.5 Q1046 232 970.5 151.5 Q895 71 785.5 23 Q676 -25 551 -25 Q310 -25 175.5 103 Q41 231 41 430 ZM365 446 Q365 356 417.5 305 Q470 254 563 254 Q670 254 740.5 340.5 Q811 427 811 543 Q811 633 758 684 Q705 735 612 735 Q503 735 434 649 Q365 563 365 446 ZM393 1147 Q420 1288 478 1354.5 Q536 1421 647 1421 Q695 1421 733.5 1403.5 Q772 1386 793.5 1365 Q815 1344 842.5 1326.5 Q870 1309 897 1309 Q950 1309 973 1409 L1135 1409 Q1104 1268 1046.5 1201.5 Q989 1135 879 1135 Q831 1135 792.5 1152.5 Q754 1170 733 1191 Q712 1212 684.5 1229.5 Q657 1247 629 1247 Q575 1247 555 1147 L393 1147 Z" /><glyph glyph-name="odieresis" unicode="ö" d="M41 430 Q41 544 84.5 650 Q128 756 203.5 836.5 Q279 917 388.5 965.5 Q498 1014 623 1014 Q865 1014 999 886 Q1133 758 1133 557 Q1133 443 1089.5 337.5 Q1046 232 970.5 151.5 Q895 71 785.5 23 Q676 -25 551 -25 Q310 -25 175.5 103 Q41 231 41 430 ZM365 446 Q365 356 417.5 305 Q470 254 563 254 Q670 254 740.5 340.5 Q811 427 811 543 Q811 633 758 684 Q705 735 612 735 Q503 735 434 649 Q365 563 365 446 ZM375 1241 Q375 1311 430.5 1365 Q486 1419 557 1419 Q618 1419 659 1378.5 Q700 1338 700 1276 Q700 1206 644.5 1152 Q589 1098 518 1098 Q456 1098 415.5 1139 Q375 1180 375 1241 ZM813 1241 Q813 1311 868.5 1365 Q924 1419 995 1419 Q1055 1419 1096 1378 Q1137 1337 1137 1276 Q1137 1206 1081 1152 Q1025 1098 954 1098 Q894 1098 853.5 1139 Q813 1180 813 1241 Z" /><glyph glyph-name="divide" unicode="÷" d="M80 596 L123 784 L1051 784 L1008 596 L80 596 ZM344 324 Q344 386 389.5 430.5 Q435 475 498 475 Q550 475 587.5 437 Q625 399 625 346 Q625 284 579 239.5 Q533 195 471 195 Q419 195 381.5 233 Q344 271 344 324 ZM502 1032 Q502 1094 547 1139 Q592 1184 655 1184 Q707 1184 744.5 1146 Q782 1108 782 1055 Q782 992 736.5 947.5 Q691 903 629 903 Q577 903 539.5 941 Q502 979 502 1032 Z" /><glyph glyph-name="oslash" unicode="ø" d="M-57 0 L121 164 Q41 276 41 430 Q41 544 84.5 650 Q128 756 203.5 836.5 Q279 917 388.5 965.5 Q498 1014 623 1014 Q822 1014 954 922 L1030 989 L1231 989 L1051 825 Q1133 715 1133 557 Q1133 443 1089.5 337.5 Q1046 232 970.5 151.5 Q895 71 785.5 23 Q676 -25 551 -25 Q350 -25 215 70 L137 0 L-57 0 ZM365 446 Q365 416 371 389 L723 709 Q673 735 612 735 Q503 735 434 649 Q365 563 365 446 ZM449 281 Q496 254 563 254 Q670 254 740.5 340.5 Q811 427 811 543 Q811 578 803 602 L449 281 Z" /><glyph glyph-name="ugrave" unicode="ù" d="M61 231 Q61 258 72 313 L223 989 L537 989 L412 418 Q403 378 403 365 Q403 308 443.5 281 Q484 254 549 254 Q650 254 752 352 L891 989 L1206 989 L987 0 L672 0 L700 121 Q628 54 553 14.5 Q478 -25 379 -25 Q232 -25 146.5 46 Q61 117 61 231 ZM412 1434 L690 1434 L885 1139 L672 1139 L412 1434 Z" /><glyph glyph-name="uacute" unicode="ú" d="M61 231 Q61 258 72 313 L223 989 L537 989 L412 418 Q403 378 403 365 Q403 308 443.5 281 Q484 254 549 254 Q650 254 752 352 L891 989 L1206 989 L987 0 L672 0 L700 121 Q628 54 553 14.5 Q478 -25 379 -25 Q232 -25 146.5 46 Q61 117 61 231 ZM606 1139 L932 1434 L1214 1434 L823 1139 L606 1139 Z" /><glyph glyph-name="ucircumflex" unicode="û" d="M61 231 Q61 258 72 313 L223 989 L537 989 L412 418 Q403 378 403 365 Q403 308 443.5 281 Q484 254 549 254 Q650 254 752 352 L891 989 L1206 989 L987 0 L672 0 L700 121 Q628 54 553 14.5 Q478 -25 379 -25 Q232 -25 146.5 46 Q61 117 61 231 ZM420 1139 L670 1434 L946 1434 L1071 1139 L887 1139 L782 1305 L610 1139 L420 1139 Z" /><glyph glyph-name="udieresis" unicode="ü" d="M61 231 Q61 258 72 313 L223 989 L537 989 L412 418 Q403 378 403 365 Q403 308 443.5 281 Q484 254 549 254 Q650 254 752 352 L891 989 L1206 989 L987 0 L672 0 L700 121 Q628 54 553 14.5 Q478 -25 379 -25 Q232 -25 146.5 46 Q61 117 61 231 ZM393 1241 Q393 1311 448.5 1365 Q504 1419 575 1419 Q637 1419 678 1378 Q719 1337 719 1276 Q719 1206 663.5 1152 Q608 1098 537 1098 Q475 1098 434 1139 Q393 1180 393 1241 ZM831 1241 Q831 1311 887 1365 Q943 1419 1014 1419 Q1074 1419 1114.5 1378 Q1155 1337 1155 1276 Q1155 1206 1099.5 1152 Q1044 1098 973 1098 Q913 1098 872 1139 Q831 1180 831 1241 Z" /><glyph glyph-name="yacute" unicode="ý" d="M-98 -377 L2 -106 Q39 -121 104 -121 Q180 -121 217 -68 L256 -4 L88 989 L412 989 L494 362 L860 989 L1202 989 L504 -141 Q416 -285 319.5 -343 Q223 -401 84 -401 Q-22 -401 -98 -377 ZM524 1139 L850 1434 L1133 1434 L741 1139 L524 1139 Z" /><glyph glyph-name="thorn" unicode="þ" d="M-80 -377 L305 1366 L621 1366 L512 874 Q635 1014 795 1014 Q965 1014 1066 905.5 Q1167 797 1167 602 Q1167 515 1146 427.5 Q1125 340 1081.5 258.5 Q1038 177 977.5 114 Q917 51 831 13 Q745 -25 645 -25 Q552 -25 472.5 12 Q393 49 344 117 L236 -377 L-80 -377 ZM395 344 Q427 303 479 278.5 Q531 254 592 254 Q698 254 770 337 Q842 420 842 537 Q842 626 786.5 680.5 Q731 735 649 735 Q546 735 461 643 L395 344 Z" /><glyph glyph-name="ydieresis" unicode="ÿ" d="M-98 -377 L2 -106 Q39 -121 104 -121 Q180 -121 217 -68 L256 -4 L88 989 L412 989 L494 362 L860 989 L1202 989 L504 -141 Q416 -285 319.5 -343 Q223 -401 84 -401 Q-22 -401 -98 -377 ZM313 1241 Q313 1311 369 1365 Q425 1419 496 1419 Q558 1419 598.5 1378.5 Q639 1338 639 1276 Q639 1206 583.5 1152 Q528 1098 457 1098 Q395 1098 354 1139 Q313 1180 313 1241 ZM752 1241 Q752 1311 807.5 1365 Q863 1419 934 1419 Q994 1419 1034.5 1378 Q1075 1337 1075 1276 Q1075 1206 1019.5 1152 Q964 1098 893 1098 Q833 1098 792.5 1139 Q752 1180 752 1241 Z" /><glyph glyph-name="OE" unicode="&#x152;" d="M74 596 Q74 770 137 919.5 Q200 1069 306 1170 Q412 1271 553.5 1328.5 Q695 1386 850 1386 Q1138 1386 1276 1194 L1313 1366 L2314 1366 L2247 1059 L1597 1059 L1552 846 L2185 846 L2118 539 L1483 539 L1432 307 L2081 307 L2013 0 L1012 0 L1038 127 Q892 -25 645 -25 Q529 -25 424.5 21 Q320 67 242.5 148 Q165 229 119.5 345.5 Q74 462 74 596 ZM440 618 Q440 469 533.5 378 Q627 287 770 287 Q873 287 963 335 Q1053 383 1114 467 L1200 856 Q1163 960 1078 1017.5 Q993 1075 877 1075 Q750 1075 648.5 1011.5 Q547 948 493.5 844 Q440 740 440 618 Z" /><glyph glyph-name="oe" unicode="&#x153;" d="M41 430 Q41 539 82.5 644 Q124 749 197 831 Q270 913 380 963.5 Q490 1014 618 1014 Q747 1014 847 957.5 Q947 901 999 825 Q1040 866 1072.5 893 Q1105 920 1154 951 Q1203 982 1261.5 998 Q1320 1014 1386 1014 Q1476 1014 1556 986 Q1636 958 1699 904 Q1762 850 1798.5 763 Q1835 676 1835 567 Q1835 498 1815 395 L1122 395 L1122 383 Q1122 330 1187 274.5 Q1252 219 1356 219 Q1419 219 1482.5 235.5 Q1546 252 1585 281 L1679 72 Q1616 28 1525 1.5 Q1434 -25 1331 -25 Q1193 -25 1089 31 Q985 87 936 162 Q889 118 859.5 94 Q830 70 779.5 37.5 Q729 5 671.5 -10 Q614 -25 547 -25 Q319 -25 180 96 Q41 217 41 430 ZM365 446 Q365 354 416.5 304 Q468 254 559 254 Q664 254 733.5 339 Q803 424 803 543 Q803 638 749 686.5 Q695 735 608 735 Q506 735 435.5 652.5 Q365 570 365 446 ZM1153 600 L1554 600 Q1556 604 1556 612 Q1556 673 1509.5 721.5 Q1463 770 1372 770 Q1289 770 1227 716 Q1165 662 1153 600 Z" /><glyph glyph-name="Ydieresis" unicode="&#x178;" d="M168 1366 L547 1366 L733 862 L1137 1366 L1554 1366 L858 551 L737 0 L385 0 L506 551 L168 1366 ZM535 1583 Q535 1653 590.5 1707 Q646 1761 717 1761 Q778 1761 819 1720.5 Q860 1680 860 1618 Q860 1548 804.5 1494 Q749 1440 678 1440 Q616 1440 575.5 1481 Q535 1522 535 1583 ZM973 1583 Q973 1653 1028.5 1707 Q1084 1761 1155 1761 Q1215 1761 1255.5 1720 Q1296 1679 1296 1618 Q1296 1548 1240.5 1494 Q1185 1440 1114 1440 Q1054 1440 1013.5 1481 Q973 1522 973 1583 Z" /><glyph glyph-name="circumflex" unicode="&#x2c6;" d="M141 1139 L391 1434 L668 1434 L793 1139 L608 1139 L504 1305 L332 1139 L141 1139 Z" /><glyph glyph-name="tilde" unicode="&#x2dc;" d="M143 1147 Q170 1288 228 1354.5 Q286 1421 397 1421 Q445 1421 483.5 1403.5 Q522 1386 543.5 1365 Q565 1344 592.5 1326.5 Q620 1309 647 1309 Q700 1309 723 1409 L885 1409 Q854 1268 796.5 1201.5 Q739 1135 629 1135 Q581 1135 542.5 1152.5 Q504 1170 483 1191 Q462 1212 434.5 1229.5 Q407 1247 379 1247 Q325 1247 305 1147 L143 1147 Z" /><glyph glyph-name="uni2000" unicode="&#x2000;" d="" /><glyph glyph-name="uni2001" unicode="&#x2001;" d="" /><glyph glyph-name="uni2002" unicode="&#x2002;" d="" /><glyph glyph-name="uni2003" unicode="&#x2003;" d="" /><glyph glyph-name="uni2004" unicode="&#x2004;" d="" /><glyph glyph-name="uni2005" unicode="&#x2005;" d="" /><glyph glyph-name="uni2006" unicode="&#x2006;" d="" /><glyph glyph-name="uni2007" unicode="&#x2007;" d="" /><glyph glyph-name="uni2008" unicode="&#x2008;" d="" /><glyph glyph-name="uni2009" unicode="&#x2009;" d="" /><glyph glyph-name="uni200A" unicode="&#x200a;" d="" /><glyph glyph-name="uni2010" unicode="&#x2010;" d="M31 365 L90 629 L582 629 L522 365 L31 365 Z" /><glyph glyph-name="uni2011" unicode="&#x2011;" d="M31 365 L90 629 L582 629 L522 365 L31 365 Z" /><glyph glyph-name="figuredash" unicode="&#x2012;" d="M31 365 L90 629 L582 629 L522 365 L31 365 Z" /><glyph glyph-name="endash" unicode="&#x2013;" d="M31 365 L90 629 L1182 629 L1122 365 L31 365 Z" /><glyph glyph-name="emdash" unicode="&#x2014;" d="M31 365 L90 629 L1673 629 L1614 365 L31 365 Z" /><glyph glyph-name="quoteleft" unicode="&#x2018;" d="M168 940 Q168 1067 262 1193.5 Q356 1320 500 1389 L608 1276 Q544 1249 482 1202.5 Q420 1156 393 1104 Q399 1106 418 1106 Q480 1106 521.5 1065.5 Q563 1025 563 952 Q563 869 498 808.5 Q433 748 352 748 Q275 748 221.5 798.5 Q168 849 168 940 Z" /><glyph glyph-name="quoteright" unicode="&#x2019;" d="M190 858 Q253 885 316 932 Q379 979 406 1030 Q398 1028 381 1028 Q319 1028 276 1068.5 Q233 1109 233 1182 Q233 1265 298.5 1325.5 Q364 1386 446 1386 Q522 1386 576.5 1335.5 Q631 1285 631 1196 Q631 1069 536.5 941.5 Q442 814 297 745 L190 858 Z" /><glyph glyph-name="quotesinglbase" unicode="&#x201a;" d="M-37 -166 Q27 -139 89 -92.5 Q151 -46 178 6 Q172 4 154 4 Q92 4 50 44 Q8 84 8 158 Q8 240 73 300 Q138 360 219 360 Q296 360 349.5 309.5 Q403 259 403 170 Q403 43 309 -83.5 Q215 -210 72 -279 L-37 -166 Z" /><glyph glyph-name="quotedblleft" unicode="&#x201c;" d="M166 940 Q166 1067 260 1193.5 Q354 1320 498 1389 L606 1276 Q541 1249 478.5 1202.5 Q416 1156 391 1104 Q397 1106 414 1106 Q477 1106 519 1065.5 Q561 1025 561 952 Q561 869 495.5 808.5 Q430 748 348 748 Q273 748 219.5 798.5 Q166 849 166 940 ZM627 940 Q627 1067 721 1193.5 Q815 1320 958 1389 L1067 1276 Q1002 1249 939.5 1202.5 Q877 1156 852 1104 Q858 1106 877 1106 Q938 1106 980 1065.5 Q1022 1025 1022 952 Q1022 869 957 808.5 Q892 748 811 748 Q734 748 680.5 798.5 Q627 849 627 940 Z" /><glyph glyph-name="quotedblright" unicode="&#x201d;" d="M190 858 Q253 885 316 932 Q379 979 406 1030 Q398 1028 381 1028 Q319 1028 276 1068.5 Q233 1109 233 1182 Q233 1265 298.5 1325.5 Q364 1386 446 1386 Q522 1386 576.5 1335.5 Q631 1285 631 1196 Q631 1069 536.5 941.5 Q442 814 297 745 L190 858 ZM651 858 Q714 885 776.5 932 Q839 979 866 1030 Q860 1028 842 1028 Q780 1028 738 1068.5 Q696 1109 696 1182 Q696 1265 761 1325.5 Q826 1386 907 1386 Q983 1386 1037.5 1335.5 Q1092 1285 1092 1196 Q1092 1069 997.5 941.5 Q903 814 760 745 L651 858 Z" /><glyph glyph-name="quotedblbase" unicode="&#x201e;" d="M-37 -166 Q27 -139 89 -92.5 Q151 -46 178 6 Q172 4 154 4 Q92 4 50 44 Q8 84 8 158 Q8 240 73 300 Q138 360 219 360 Q296 360 349.5 309.5 Q403 259 403 170 Q403 43 309 -83.5 Q215 -210 72 -279 L-37 -166 ZM424 -166 Q488 -139 550 -92.5 Q612 -46 639 6 Q635 4 614 4 Q552 4 510.5 44 Q469 84 469 158 Q469 240 534 300 Q599 360 680 360 Q757 360 810.5 309.5 Q864 259 864 170 Q864 43 770 -83.5 Q676 -210 532 -279 L424 -166 Z" /><glyph glyph-name="bullet" unicode="&#x2022;" d="M111 471 Q111 586 194.5 668 Q278 750 393 750 Q493 750 558 685 Q623 620 623 520 Q623 406 538.5 325 Q454 244 338 244 Q241 244 176 309 Q111 374 111 471 Z" /><glyph glyph-name="ellipsis" unicode="&#x2026;" d="M10 152 Q10 238 72 299 Q134 360 221 360 Q293 360 344 308 Q395 256 395 182 Q395 98 332 36.5 Q269 -25 184 -25 Q111 -25 60.5 27 Q10 79 10 152 ZM561 152 Q561 238 623 299 Q685 360 772 360 Q844 360 895 308 Q946 256 946 182 Q946 98 883 36.5 Q820 -25 735 -25 Q662 -25 611.5 27 Q561 79 561 152 ZM1112 152 Q1112 238 1174 299 Q1236 360 1323 360 Q1395 360 1446 308 Q1497 256 1497 182 Q1497 98 1434 36.5 Q1371 -25 1286 -25 Q1213 -25 1162.5 27 Q1112 79 1112 152 Z" /><glyph glyph-name="uni202F" unicode="&#x202f;" d="" /><glyph glyph-name="guilsinglleft" unicode="&#x2039;" d="M59 498 L469 860 L762 860 L344 487 L582 129 L305 129 L59 498 Z" /><glyph glyph-name="guilsinglright" unicode="&#x203a;" d="M-23 129 L395 502 L158 860 L434 860 L680 492 L270 129 L-23 129 Z" /><glyph glyph-name="uni205F" unicode="&#x205f;" d="" /><glyph glyph-name="Euro" unicode="&#x20ac;" d="M23 449 L63 637 L133 637 Q135 664 143 733 L84 733 L127 922 L197 922 Q290 1138 491 1263.5 Q692 1389 940 1389 Q1047 1389 1140 1365.5 Q1233 1342 1301.5 1302.5 Q1370 1263 1425 1208.5 Q1480 1154 1515 1095 Q1550 1036 1573 969 L1233 858 Q1204 960 1121 1018.5 Q1038 1077 924 1077 Q830 1077 747 1035.5 Q664 994 604 922 L1059 922 L1016 733 L512 733 Q500 671 500 637 L995 637 L952 449 L543 449 Q585 374 664 330.5 Q743 287 846 287 Q930 287 1013.5 331 Q1097 375 1143 444 L1417 264 Q1358 184 1282 125.5 Q1206 67 1126.5 35.5 Q1047 4 972.5 -10.5 Q898 -25 825 -25 Q658 -25 517.5 31.5 Q377 88 280 196 Q183 304 150 449 L23 449 Z" /><glyph glyph-name="trademark" unicode="&#x2122;" d="M215 1313 L225 1366 L537 1366 L526 1313 L399 1313 L311 915 L254 915 L342 1313 L215 1313 ZM512 915 L610 1366 L698 1366 L758 1038 L961 1366 L1049 1366 L950 915 L893 915 L975 1288 L739 915 L723 915 L651 1288 L569 915 L512 915 Z" /><glyph glyph-name="uniE000" unicode="&#xe000;" d="M0 0 L0 993 L993 993 L993 0 L0 0 Z" /><glyph glyph-name="fi" unicode="&#xfb01;" d="M66 715 L127 989 L289 989 L301 1042 Q338 1198 440.5 1292 Q543 1386 698 1386 Q842 1386 932 1331 L827 1122 Q791 1147 739 1147 Q639 1147 616 1042 L604 989 L807 989 L745 715 L545 715 L387 0 L72 0 L229 715 L66 715 ZM719 0 L938 989 L1253 989 L1034 0 L719 0 ZM971 1233 Q971 1326 1035.5 1383 Q1100 1440 1176 1440 Q1245 1440 1291 1395 Q1337 1350 1337 1286 Q1337 1193 1273.5 1135 Q1210 1077 1135 1077 Q1064 1077 1017.5 1123 Q971 1169 971 1233 Z" /><glyph glyph-name="fl" unicode="&#xfb02;" d="M66 715 L127 989 L289 989 L301 1042 Q338 1198 440.5 1292 Q543 1386 698 1386 Q842 1386 932 1331 L827 1122 Q791 1147 739 1147 Q639 1147 616 1042 L604 989 L807 989 L745 715 L545 715 L387 0 L72 0 L229 715 L66 715 ZM719 0 L1020 1366 L1335 1366 L1034 0 L719 0 Z" /><glyph glyph-name="uniFB03" unicode="&#xfb03;" d="M66 717 L127 989 L289 989 L301 1042 Q336 1195 438 1290.5 Q540 1386 707 1386 Q890 1386 989 1284 L840 1106 Q799 1147 733 1147 Q639 1147 616 1036 L604 989 L807 989 L745 717 L545 717 L387 0 L72 0 L229 717 L66 717 ZM780 715 L842 989 L1004 989 L1016 1042 Q1053 1198 1155.5 1292 Q1258 1386 1413 1386 Q1557 1386 1647 1331 L1542 1122 Q1506 1147 1454 1147 Q1354 1147 1331 1042 L1319 989 L1522 989 L1460 715 L1260 715 L1102 0 L786 0 L944 715 L780 715 ZM1434 0 L1653 989 L1968 989 L1749 0 L1434 0 ZM1686 1233 Q1686 1326 1750 1383 Q1814 1440 1890 1440 Q1960 1440 2006 1395 Q2052 1350 2052 1286 Q2052 1193 1988 1135 Q1924 1077 1849 1077 Q1778 1077 1732 1123 Q1686 1169 1686 1233 Z" /><glyph glyph-name="uniFB04" unicode="&#xfb04;" d="M66 717 L127 989 L289 989 L301 1042 Q336 1195 438 1290.5 Q540 1386 707 1386 Q890 1386 989 1284 L840 1106 Q799 1147 733 1147 Q639 1147 616 1036 L604 989 L807 989 L745 717 L545 717 L387 0 L72 0 L229 717 L66 717 ZM780 715 L842 989 L1004 989 L1016 1042 Q1053 1198 1155.5 1292 Q1258 1386 1413 1386 Q1557 1386 1647 1331 L1542 1122 Q1506 1147 1454 1147 Q1354 1147 1331 1042 L1319 989 L1522 989 L1460 715 L1260 715 L1102 0 L786 0 L944 715 L780 715 ZM1434 0 L1735 1366 L2050 1366 L1749 0 L1434 0 Z" /></font>
</defs>
</svg>
