<?xml version="1.0" standalone="no"?><!DOCTYPE svg PUBLIC "-//W3C//DTD SVG 1.1//EN" "http://www.w3.org/Graphics/SVG/1.1/DTD/svg11.dtd" ><svg xmlns="http://www.w3.org/2000/svg"><metadata></metadata><defs><font id="fonteditor" horiz-adv-x="2238"><font-face font-family="." font-weight="600" font-stretch="normal" units-per-em="2048" panose-1="2 0 5 6 3 0 0 2 0 4" ascent="1839" descent="-615" x-height="4" bbox="-207 -408 2142 1839" underline-thickness="40" underline-position="-251" unicode-range="U+0000-fb04" /><missing-glyph horiz-adv-x="748" d="M68 0 L68 1365 L612 1365 L612 0 L68 0 ZM136 68 L544 68 L544 1297 L136 1297 L136 68 Z" /><glyph glyph-name=".null" unicode="" d="" /><glyph glyph-name="nonmarkingreturn" unicode="" d="" /><glyph glyph-name="space" unicode=" " d="" /><glyph glyph-name="exclam" unicode="!" d="M109 123 Q109 180 151.5 222 Q194 264 252 264 Q310 264 351.5 222 Q393 180 393 123 Q393 64 351.5 22 Q310 -20 252 -20 Q194 -20 151.5 22 Q109 64 109 123 ZM119 1366 L381 1366 L344 420 L158 420 L119 1366 Z" /><glyph glyph-name="quotedbl" unicode="&quot;" d="M98 1266 Q98 1317 133.5 1351.5 Q169 1386 219 1386 Q270 1386 305 1351.5 Q340 1317 340 1266 Q340 1250 322 1134 Q304 1018 286 910 L268 801 L170 801 Q98 1231 98 1266 ZM438 1266 Q438 1317 473 1351.5 Q508 1386 559 1386 Q610 1386 645 1351.5 Q680 1317 680 1266 Q680 1250 662 1134 Q644 1018 626 910 L608 801 L510 801 Q438 1231 438 1266 Z" /><glyph glyph-name="numbersign" unicode="#" d="M39 358 L84 500 L293 500 L416 866 L207 866 L250 1008 L463 1008 L582 1366 L745 1366 L627 1008 L834 1008 L952 1366 L1116 1366 L995 1008 L1204 1008 L1163 866 L950 866 L825 500 L1042 500 L997 358 L778 358 L659 0 L496 0 L616 358 L408 358 L289 0 L125 0 L246 358 L39 358 ZM457 500 L662 500 L786 866 L580 866 L457 500 Z" /><glyph glyph-name="dollar" unicode="$" d="M74 193 L209 379 Q270 311 358.5 261 Q447 211 551 195 L551 592 Q499 605 460 616.5 Q421 628 373.5 647 Q326 666 292 686 Q258 706 223.5 736.5 Q189 767 167.5 802 Q146 837 132.5 884 Q119 931 119 987 Q119 1146 237 1256.5 Q355 1367 551 1384 L551 1573 L715 1573 L715 1382 Q960 1355 1126 1196 L991 1018 Q879 1130 715 1163 L715 809 Q791 789 844.5 771.5 Q898 754 962 720 Q1026 686 1065.5 645.5 Q1105 605 1132 541.5 Q1159 478 1159 399 Q1159 319 1132.5 249 Q1106 179 1053 121.5 Q1000 64 913.5 27 Q827 -10 715 -20 L715 -205 L551 -205 L551 -20 Q258 2 74 193 ZM365 1006 Q365 950 412.5 915 Q460 880 551 852 L551 1174 Q465 1163 415 1118 Q365 1073 365 1006 ZM715 193 Q814 207 863.5 259 Q913 311 913 377 Q913 441 862 480 Q811 519 715 549 L715 193 Z" /><glyph glyph-name="percent" unicode="%" d="M57 1047 Q57 1193 151.5 1289.5 Q246 1386 397 1386 Q549 1386 643 1290 Q737 1194 737 1047 Q737 902 642.5 805.5 Q548 709 397 709 Q247 709 152 805.5 Q57 902 57 1047 ZM217 1047 Q217 958 268 902 Q319 846 397 846 Q477 846 528.5 902 Q580 958 580 1047 Q580 1137 528.5 1194 Q477 1251 397 1251 Q319 1251 268 1194 Q217 1137 217 1047 ZM264 0 L1137 1366 L1276 1366 L401 0 L264 0 ZM793 313 Q793 460 887.5 556.5 Q982 653 1133 653 Q1284 653 1378.5 556.5 Q1473 460 1473 313 Q1473 168 1378 71.5 Q1283 -25 1133 -25 Q983 -25 888 71.5 Q793 168 793 313 ZM950 313 Q950 224 1001.5 168.5 Q1053 113 1133 113 Q1213 113 1264 168.5 Q1315 224 1315 313 Q1315 403 1264 460.5 Q1213 518 1133 518 Q1053 518 1001.5 460.5 Q950 403 950 313 Z" /><glyph glyph-name="ampersand" unicode="&amp;" d="M61 365 Q61 441 84 504 Q107 567 151 614.5 Q195 662 243.5 696.5 Q292 731 358 764 Q262 936 262 1065 Q262 1202 368 1294 Q474 1386 633 1386 Q777 1386 873 1311.5 Q969 1237 969 1108 Q969 1048 948.5 996.5 Q928 945 899.5 909.5 Q871 874 820.5 838 Q770 802 731 780.5 Q692 759 629 729 Q686 649 764 559 Q846 458 899 401 Q984 527 1034 688 L1208 608 Q1124 410 1020 268 Q1164 117 1286 0 L1004 0 Q934 66 883 119 Q712 -25 500 -25 Q408 -25 329 0 Q250 25 190 72.5 Q130 120 95.5 195.5 Q61 271 61 365 ZM289 383 Q289 275 358.5 211 Q428 147 528 147 Q645 147 764 244 Q650 364 596 434 Q510 533 444 629 Q370 580 329.5 522 Q289 464 289 383 ZM477 1059 Q477 973 545 854 Q599 880 636.5 902.5 Q674 925 708.5 954.5 Q743 984 760.5 1019 Q778 1054 778 1096 Q778 1158 739.5 1193.5 Q701 1229 641 1229 Q572 1229 524.5 1181 Q477 1133 477 1059 Z" /><glyph glyph-name="quotesingle" unicode="&#39;" d="M98 1266 Q98 1317 133.5 1351.5 Q169 1386 219 1386 Q270 1386 305 1351.5 Q340 1317 340 1266 Q340 1250 322 1134 Q304 1018 286 910 L268 801 L170 801 Q98 1231 98 1266 Z" /><glyph glyph-name="parenleft" unicode="(" d="M168.5 9.5 Q86 250 86 498 Q86 746 168.5 986 Q251 1226 397 1403 L530 1303 Q421 1102 370 916.5 Q319 731 319 498 Q319 268 370.5 80.5 Q422 -107 530 -305 L397 -408 Q251 -231 168.5 9.5 Z" /><glyph glyph-name="parenright" unicode=")" d="M37 -305 L170 -408 Q315 -231 397 10 Q479 251 479 498 Q479 745 397 985.5 Q315 1226 170 1403 L37 1303 Q144 1101 195 915.5 Q246 730 246 498 Q246 268 195 81 Q144 -106 37 -305 Z" /><glyph glyph-name="asterisk" unicode="*" d="M59 975 L262 1079 L59 1184 L117 1282 L309 1157 L299 1386 L412 1386 L401 1157 L594 1282 L651 1184 L446 1079 L651 975 L594 877 L401 999 L412 770 L299 770 L309 999 L117 877 L59 975 Z" /><glyph glyph-name="plus" unicode="+" d="M59 623 L59 760 L438 760 L438 1171 L590 1171 L590 760 L969 760 L969 623 L590 623 L590 197 L438 197 L438 623 L59 623 Z" /><glyph glyph-name="comma" unicode="," d="M143.5 31 Q109 68 109 125 Q109 182 149.5 223 Q190 264 248 264 Q314 264 360 214 Q406 164 406 78 Q406 -25 354 -117.5 Q302 -210 215 -272 L117 -193 Q168 -163 211.5 -107 Q255 -51 264 0 Q252 -6 229 -6 Q178 -6 143.5 31 Z" /><glyph glyph-name="hyphen" unicode="-" d="M61 403 L61 588 L553 588 L553 403 L61 403 Z" /><glyph glyph-name="period" unicode="." d="M109 123 Q109 180 151.5 222 Q194 264 252 264 Q310 264 352.5 222 Q395 180 395 123 Q395 64 352.5 20.5 Q310 -23 252 -23 Q194 -23 151.5 20.5 Q109 64 109 123 Z" /><glyph glyph-name="slash" unicode="/" d="M0 -41 L485 1407 L645 1407 L160 -41 L0 -41 Z" /><glyph glyph-name="zero" unicode="0" d="M86 682 Q86 788 105.5 887.5 Q125 987 168 1078.5 Q211 1170 273.5 1237.5 Q336 1305 428.5 1345.5 Q521 1386 633 1386 Q744 1386 836 1345.5 Q928 1305 990.5 1237.5 Q1053 1170 1096 1078.5 Q1139 987 1158.5 887.5 Q1178 788 1178 682 Q1178 577 1158.5 477 Q1139 377 1096 285.5 Q1053 194 990.5 125.5 Q928 57 836 16 Q744 -25 633 -25 Q521 -25 428.5 16 Q336 57 273.5 125.5 Q211 194 168 285.5 Q125 377 105.5 477 Q86 577 86 682 ZM346.5 870 Q330 784 330 682 Q330 580 346.5 494.5 Q363 409 397.5 338.5 Q432 268 492 228 Q552 188 633 188 Q713 188 773 228 Q833 268 867 338.5 Q901 409 917.5 494.5 Q934 580 934 682 Q934 785 918 870.5 Q902 956 867.5 1025.5 Q833 1095 773.5 1134.5 Q714 1174 633 1174 Q552 1174 492 1134.5 Q432 1095 397.5 1025.5 Q363 956 346.5 870 Z" /><glyph glyph-name="one" unicode="1" d="M31 969 L424 1366 L633 1366 L633 0 L393 0 L393 1057 L170 823 L31 969 Z" /><glyph glyph-name="two" unicode="2" d="M84 1167 Q172 1274 306 1330 Q440 1386 590 1386 Q725 1386 835 1339 Q945 1292 1014 1195 Q1083 1098 1083 967 Q1083 892 1055 816.5 Q1027 741 979 671 Q931 601 853.5 522.5 Q776 444 690 371.5 Q604 299 487 211 L1092 211 L1092 0 L102 0 L102 190 Q249 302 342 374.5 Q435 447 528 524.5 Q621 602 672.5 655.5 Q724 709 766.5 765.5 Q809 822 825.5 869.5 Q842 917 842 967 Q842 1035 805 1083.5 Q768 1132 713 1153 Q658 1174 592 1174 Q368 1174 223 1012 L84 1167 Z" /><glyph glyph-name="three" unicode="3" d="M49 197 L180 354 Q246 277 347 232.5 Q448 188 557 188 Q690 188 766 245 Q842 302 842 397 Q842 592 539 592 Q423 592 383 588 L383 805 Q406 803 539 803 Q667 803 744 848 Q821 893 821 983 Q821 1073 742.5 1123.5 Q664 1174 545 1174 Q339 1174 190 1022 L68 1171 Q152 1270 278 1328 Q404 1386 567 1386 Q790 1386 924.5 1287.5 Q1059 1189 1059 1020 Q1059 954 1033 897.5 Q1007 841 963.5 803 Q920 765 869 740.5 Q818 716 764 707 Q816 701 869.5 678 Q923 655 971.5 615.5 Q1020 576 1050.5 513 Q1081 450 1081 375 Q1081 198 940.5 86.5 Q800 -25 565 -25 Q392 -25 258 37 Q124 99 49 197 Z" /><glyph glyph-name="four" unicode="4" d="M57 309 L57 502 L618 1366 L948 1366 L948 520 L1130 520 L1130 309 L948 309 L948 0 L709 0 L709 309 L57 309 ZM293 520 L709 520 L709 1151 L293 520 Z" /><glyph glyph-name="five" unicode="5" d="M117 186 L254 352 Q393 188 621 188 Q748 188 824.5 257 Q901 326 901 430 Q901 539 826.5 605.5 Q752 672 627 672 Q454 672 328 555 L158 604 L158 1366 L1053 1366 L1053 1155 L397 1155 L397 762 Q452 813 533 846 Q614 879 707 879 Q825 879 923 828.5 Q1021 778 1083 676 Q1145 574 1145 438 Q1145 228 999.5 101.5 Q854 -25 623 -25 Q299 -25 117 186 Z" /><glyph glyph-name="six" unicode="6" d="M86 682 Q86 831 125 958 Q164 1085 238 1181 Q312 1277 428 1331.5 Q544 1386 688 1386 Q928 1386 1079 1235 L969 1055 Q911 1114 845.5 1144 Q780 1174 688 1174 Q577 1174 494 1111 Q411 1048 369.5 946.5 Q328 845 328 723 L328 684 Q380 761 481 819 Q582 877 694 877 Q820 877 922.5 828 Q1025 779 1089 676.5 Q1153 574 1153 434 Q1153 308 1091.5 204 Q1030 100 914 37.5 Q798 -25 649 -25 Q532 -25 437 12 Q342 49 277.5 114 Q213 179 169 269 Q125 359 105.5 462 Q86 565 86 682 ZM332 510 Q337 451 356 397 Q375 343 409 294.5 Q443 246 501.5 217 Q560 188 635 188 Q761 188 835 261.5 Q909 335 909 426 Q909 545 829.5 607.5 Q750 670 631 670 Q544 670 463.5 627 Q383 584 332 510 Z" /><glyph glyph-name="seven" unicode="7" d="M55 1155 L55 1366 L1040 1366 L1040 1200 L512 0 L248 0 L764 1155 L55 1155 Z" /><glyph glyph-name="eight" unicode="8" d="M86 352 Q86 475 173 568 Q260 661 393 705 Q266 745 187.5 826 Q109 907 109 1028 Q109 1102 138 1162.5 Q167 1223 215.5 1264 Q264 1305 329 1333 Q394 1361 464.5 1373.5 Q535 1386 610 1386 Q704 1386 791 1365 Q878 1344 951 1303 Q1024 1262 1068 1190.5 Q1112 1119 1112 1028 Q1112 907 1033 826 Q954 745 827 705 Q960 661 1047.5 568 Q1135 475 1135 352 Q1135 233 1061 146 Q987 59 870 17 Q753 -25 610 -25 Q467 -25 349.5 17 Q232 59 159 146 Q86 233 86 352 ZM330 383 Q330 294 410 241 Q490 188 610 188 Q728 188 809.5 241.5 Q891 295 891 383 Q891 432 860 473.5 Q829 515 781 539.5 Q733 564 690 578.5 Q647 593 610 598 Q572 593 529 578.5 Q486 564 439 539.5 Q392 515 361 474 Q330 433 330 383 ZM352 991 Q352 955 371.5 924 Q391 893 419 873 Q447 853 484.5 837.5 Q522 822 551.5 814 Q581 806 610 801 Q649 807 687 819 Q725 831 769 852.5 Q813 874 840.5 910 Q868 946 868 991 Q868 1077 796 1125.5 Q724 1174 610 1174 Q496 1174 424 1125.5 Q352 1077 352 991 Z" /><glyph glyph-name="nine" unicode="9" d="M80 930 Q80 1125 220 1257 Q360 1389 584 1389 Q701 1389 796 1352 Q891 1315 955.5 1250.5 Q1020 1186 1064 1096 Q1108 1006 1127.5 903 Q1147 800 1147 684 Q1147 565 1122.5 459 Q1098 353 1048.5 264.5 Q999 176 928 112 Q857 48 759 12.5 Q661 -23 545 -23 Q307 -23 152 129 L264 311 Q322 250 387 220 Q452 190 545 190 Q634 190 705 228.5 Q776 267 818.5 332 Q861 397 883 476 Q905 555 905 641 Q905 668 903 680 Q853 604 752 546.5 Q651 489 537 489 Q411 489 309 537.5 Q207 586 143.5 688 Q80 790 80 930 ZM322 938 Q322 818 401.5 756 Q481 694 602 694 Q689 694 768.5 738 Q848 782 901 856 Q897 903 884.5 946 Q872 989 848 1032 Q824 1075 790.5 1106 Q757 1137 707 1156.5 Q657 1176 596 1176 Q470 1176 396 1103 Q322 1030 322 938 Z" /><glyph glyph-name="colon" unicode=":" d="M109 123 Q109 180 151.5 222 Q194 264 252 264 Q310 264 352.5 222 Q395 180 395 123 Q395 64 352.5 20.5 Q310 -23 252 -23 Q194 -23 151.5 20.5 Q109 64 109 123 ZM109 860 Q109 919 151.5 961.5 Q194 1004 252 1004 Q310 1004 352.5 961.5 Q395 919 395 860 Q395 803 352.5 761 Q310 719 252 719 Q194 719 151.5 761 Q109 803 109 860 Z" /><glyph glyph-name="semicolon" unicode=";" d="M109 131 Q109 188 149.5 229 Q190 270 248 270 Q314 270 360 220 Q406 170 406 84 Q406 -19 354 -111.5 Q302 -204 215 -266 L117 -186 Q168 -156 211.5 -100.5 Q255 -45 264 6 Q256 2 229 2 Q178 2 143.5 38.5 Q109 75 109 131 ZM151.5 761.5 Q109 804 109 862 Q109 920 151 962 Q193 1004 252 1004 Q311 1004 353 962 Q395 920 395 862 Q395 804 352.5 761.5 Q310 719 252 719 Q194 719 151.5 761.5 Z" /><glyph glyph-name="less" unicode="&lt;" d="M59 608 L59 764 L969 1188 L969 1024 L223 684 L969 350 L969 184 L59 608 Z" /><glyph glyph-name="equal" unicode="=" d="M59 420 L59 559 L969 559 L969 420 L59 420 ZM59 811 L59 948 L969 948 L969 811 L59 811 Z" /><glyph glyph-name="greater" unicode="&gt;" d="M59 184 L59 350 L807 684 L59 1024 L59 1188 L969 764 L969 608 L59 184 Z" /><glyph glyph-name="question" unicode="?" d="M27 1184 Q105 1281 220.5 1333.5 Q336 1386 473 1386 Q663 1386 776 1296 Q889 1206 889 1065 Q889 1003 869 951 Q849 899 816.5 862.5 Q784 826 745.5 794.5 Q707 763 668 736 Q629 709 596.5 683 Q564 657 544 624.5 Q524 592 524 555 Q524 529 536 503 Q548 477 569 463 L387 401 Q315 470 315 578 Q315 647 349 702.5 Q383 758 431.5 794.5 Q480 831 528.5 864 Q577 897 611 938 Q645 979 645 1026 Q645 1090 595 1132 Q545 1174 451 1174 Q277 1174 166 1030 L27 1184 ZM317 123 Q317 180 360 222 Q403 264 461 264 Q519 264 561.5 222 Q604 180 604 123 Q604 64 561.5 20.5 Q519 -23 461 -23 Q403 -23 360 20.5 Q317 64 317 123 Z" /><glyph glyph-name="at" unicode="@" d="M72 500 Q72 715 186 902 Q300 1089 487.5 1198 Q675 1307 885 1307 Q1076 1307 1224.5 1220.5 Q1373 1134 1451.5 989.5 Q1530 845 1530 670 Q1530 551 1495 453.5 Q1460 356 1404 296.5 Q1348 237 1281.5 205.5 Q1215 174 1147 174 Q1063 174 1012.5 220 Q962 266 954 332 L952 346 Q897 268 815 221 Q733 174 645 174 Q499 174 413.5 268.5 Q328 363 328 514 Q328 650 395.5 768 Q463 886 571.5 954 Q680 1022 799 1022 Q891 1022 957.5 981 Q1024 940 1059 874 L1081 991 L1274 991 L1163 467 Q1159 447 1159 422 Q1159 374 1182.5 349 Q1206 324 1243 324 Q1275 324 1309.5 343 Q1344 362 1376.5 401 Q1409 440 1429.5 510.5 Q1450 581 1450 672 Q1450 920 1293.5 1075.5 Q1137 1231 879 1231 Q735 1231 600 1171 Q465 1111 366.5 1011.5 Q268 912 209 778.5 Q150 645 150 504 Q150 384 193.5 278 Q237 172 313.5 95.5 Q390 19 498 -25.5 Q606 -70 731 -70 Q929 -70 1106 45 L1147 -14 Q947 -143 721 -143 Q538 -143 389 -58 Q240 27 156 174 Q72 321 72 500 ZM528 528 Q528 439 578 384.5 Q628 330 715 330 Q798 330 864 374.5 Q930 419 975 485 L1028 743 Q1010 791 962.5 828.5 Q915 866 844 866 Q711 866 619.5 763.5 Q528 661 528 528 Z" /><glyph glyph-name="A" unicode="a" d="M4 0 L541 1366 L840 1366 L1376 0 L1104 0 L1004 264 L377 264 L276 0 L4 0 ZM444 475 L936 475 L690 1126 L444 475 Z" /><glyph glyph-name="B" unicode="b" d="M145 0 L145 1366 L817 1366 Q1000 1366 1103 1267.5 Q1206 1169 1206 1018 Q1206 895 1137.5 810.5 Q1069 726 969 705 Q1080 688 1156.5 591.5 Q1233 495 1233 371 Q1233 206 1128.5 103 Q1024 0 836 0 L145 0 ZM385 211 L780 211 Q877 211 932 261.5 Q987 312 987 401 Q987 482 932 537 Q877 592 780 592 L385 592 L385 211 ZM385 803 L770 803 Q859 803 910 851.5 Q961 900 961 979 Q961 1056 910 1105.5 Q859 1155 770 1155 L385 1155 L385 803 Z" /><glyph glyph-name="C" unicode="c" d="M86 682 Q86 837 141.5 970 Q197 1103 293 1194.5 Q389 1286 521 1337.5 Q653 1389 803 1389 Q995 1389 1131 1304.5 Q1267 1220 1350 1083 L1147 977 Q1096 1065 1003 1120.5 Q910 1176 803 1176 Q600 1176 466 1037 Q332 898 332 682 Q332 469 466 328.5 Q600 188 803 188 Q909 188 1002.5 244 Q1096 300 1147 387 L1352 285 Q1155 -25 803 -25 Q653 -25 521 27 Q389 79 293 170.5 Q197 262 141.5 395 Q86 528 86 682 Z" /><glyph glyph-name="D" unicode="d" d="M145 0 L145 1366 L653 1366 Q864 1366 1027 1279 Q1190 1192 1279 1037 Q1368 882 1368 684 Q1368 381 1170.5 190.5 Q973 0 655 0 L145 0 ZM385 211 L653 211 Q797 211 905 275.5 Q1013 340 1067.5 446.5 Q1122 553 1122 684 Q1122 817 1069.5 922.5 Q1017 1028 909.5 1091.5 Q802 1155 655 1155 L385 1155 L385 211 Z" /><glyph glyph-name="E" unicode="e" d="M145 0 L145 1366 L1081 1366 L1081 1155 L385 1155 L385 803 L1067 803 L1067 592 L385 592 L385 211 L1081 211 L1081 0 L145 0 Z" /><glyph glyph-name="F" unicode="f" d="M145 0 L145 1366 L1081 1366 L1081 1155 L385 1155 L385 803 L1067 803 L1067 592 L385 592 L385 0 L145 0 Z" /><glyph glyph-name="G" unicode="g" d="M86 682 Q86 840 142.5 973.5 Q199 1107 295.5 1197.5 Q392 1288 523.5 1338.5 Q655 1389 803 1389 Q1154 1389 1352 1106 L1157 993 Q1098 1074 1005 1125 Q912 1176 803 1176 Q600 1176 466 1037 Q332 898 332 682 Q332 469 466 328.5 Q600 188 803 188 Q900 188 987.5 224.5 Q1075 261 1126 311 L1126 522 L717 522 L717 733 L1364 733 L1364 223 Q1260 106 1117 39.5 Q974 -27 803 -27 Q605 -27 442 60 Q279 147 182.5 310 Q86 473 86 682 Z" /><glyph glyph-name="H" unicode="h" d="M145 0 L145 1366 L385 1366 L385 809 L1096 809 L1096 1366 L1335 1366 L1335 0 L1096 0 L1096 598 L385 598 L385 0 L145 0 Z" /><glyph glyph-name="I" unicode="i" d="M145 0 L145 1366 L385 1366 L385 0 L145 0 Z" /><glyph glyph-name="J" unicode="j" d="M16 121 L129 303 Q229 188 362 188 Q470 188 536 256.5 Q602 325 602 436 L602 1366 L842 1366 L842 434 Q842 209 715 92 Q588 -25 381 -25 Q156 -25 16 121 Z" /><glyph glyph-name="K" unicode="k" d="M145 0 L145 1366 L385 1366 L385 717 L920 1366 L1217 1366 L662 723 L1260 0 L963 0 L506 578 L385 436 L385 0 L145 0 Z" /><glyph glyph-name="L" unicode="l" d="M129 0 L129 1366 L369 1366 L369 211 L971 211 L971 0 L129 0 Z" /><glyph glyph-name="M" unicode="m" d="M145 0 L145 1366 L483 1366 L856 428 L1227 1366 L1565 1366 L1565 0 L1325 0 L1325 1055 L907 0 L805 0 L385 1055 L385 0 L145 0 Z" /><glyph glyph-name="N" unicode="n" d="M145 0 L145 1366 L391 1366 L1090 420 L1090 1366 L1329 1366 L1329 0 L1098 0 L385 977 L385 0 L145 0 Z" /><glyph glyph-name="O" unicode="o" d="M174.5 318.5 Q86 480 86 682 Q86 884 174.5 1045.5 Q263 1207 422.5 1298 Q582 1389 784 1389 Q935 1389 1065 1335.5 Q1195 1282 1287 1188.5 Q1379 1095 1431 964 Q1483 833 1483 682 Q1483 531 1431 400 Q1379 269 1287 175.5 Q1195 82 1065 28.5 Q935 -25 784 -25 Q582 -25 422.5 66 Q263 157 174.5 318.5 ZM332 682 Q332 468 456 328 Q580 188 784 188 Q987 188 1112 328 Q1237 468 1237 682 Q1237 897 1112 1036.5 Q987 1176 784 1176 Q580 1176 456 1037 Q332 898 332 682 Z" /><glyph glyph-name="P" unicode="p" d="M145 0 L145 1366 L748 1366 Q955 1366 1073.5 1243.5 Q1192 1121 1192 938 Q1192 757 1073 634.5 Q954 512 748 512 L385 512 L385 0 L145 0 ZM385 723 L715 723 Q817 723 881.5 782.5 Q946 842 946 938 Q946 1036 881.5 1095.5 Q817 1155 715 1155 L385 1155 L385 723 Z" /><glyph glyph-name="Q" unicode="q" d="M174.5 318.5 Q86 480 86 682 Q86 884 174.5 1045.5 Q263 1207 422.5 1298 Q582 1389 784 1389 Q935 1389 1065 1335.5 Q1195 1282 1287 1188.5 Q1379 1095 1431 964 Q1483 833 1483 682 Q1483 389 1300 190 L1413 63 L1247 -76 L1128 57 Q973 -25 784 -25 Q582 -25 422.5 66 Q263 157 174.5 318.5 ZM332 682 Q332 468 456 328 Q580 188 784 188 Q890 188 977 229 L807 422 L975 561 L1145 369 Q1237 500 1237 682 Q1237 897 1112 1036.5 Q987 1176 784 1176 Q580 1176 456 1037 Q332 898 332 682 Z" /><glyph glyph-name="R" unicode="r" d="M145 0 L145 1366 L745 1366 Q947 1366 1070.5 1247.5 Q1194 1129 1194 938 Q1194 850 1166.5 777.5 Q1139 705 1092.5 656.5 Q1046 608 989 577.5 Q932 547 868 537 L1204 0 L926 0 L625 510 L385 510 L385 0 L145 0 ZM385 721 L715 721 Q817 721 882.5 781 Q948 841 948 940 Q948 1037 883 1096 Q818 1155 715 1155 L385 1155 L385 721 Z" /><glyph glyph-name="S" unicode="s" d="M57 193 L193 379 Q270 296 381 242 Q492 188 625 188 Q762 188 829.5 243.5 Q897 299 897 377 Q897 423 870 457 Q843 491 797 512.5 Q751 534 691 551 Q631 568 565 584.5 Q499 601 433.5 620.5 Q368 640 308 670 Q248 700 202 740.5 Q156 781 129 844 Q102 907 102 987 Q102 1160 240 1274.5 Q378 1389 600 1389 Q914 1389 1110 1196 L975 1018 Q896 1097 792.5 1136.5 Q689 1176 578 1176 Q474 1176 411 1128.5 Q348 1081 348 1006 Q348 965 375 934.5 Q402 904 448 884.5 Q494 865 554 848 Q614 831 679.5 814 Q745 797 811 777 Q877 757 937 725 Q997 693 1043 651 Q1089 609 1116 544.5 Q1143 480 1143 399 Q1143 330 1123.5 268 Q1104 206 1062 152 Q1020 98 959 59 Q898 20 809.5 -2.5 Q721 -25 614 -25 Q268 -25 57 193 Z" /><glyph glyph-name="T" unicode="t" d="M57 1155 L57 1366 L1124 1366 L1124 1155 L711 1155 L711 0 L471 0 L471 1155 L57 1155 Z" /><glyph glyph-name="U" unicode="u" d="M145 541 L145 1366 L389 1366 L389 547 Q389 381 479.5 284.5 Q570 188 737 188 Q904 188 994.5 284.5 Q1085 381 1085 547 L1085 1366 L1329 1366 L1329 541 Q1329 280 1178 127.5 Q1027 -25 737 -25 Q448 -25 296.5 127.5 Q145 280 145 541 Z" /><glyph glyph-name="V" unicode="v" d="M4 1366 L276 1366 L690 262 L1104 1366 L1376 1366 L840 0 L541 0 L4 1366 Z" /><glyph glyph-name="W" unicode="w" d="M14 1366 L281 1366 L547 315 L829 1366 L1020 1366 L1303 315 L1569 1366 L1837 1366 L1446 0 L1190 0 L926 1010 L659 0 L403 0 L14 1366 Z" /><glyph glyph-name="X" unicode="x" d="M8 0 L518 700 L39 1366 L326 1366 L678 866 L1028 1366 L1317 1366 L836 702 L1348 0 L1061 0 L678 535 L295 0 L8 0 Z" /><glyph glyph-name="Y" unicode="y" d="M4 1366 L279 1366 L653 782 L1028 1366 L1303 1366 L774 567 L774 0 L535 0 L535 567 L4 1366 Z" /><glyph glyph-name="Z" unicode="z" d="M92 0 L92 195 L788 1155 L92 1155 L92 1366 L1102 1366 L1102 1174 L401 211 L1116 211 L1116 0 L92 0 Z" /><glyph glyph-name="bracketleft" unicode="[" d="M90 -389 L90 1389 L506 1389 L506 1241 L250 1241 L250 -242 L506 -242 L506 -389 L90 -389 Z" /><glyph glyph-name="backslash" unicode="\" d="M0 1407 L160 1407 L645 -41 L485 -41 L0 1407 Z" /><glyph glyph-name="bracketright" unicode="]" d="M37 -242 L293 -242 L293 1241 L37 1241 L37 1389 L453 1389 L453 -389 L37 -389 L37 -242 Z" /><glyph glyph-name="asciicircum" unicode="^" d="M39 682 L371 1366 L528 1366 L856 682 L692 682 L449 1217 L205 682 L39 682 Z" /><glyph glyph-name="underscore" unicode="_" d="M-6 -82 L1161 -82 L1161 -229 L-6 -229 L-6 -82 Z" /><glyph glyph-name="grave" unicode="`" d="M0 1434 L205 1434 L492 1139 L338 1139 L0 1434 Z" /><glyph glyph-name="a" unicode="a" d="M82 303 Q82 385 112 449.5 Q142 514 192.5 551.5 Q243 589 302 608 Q361 627 424 627 Q633 627 745 500 L745 647 Q745 732 681 781.5 Q617 831 514 831 Q344 831 221 705 L131 854 Q297 1014 547 1014 Q616 1014 675.5 1002.5 Q735 991 788 964 Q841 937 879 897 Q917 857 939 795.5 Q961 734 961 657 L961 0 L745 0 L745 109 Q690 45 606 10 Q522 -25 424 -25 Q363 -25 303 -3.5 Q243 18 193 57.5 Q143 97 112.5 161 Q82 225 82 303 ZM297 301 Q297 221 357.5 172 Q418 123 510 123 Q582 123 645 149.5 Q708 176 745 225 L745 377 Q708 426 645 452.5 Q582 479 510 479 Q418 479 357.5 429.5 Q297 380 297 301 Z" /><glyph glyph-name="b" unicode="b" d="M139 0 L139 1366 L354 1366 L354 852 Q413 931 496 972.5 Q579 1014 672 1014 Q867 1014 989.5 873 Q1112 732 1112 496 Q1112 255 989.5 115 Q867 -25 672 -25 Q578 -25 495 17.5 Q412 60 354 135 L354 0 L139 0 ZM354 297 Q391 241 463 203.5 Q535 166 610 166 Q736 166 812.5 258 Q889 350 889 496 Q889 640 812.5 731.5 Q736 823 610 823 Q535 823 463.5 785 Q392 747 354 690 L354 297 Z" /><glyph glyph-name="c" unicode="c" d="M223.5 123 Q80 271 80 496 Q80 721 223.5 867.5 Q367 1014 590 1014 Q838 1014 969 838 L827 709 Q747 823 600 823 Q467 823 384 732 Q301 641 301 496 Q301 351 384 258.5 Q467 166 600 166 Q743 166 827 285 L969 152 Q834 -25 590 -25 Q367 -25 223.5 123 Z" /><glyph glyph-name="d" unicode="d" d="M80 496 Q80 732 202.5 873 Q325 1014 518 1014 Q613 1014 695.5 972.5 Q778 931 836 852 L836 1366 L1051 1366 L1051 0 L836 0 L836 135 Q778 60 695.5 17.5 Q613 -25 518 -25 Q325 -25 202.5 115 Q80 255 80 496 ZM301 496 Q301 350 377.5 258 Q454 166 582 166 Q656 166 728 204.5 Q800 243 836 299 L836 690 Q800 746 728 784.5 Q656 823 582 823 Q455 823 378 731.5 Q301 640 301 496 Z" /><glyph glyph-name="e" unicode="e" d="M80 496 Q80 638 143.5 756.5 Q207 875 323 944.5 Q439 1014 582 1014 Q802 1014 934.5 863.5 Q1067 713 1067 477 L1067 424 L305 424 Q318 308 401 230 Q484 152 618 152 Q694 152 771.5 181 Q849 210 901 262 L999 121 Q924 51 819.5 13 Q715 -25 598 -25 Q372 -25 226 119 Q80 263 80 496 ZM303 578 L860 578 Q858 624 840.5 668 Q823 712 791 751.5 Q759 791 704.5 814.5 Q650 838 580 838 Q454 838 382 758.5 Q310 679 303 578 Z" /><glyph glyph-name="f" unicode="f" d="M29 803 L29 989 L193 989 L193 1044 Q193 1203 278 1294.5 Q363 1386 504 1386 Q660 1386 741 1300 L657 1167 Q611 1210 545 1210 Q479 1210 443.5 1168 Q408 1126 408 1044 L408 989 L608 989 L608 803 L408 803 L408 0 L193 0 L193 803 L29 803 Z" /><glyph glyph-name="g" unicode="g" d="M80 506 Q80 743 201 878.5 Q322 1014 518 1014 Q612 1014 694 972.5 Q776 931 836 852 L836 989 L1051 989 L1051 51 Q1051 -52 1021 -132.5 Q991 -213 942.5 -262.5 Q894 -312 826 -344 Q758 -376 689 -388.5 Q620 -401 543 -401 Q412 -401 314 -368 Q216 -335 127 -254 L227 -98 Q340 -225 543 -225 Q599 -225 648.5 -211 Q698 -197 741.5 -166.5 Q785 -136 810.5 -80.5 Q836 -25 836 51 L836 164 Q777 87 694.5 42.5 Q612 -2 518 -2 Q324 -2 202 132.5 Q80 267 80 506 ZM377.5 736 Q301 649 301 506 Q301 363 377.5 276.5 Q454 190 582 190 Q655 190 726.5 228 Q798 266 836 322 L836 692 Q798 747 726.5 785 Q655 823 582 823 Q454 823 377.5 736 Z" /><glyph glyph-name="h" unicode="h" d="M141 0 L141 1366 L356 1366 L356 856 Q412 922 504 968 Q596 1014 705 1014 Q864 1014 944 934 Q1024 854 1024 700 L1024 0 L809 0 L809 623 Q809 734 758.5 778.5 Q708 823 610 823 Q532 823 464.5 785 Q397 747 356 692 L356 0 L141 0 Z" /><glyph glyph-name="i" unicode="i" d="M153.5 1149 Q115 1188 115 1243 Q115 1298 153.5 1337 Q192 1376 248 1376 Q304 1376 342.5 1337 Q381 1298 381 1243 Q381 1188 342.5 1149 Q304 1110 248 1110 Q192 1110 153.5 1149 ZM139 0 L139 989 L354 989 L354 0 L139 0 Z" /><glyph glyph-name="j" unicode="j" d="M-207 -330 L-143 -170 Q-81 -225 -6 -225 Q61 -225 100 -183.5 Q139 -142 139 -57 L139 989 L354 989 L354 -57 Q354 -219 271 -310 Q188 -401 27 -401 Q-55 -401 -104 -385 Q-153 -369 -207 -330 ZM153.5 1149 Q115 1188 115 1243 Q115 1298 153.5 1337 Q192 1376 248 1376 Q304 1376 342.5 1337 Q381 1298 381 1243 Q381 1188 342.5 1149 Q304 1110 248 1110 Q192 1110 153.5 1149 Z" /><glyph glyph-name="k" unicode="k" d="M139 0 L139 1366 L354 1366 L354 512 L791 989 L1057 989 L647 541 L1065 0 L795 0 L494 410 L354 266 L354 0 L139 0 Z" /><glyph glyph-name="l" unicode="l" d="M139 0 L139 1366 L354 1366 L354 0 L139 0 Z" /><glyph glyph-name="m" unicode="m" d="M139 0 L139 989 L354 989 L354 856 Q394 911 484.5 962.5 Q575 1014 678 1014 Q785 1014 853.5 965.5 Q922 917 948 834 Q993 906 1085.5 960 Q1178 1014 1284 1014 Q1421 1014 1495 939 Q1569 864 1569 715 L1569 0 L1354 0 L1354 645 Q1354 729 1314 776 Q1274 823 1190 823 Q1122 823 1059 784.5 Q996 746 961 692 L961 0 L745 0 L745 645 Q745 823 584 823 Q517 823 454.5 784 Q392 745 354 692 L354 0 L139 0 Z" /><glyph glyph-name="n" unicode="n" d="M139 0 L139 989 L354 989 L354 856 Q409 921 502.5 967.5 Q596 1014 705 1014 Q863 1014 943.5 932 Q1024 850 1024 696 L1024 0 L809 0 L809 618 Q809 729 757 776 Q705 823 608 823 Q532 823 464 785 Q396 747 354 692 L354 0 L139 0 Z" /><glyph glyph-name="o" unicode="o" d="M80 496 Q80 639 140.5 756 Q201 873 318 943.5 Q435 1014 588 1014 Q741 1014 858 943.5 Q975 873 1035.5 756 Q1096 639 1096 496 Q1096 390 1060.5 295.5 Q1025 201 960.5 129.5 Q896 58 799.5 16.5 Q703 -25 588 -25 Q473 -25 376.5 16.5 Q280 58 215.5 129.5 Q151 201 115.5 295.5 Q80 390 80 496 ZM303 496 Q303 358 380 262 Q457 166 588 166 Q720 166 796 261.5 Q872 357 872 496 Q872 634 796 728.5 Q720 823 588 823 Q457 823 380 728 Q303 633 303 496 Z" /><glyph glyph-name="p" unicode="p" d="M139 -377 L139 989 L354 989 L354 854 Q410 929 493.5 971.5 Q577 1014 672 1014 Q868 1014 989 875 Q1110 736 1110 496 Q1110 255 988.5 115 Q867 -25 672 -25 Q482 -25 354 137 L354 -377 L139 -377 ZM354 301 Q390 244 462 205 Q534 166 608 166 Q735 166 812 258 Q889 350 889 496 Q889 642 812 732.5 Q735 823 608 823 Q534 823 462.5 785.5 Q391 748 354 692 L354 301 Z" /><glyph glyph-name="q" unicode="q" d="M76 496 Q76 736 197 875 Q318 1014 514 1014 Q609 1014 691.5 971.5 Q774 929 831 854 L831 989 L1047 989 L1047 -377 L831 -377 L831 137 Q703 -25 514 -25 Q319 -25 197.5 115 Q76 255 76 496 ZM374 732.5 Q297 642 297 496 Q297 350 374 258 Q451 166 578 166 Q652 166 723.5 205 Q795 244 831 301 L831 692 Q794 748 723 785.5 Q652 823 578 823 Q451 823 374 732.5 Z" /><glyph glyph-name="r" unicode="r" d="M139 0 L139 989 L354 989 L354 846 Q414 920 499.5 967 Q585 1014 676 1014 L676 801 Q649 807 610 807 Q540 807 463 767.5 Q386 728 354 674 L354 0 L139 0 Z" /><glyph glyph-name="s" unicode="s" d="M55 131 L154 285 Q209 228 302.5 187.5 Q396 147 487 147 Q582 147 633 183 Q684 219 684 279 Q684 318 651 344 Q618 370 565.5 384.5 Q513 399 449 412 Q385 425 321 445.5 Q257 466 204.5 496 Q152 526 119 582 Q86 638 86 715 Q86 842 190 928 Q294 1014 475 1014 Q703 1014 858 877 L768 725 Q721 777 643 810.5 Q565 844 475 844 Q392 844 342.5 809.5 Q293 775 293 721 Q293 690 318.5 668 Q344 646 386 634.5 Q428 623 482 610 Q536 597 592 585 Q648 573 702 549.5 Q756 526 798 494.5 Q840 463 865.5 409 Q891 355 891 285 Q891 149 782 62 Q673 -25 479 -25 Q352 -25 242 15.5 Q132 56 55 131 Z" /><glyph glyph-name="t" unicode="t" d="M20 803 L20 989 L184 989 L184 1260 L399 1260 L399 989 L600 989 L600 803 L399 803 L399 285 Q399 232 424 199 Q449 166 494 166 Q523 166 549 177 Q575 188 588 203 L639 39 Q568 -25 438 -25 Q313 -25 248.5 40.5 Q184 106 184 231 L184 803 L20 803 Z" /><glyph glyph-name="u" unicode="u" d="M139 289 L139 989 L354 989 L354 369 Q354 259 405.5 212.5 Q457 166 555 166 Q632 166 699.5 203.5 Q767 241 807 295 L807 989 L1022 989 L1022 0 L807 0 L807 131 Q748 65 657.5 20 Q567 -25 459 -25 Q301 -25 220 56 Q139 137 139 289 Z" /><glyph glyph-name="v" unicode="v" d="M-4 989 L227 989 L516 248 L805 989 L1034 989 L631 0 L399 0 L-4 989 Z" /><glyph glyph-name="w" unicode="w" d="M10 989 L233 989 L442 270 L678 989 L868 989 L1102 270 L1311 989 L1536 989 L1229 0 L1004 0 L772 725 L543 0 L317 0 L10 989 Z" /><glyph glyph-name="x" unicode="x" d="M10 0 L375 508 L33 989 L274 989 L508 655 L743 989 L985 989 L643 508 L1008 0 L766 0 L510 365 L252 0 L10 0 Z" /><glyph glyph-name="y" unicode="y" d="M-4 989 L227 989 L516 248 L805 989 L1034 989 L557 -178 Q508 -298 425 -348.5 Q342 -399 219 -401 Q149 -401 98 -387 L129 -195 Q166 -211 211 -211 Q266 -211 299.5 -192 Q333 -173 354 -125 L403 -12 L-4 989 Z" /><glyph glyph-name="z" unicode="z" d="M96 0 L96 164 L584 803 L96 803 L96 989 L872 989 L872 834 L377 188 L881 188 L881 0 L96 0 Z" /><glyph glyph-name="braceleft" unicode="{" d="M10 436 L10 563 Q62 563 89.5 602.5 Q117 642 117 702 L117 1083 Q117 1219 203.5 1304 Q290 1389 408 1389 L532 1389 L532 1241 L408 1241 Q352 1241 313 1197.5 Q274 1154 274 1085 L274 682 Q274 539 182 500 Q274 461 274 317 L274 -84 Q274 -152 313.5 -197 Q353 -242 408 -242 L532 -242 L532 -389 L408 -389 Q290 -389 203.5 -305.5 Q117 -222 117 -86 L117 297 Q117 357 89.5 396.5 Q62 436 10 436 Z" /><glyph glyph-name="bar" unicode="|" d="M145 -41 L145 1407 L293 1407 L293 -41 L145 -41 Z" /><glyph glyph-name="braceright" unicode="}" d="M35 -242 L160 -242 Q215 -242 254 -197 Q293 -152 293 -84 L293 317 Q293 461 385 500 Q293 539 293 682 L293 1085 Q293 1154 254 1197.5 Q215 1241 160 1241 L35 1241 L35 1389 L160 1389 Q278 1389 364.5 1304 Q451 1219 451 1083 L451 702 Q451 642 478 602.5 Q505 563 557 563 L557 436 Q505 436 478 396.5 Q451 357 451 297 L451 -86 Q451 -222 364.5 -305.5 Q278 -389 160 -389 L35 -389 L35 -242 Z" /><glyph glyph-name="asciitilde" unicode="~" d="M55 870 Q63 973 80 1053 Q97 1133 129 1207.5 Q161 1282 217 1323 Q273 1364 350 1364 Q403 1364 443.5 1343.5 Q484 1323 508 1289.5 Q532 1256 550 1216 Q568 1176 581 1136.5 Q594 1097 607.5 1063.5 Q621 1030 641.5 1009.5 Q662 989 690 989 Q803 989 836 1366 L985 1350 Q979 1282 970 1227 Q961 1172 946.5 1112.5 Q932 1053 910 1009 Q888 965 858 928.5 Q828 892 785.5 873 Q743 854 690 854 Q637 854 596.5 874.5 Q556 895 532 928 Q508 961 490 1000.5 Q472 1040 459 1080 Q446 1120 432.5 1153 Q419 1186 398.5 1206.5 Q378 1227 350 1227 Q237 1227 207 852 L55 870 Z" /><glyph glyph-name="nonbreakingspace" unicode=" " d="" /><glyph glyph-name="exclamdown" unicode="¡" d="M106 868 Q106 926 149 969 Q192 1012 250 1012 Q308 1012 349.5 969.5 Q391 927 391 868 Q391 811 349.5 769 Q308 727 250 727 Q192 727 149 769 Q106 811 106 868 ZM119 -377 L156 571 L342 571 L381 -377 L119 -377 Z" /><glyph glyph-name="cent" unicode="¢" d="M80 496 Q80 697 196.5 838 Q313 979 504 1008 L504 1157 L664 1157 L664 1010 Q858 987 969 838 L827 709 Q764 796 664 817 L664 172 Q762 193 827 285 L969 152 Q855 3 664 -20 L664 -205 L504 -205 L504 -18 Q314 10 197 151.5 Q80 293 80 496 ZM301 496 Q301 379 355.5 294 Q410 209 504 180 L504 809 Q410 778 355.5 695 Q301 612 301 496 Z" /><glyph glyph-name="sterling" unicode="£" d="M45 551 L45 692 L215 692 Q177 743 156 775 Q135 807 115.5 862 Q96 917 96 973 Q96 1092 165 1188 Q234 1284 343 1335 Q452 1386 575 1386 Q734 1386 849 1325.5 Q964 1265 1024 1147 L834 1034 Q809 1102 745.5 1146 Q682 1190 602 1190 Q498 1190 427 1129 Q356 1068 356 969 Q356 925 370 882.5 Q384 840 397 817.5 Q410 795 442 750.5 Q474 706 483 692 L784 692 L784 551 L547 551 Q553 521 553 489 Q553 341 410 244 Q457 262 512 262 Q577 262 660.5 224 Q744 186 795 186 Q856 186 906 209.5 Q956 233 979 264 L1077 74 Q976 -27 786 -27 Q725 -27 671 -12.5 Q617 2 584 19.5 Q551 37 506 51.5 Q461 66 416 66 Q324 66 178 -14 L96 156 Q210 209 274 280 Q338 351 338 434 Q338 489 311 551 L45 551 Z" /><glyph glyph-name="currency" unicode="¤" d="M74 281 L188 395 Q86 522 86 682 Q86 845 188 969 L74 1085 L131 1143 L248 1028 Q368 1130 535 1130 Q697 1130 821 1028 L936 1143 L995 1085 L881 969 Q983 845 983 682 Q983 522 881 395 L995 281 L936 221 L821 338 Q697 233 535 233 Q372 233 248 338 L131 221 L74 281 ZM184 682 Q184 537 287 434.5 Q390 332 535 332 Q680 332 782.5 434.5 Q885 537 885 682 Q885 828 782.5 930 Q680 1032 535 1032 Q390 1032 287 930 Q184 828 184 682 Z" /><glyph glyph-name="yen" unicode="¥" d="M4 1366 L279 1366 L653 782 L1028 1366 L1303 1366 L866 707 L1260 707 L1260 567 L774 567 L774 381 L1260 381 L1260 242 L774 242 L774 0 L535 0 L535 242 L47 242 L47 381 L535 381 L535 567 L47 567 L47 707 L442 707 L4 1366 Z" /><glyph glyph-name="brokenbar" unicode="¦" d="M145 -41 L145 606 L293 606 L293 -41 L145 -41 ZM145 760 L145 1407 L293 1407 L293 760 L145 760 Z" /><glyph glyph-name="section" unicode="§" d="M57 -6 L154 133 Q210 72 295.5 29 Q381 -14 479 -14 Q571 -14 627.5 24 Q684 62 684 129 Q684 173 651 203.5 Q618 234 565.5 251 Q513 268 449 283 Q385 298 321 319 Q257 340 204.5 370 Q152 400 119 455 Q86 510 86 586 Q86 683 149 749.5 Q212 816 301 842 Q86 920 86 1100 Q86 1223 192.5 1304.5 Q299 1386 473 1386 Q725 1386 858 1245 L768 1118 Q717 1174 640 1204.5 Q563 1235 483 1235 Q396 1235 344.5 1199 Q293 1163 293 1102 Q293 1070 313.5 1047 Q334 1024 368.5 1010 Q403 996 448 984.5 Q493 973 542.5 961.5 Q592 950 641.5 936.5 Q691 923 736 900 Q781 877 815.5 846.5 Q850 816 870.5 767.5 Q891 719 891 657 Q891 573 844.5 504.5 Q798 436 711 397 Q891 321 891 147 Q891 1 776.5 -82.5 Q662 -166 479 -166 Q228 -166 57 -6 ZM293 614 Q293 591 301 572 Q309 553 319 539 Q329 525 351 512 Q373 499 388.5 492 Q404 485 436 475.5 Q468 466 484 462 Q500 458 537 449 Q608 481 643 522 Q678 563 678 623 Q678 659 662 686.5 Q646 714 616 733 Q586 752 555 763.5 Q524 775 481 786 Q377 761 335 718.5 Q293 676 293 614 Z" /><glyph glyph-name="dieresis" unicode="¨" d="M-43 1245 Q-43 1296 -7.5 1331 Q28 1366 78 1366 Q129 1366 164 1331 Q199 1296 199 1245 Q199 1195 164 1160.5 Q129 1126 78 1126 Q28 1126 -7.5 1161 Q-43 1196 -43 1245 ZM387 1245 Q387 1296 421.5 1331 Q456 1366 506 1366 Q557 1366 592 1331 Q627 1296 627 1245 Q627 1195 592 1160.5 Q557 1126 506 1126 Q456 1126 421.5 1161 Q387 1196 387 1245 Z" /><glyph glyph-name="copyright" unicode="©" d="M90 684 Q90 876 185 1039 Q280 1202 443 1296.5 Q606 1391 797 1391 Q941 1391 1072 1335 Q1203 1279 1297 1184.5 Q1391 1090 1447 959 Q1503 828 1503 684 Q1503 541 1447 410 Q1391 279 1297 184 Q1203 89 1072 33 Q941 -23 797 -23 Q606 -23 443 72 Q280 167 185 330 Q90 493 90 684 ZM160 684 Q160 556 211 438 Q262 320 347.5 234.5 Q433 149 551 98 Q669 47 797 47 Q926 47 1044.5 98 Q1163 149 1248 234.5 Q1333 320 1383.5 438 Q1434 556 1434 684 Q1434 814 1383.5 932 Q1333 1050 1248 1135 Q1163 1220 1045 1270.5 Q927 1321 797 1321 Q669 1321 551 1270.5 Q433 1220 347.5 1135 Q262 1050 211 931.5 Q160 813 160 684 ZM503 376 Q379 502 379 688 Q379 874 502.5 997 Q626 1120 805 1120 Q990 1120 1106 985 L1049 926 Q1009 980 943 1012 Q877 1044 805 1044 Q665 1044 565 943 Q465 842 465 686 Q465 533 565.5 429.5 Q666 326 805 326 Q878 326 943.5 358.5 Q1009 391 1049 446 L1108 389 Q988 250 805 250 Q627 250 503 376 Z" /><glyph glyph-name="ordfeminine" unicode="ª" d="M72 864 Q72 964 140 1018.5 Q208 1073 299 1073 Q438 1073 514 993 L514 1087 Q514 1141 471 1173.5 Q428 1206 362 1206 Q246 1206 170 1118 L106 1223 Q219 1327 387 1327 Q446 1327 495 1314.5 Q544 1302 585 1274.5 Q626 1247 649 1198.5 Q672 1150 672 1083 L672 668 L514 668 L514 737 Q435 651 299 651 Q210 651 141 708.5 Q72 766 72 864 ZM229 864 Q229 812 267.5 783 Q306 754 365 754 Q409 754 449.5 771 Q490 788 514 819 L514 909 Q490 940 449.5 957.5 Q409 975 365 975 Q306 975 267.5 945 Q229 915 229 864 Z" /><glyph glyph-name="guillemotleft" unicode="«" d="M61 498 L389 860 L594 860 L266 498 L594 129 L389 129 L61 498 ZM410 498 L737 860 L942 860 L614 498 L942 129 L737 129 L410 498 Z" /><glyph glyph-name="logicalnot" unicode="¬" d="M59 811 L59 948 L969 948 L969 420 L825 420 L825 811 L59 811 Z" /><glyph glyph-name="uni00AD" unicode="­" d="M61 403 L61 588 L553 588 L553 403 L61 403 Z" /><glyph glyph-name="registered" unicode="®" d="M72 952 Q72 1133 199 1259.5 Q326 1386 506 1386 Q625 1386 725 1328.5 Q825 1271 882.5 1171 Q940 1071 940 952 Q940 772 813.5 645 Q687 518 506 518 Q326 518 199 645 Q72 772 72 952 ZM135 952 Q135 800 243.5 691 Q352 582 506 582 Q661 582 770 690.5 Q879 799 879 952 Q879 1108 770.5 1216.5 Q662 1325 506 1325 Q352 1325 243.5 1216.5 Q135 1108 135 952 ZM340 702 L340 1200 L543 1200 Q608 1200 655 1158 Q702 1116 702 1049 Q702 977 656 939 Q610 901 575 901 L709 702 L625 702 L496 899 L408 899 L408 702 L340 702 ZM408 961 L543 961 Q577 961 605 986.5 Q633 1012 633 1049 Q633 1088 605 1114.5 Q577 1141 543 1141 L408 1141 L408 961 Z" /><glyph glyph-name="macron" unicode="¯" d="M0 1210 L0 1337 L743 1337 L743 1210 L0 1210 Z" /><glyph glyph-name="degree" unicode="°" d="M45 1120 Q45 1230 122 1308 Q199 1386 309 1386 Q418 1386 496.5 1308 Q575 1230 575 1120 Q575 1011 496.5 933.5 Q418 856 309 856 Q199 856 122 933.5 Q45 1011 45 1120 ZM168 1120 Q168 1062 209 1021.5 Q250 981 309 981 Q368 981 410.5 1021.5 Q453 1062 453 1120 Q453 1178 410.5 1221 Q368 1264 309 1264 Q251 1264 209.5 1221.5 Q168 1179 168 1120 Z" /><glyph glyph-name="plusminus" unicode="±" d="M59 0 L59 139 L969 139 L969 0 L59 0 ZM59 666 L59 805 L438 805 L438 1214 L590 1214 L590 805 L969 805 L969 666 L590 666 L590 242 L438 242 L438 666 L59 666 Z" /><glyph glyph-name="twosuperior" unicode="²" d="M84 1563 Q140 1628 225.5 1661 Q311 1694 401 1694 Q537 1694 627 1629.5 Q717 1565 717 1446 Q717 1342 625 1238.5 Q533 1135 338 995 L723 995 L723 862 L98 862 L98 985 Q361 1171 456 1263 Q551 1355 551 1434 Q551 1497 507.5 1529 Q464 1561 397 1561 Q329 1561 267 1531 Q205 1501 172 1458 L84 1563 Z" /><glyph glyph-name="threesuperior" unicode="³" d="M76 979 L160 1085 Q201 1036 265.5 1008.5 Q330 981 395 981 Q473 981 517 1013 Q561 1045 561 1098 Q561 1217 367 1217 Q299 1217 281 1214 L281 1346 Q302 1343 367 1343 Q549 1343 549 1454 Q549 1506 502.5 1533.5 Q456 1561 385 1561 Q254 1561 164 1468 L86 1565 Q201 1694 401 1694 Q545 1694 629 1634.5 Q713 1575 713 1473 Q713 1397 658 1347.5 Q603 1298 530 1286 Q562 1283 595.5 1269 Q629 1255 659 1231.5 Q689 1208 708 1170 Q727 1132 727 1087 Q727 981 637.5 914.5 Q548 848 399 848 Q290 848 205.5 884.5 Q121 921 76 979 Z" /><glyph glyph-name="acute" unicode="´" d="M0 1139 L287 1434 L492 1434 L154 1139 L0 1139 Z" /><glyph glyph-name="paragraph" unicode="¶" d="M158.5 765 Q55 868 55 1014 Q55 1160 158.5 1263 Q262 1366 408 1366 L803 1366 L803 -205 L690 -205 L690 1253 L520 1253 L520 -205 L408 -205 L408 662 Q262 662 158.5 765 Z" /><glyph glyph-name="periodcentered" unicode="·" d="M109 502 Q109 559 151.5 601 Q194 643 252 643 Q310 643 351.5 601 Q393 559 393 502 Q393 443 351.5 400.5 Q310 358 252 358 Q194 358 151.5 400.5 Q109 443 109 502 Z" /><glyph glyph-name="cedilla" unicode="¸" d="M0 -334 L47 -240 Q120 -299 213 -299 Q260 -299 293 -279.5 Q326 -260 326 -225 Q326 -164 260 -164 Q216 -164 188 -195 L106 -147 L168 23 L281 23 L229 -109 Q262 -86 303 -86 Q361 -86 399.5 -125.5 Q438 -165 438 -227 Q438 -303 374.5 -350 Q311 -397 217 -397 Q152 -397 93.5 -379 Q35 -361 0 -334 Z" /><glyph glyph-name="onesuperior" unicode="¹" d="M20 1430 L274 1681 L418 1681 L418 862 L252 862 L252 1470 L117 1329 L20 1430 Z" /><glyph glyph-name="ordmasculine" unicode="º" d="M70 989 Q70 1131 165 1229 Q260 1327 414 1327 Q571 1327 665.5 1229.5 Q760 1132 760 989 Q760 847 665 749 Q570 651 414 651 Q260 651 165 749.5 Q70 848 70 989 ZM236 989 Q236 896 283.5 838 Q331 780 414 780 Q500 780 549 838 Q598 896 598 989 Q598 1083 549 1139.5 Q500 1196 414 1196 Q331 1196 283.5 1139.5 Q236 1083 236 989 Z" /><glyph glyph-name="guillemotright" unicode="»" d="M61 129 L389 498 L61 860 L266 860 L594 498 L266 129 L61 129 ZM410 129 L737 498 L410 860 L614 860 L942 498 L614 129 L410 129 Z" /><glyph glyph-name="onequarter" unicode="¼" d="M20 1114 L274 1366 L418 1366 L418 547 L252 547 L252 1155 L117 1014 L20 1114 ZM256 0 L1130 1366 L1268 1366 L393 0 L256 0 ZM913 188 L913 305 L1251 819 L1481 819 L1481 319 L1591 319 L1591 188 L1481 188 L1481 0 L1317 0 L1317 188 L913 188 ZM1077 319 L1317 319 L1317 678 L1077 319 Z" /><glyph glyph-name="onehalf" unicode="½" d="M20 1114 L274 1366 L418 1366 L418 547 L252 547 L252 1155 L117 1014 L20 1114 ZM256 0 L1130 1366 L1268 1366 L393 0 L256 0 ZM1001 700 Q1057 764 1143 797.5 Q1229 831 1319 831 Q1455 831 1544.5 767 Q1634 703 1634 584 Q1634 480 1542 376.5 Q1450 273 1255 133 L1640 133 L1640 0 L1016 0 L1016 123 Q1279 309 1373.5 400.5 Q1468 492 1468 571 Q1468 634 1425 666 Q1382 698 1315 698 Q1246 698 1184.5 668 Q1123 638 1090 596 L1001 700 Z" /><glyph glyph-name="threequarters" unicode="¾" d="M76 664 L160 770 Q201 721 265.5 693.5 Q330 666 395 666 Q473 666 517 697.5 Q561 729 561 782 Q561 901 367 901 Q293 901 281 899 L281 1030 Q295 1028 367 1028 Q549 1028 549 1139 Q549 1191 503 1218 Q457 1245 385 1245 Q253 1245 164 1153 L86 1249 Q201 1378 401 1378 Q545 1378 629 1318.5 Q713 1259 713 1157 Q713 1081 658 1032 Q603 983 530 971 Q562 968 595.5 954 Q629 940 659 916.5 Q689 893 708 855 Q727 817 727 772 Q727 666 637.5 599 Q548 532 399 532 Q290 532 205.5 568.5 Q121 605 76 664 ZM455 0 L1329 1366 L1466 1366 L592 0 L455 0 ZM1110 188 L1110 305 L1448 819 L1677 819 L1677 319 L1788 319 L1788 188 L1677 188 L1677 0 L1513 0 L1513 188 L1110 188 ZM1274 319 L1513 319 L1513 678 L1274 319 Z" /><glyph glyph-name="questiondown" unicode="¿" d="M51 -80 Q51 -18 71 34.5 Q91 87 123.5 123.5 Q156 160 194.5 192 Q233 224 272 250.5 Q311 277 343.5 303.5 Q376 330 396 362.5 Q416 395 416 432 Q416 458 404 484 Q392 510 371 524 L553 586 Q625 517 625 410 Q625 351 600.5 302 Q576 253 539.5 221 Q503 189 460 156.5 Q417 124 380.5 98.5 Q344 73 319.5 36.5 Q295 0 295 -41 Q295 -105 345 -146.5 Q395 -188 489 -188 Q661 -188 774 -45 L913 -199 Q834 -295 719 -348 Q604 -401 467 -401 Q277 -401 164 -311 Q51 -221 51 -80 ZM336 868 Q336 927 378.5 969.5 Q421 1012 479 1012 Q538 1012 580.5 969 Q623 926 623 868 Q623 810 580.5 767.5 Q538 725 479 725 Q420 725 378 767.5 Q336 810 336 868 Z" /><glyph glyph-name="Agrave" unicode="à" d="M4 0 L541 1366 L840 1366 L1376 0 L1104 0 L1004 264 L377 264 L276 0 L4 0 ZM354 1786 L559 1786 L846 1491 L692 1491 L354 1786 ZM444 475 L936 475 L690 1126 L444 475 Z" /><glyph glyph-name="Aacute" unicode="á" d="M4 0 L541 1366 L840 1366 L1376 0 L1104 0 L1004 264 L377 264 L276 0 L4 0 ZM444 475 L936 475 L690 1126 L444 475 ZM539 1491 L825 1786 L1030 1786 L692 1491 L539 1491 Z" /><glyph glyph-name="Acircumflex" unicode="â" d="M4 0 L541 1366 L840 1366 L1376 0 L1104 0 L1004 264 L377 264 L276 0 L4 0 ZM401 1491 L592 1786 L788 1786 L985 1491 L850 1491 L690 1690 L539 1491 L401 1491 ZM444 475 L936 475 L690 1126 L444 475 Z" /><glyph glyph-name="Atilde" unicode="ã" d="M4 0 L541 1366 L840 1366 L1376 0 L1104 0 L1004 264 L377 264 L276 0 L4 0 ZM362 1499 Q362 1627 417 1700.5 Q472 1774 573 1774 Q613 1774 644.5 1757.5 Q676 1741 696.5 1717.5 Q717 1694 734.5 1670.5 Q752 1647 773 1630.5 Q794 1614 817 1614 Q855 1614 879 1651 Q903 1688 903 1761 L1020 1761 Q1020 1633 965 1560 Q910 1487 809 1487 Q770 1487 738.5 1503.5 Q707 1520 686.5 1543.5 Q666 1567 648 1590.5 Q630 1614 609 1630.5 Q588 1647 565 1647 Q528 1647 504.5 1609.5 Q481 1572 481 1499 L362 1499 ZM444 475 L936 475 L690 1126 L444 475 Z" /><glyph glyph-name="Adieresis" unicode="ä" d="M4 0 L541 1366 L840 1366 L1376 0 L1104 0 L1004 264 L377 264 L276 0 L4 0 ZM356 1597 Q356 1648 391.5 1683 Q427 1718 477 1718 Q528 1718 563 1683 Q598 1648 598 1597 Q598 1547 563 1513 Q528 1479 477 1479 Q427 1479 391.5 1513.5 Q356 1548 356 1597 ZM444 475 L936 475 L690 1126 L444 475 ZM786 1597 Q786 1648 820.5 1683 Q855 1718 905 1718 Q956 1718 991 1683 Q1026 1648 1026 1597 Q1026 1547 991 1513 Q956 1479 905 1479 Q855 1479 820.5 1513.5 Q786 1548 786 1597 Z" /><glyph glyph-name="Aring" unicode="å" d="M4 0 L541 1366 L840 1366 L1376 0 L1104 0 L1004 264 L377 264 L276 0 L4 0 ZM444 475 L936 475 L690 1126 L444 475 ZM543.5 1480.5 Q481 1542 481 1628 Q481 1714 543.5 1776.5 Q606 1839 692 1839 Q778 1839 838.5 1777 Q899 1715 899 1628 Q899 1542 838.5 1480.5 Q778 1419 692 1419 Q606 1419 543.5 1480.5 ZM586 1628 Q586 1585 617 1553.5 Q648 1522 692 1522 Q735 1522 766 1553.5 Q797 1585 797 1628 Q797 1672 766 1703.5 Q735 1735 692 1735 Q648 1735 617 1703.5 Q586 1672 586 1628 Z" /><glyph glyph-name="AE" unicode="æ" d="M-4 0 L836 1366 L1868 1366 L1868 1155 L1171 1155 L1171 803 L1853 803 L1853 592 L1171 592 L1171 211 L1868 211 L1868 0 L932 0 L932 264 L428 264 L270 0 L-4 0 ZM541 475 L932 475 L932 1126 L541 475 Z" /><glyph glyph-name="Ccedilla" unicode="ç" d="M86 682 Q86 837 141.5 970 Q197 1103 293 1194.5 Q389 1286 521 1337.5 Q653 1389 803 1389 Q995 1389 1131 1304.5 Q1267 1220 1350 1083 L1147 977 Q1096 1065 1003 1120.5 Q910 1176 803 1176 Q600 1176 466 1037 Q332 898 332 682 Q332 469 466 328.5 Q600 188 803 188 Q909 188 1002.5 244 Q1096 300 1147 387 L1352 285 Q1164 -12 831 -25 L803 -100 Q834 -78 877 -78 Q935 -78 973.5 -117.5 Q1012 -157 1012 -219 Q1012 -295 948.5 -342 Q885 -389 791 -389 Q726 -389 667 -371 Q608 -353 573 -326 L621 -231 Q696 -291 786 -291 Q833 -291 866 -271.5 Q899 -252 899 -217 Q899 -156 834 -156 Q789 -156 762 -186 L680 -139 L723 -20 Q587 -7 469.5 50 Q352 107 267.5 197 Q183 287 134.5 412.5 Q86 538 86 682 Z" /><glyph glyph-name="Egrave" unicode="è" d="M145 0 L145 1366 L1081 1366 L1081 1155 L385 1155 L385 803 L1067 803 L1067 592 L385 592 L385 211 L1081 211 L1081 0 L145 0 ZM276 1786 L481 1786 L768 1491 L614 1491 L276 1786 Z" /><glyph glyph-name="Eacute" unicode="é" d="M145 0 L145 1366 L1081 1366 L1081 1155 L385 1155 L385 803 L1067 803 L1067 592 L385 592 L385 211 L1081 211 L1081 0 L145 0 ZM461 1491 L748 1786 L952 1786 L614 1491 L461 1491 Z" /><glyph glyph-name="Ecircumflex" unicode="ê" d="M145 0 L145 1366 L1081 1366 L1081 1155 L385 1155 L385 803 L1067 803 L1067 592 L385 592 L385 211 L1081 211 L1081 0 L145 0 ZM322 1491 L512 1786 L709 1786 L905 1491 L770 1491 L610 1690 L459 1491 L322 1491 Z" /><glyph glyph-name="Edieresis" unicode="ë" d="M145 0 L145 1366 L1081 1366 L1081 1155 L385 1155 L385 803 L1067 803 L1067 592 L385 592 L385 211 L1081 211 L1081 0 L145 0 ZM281 1597 Q281 1648 316 1683 Q351 1718 401 1718 Q452 1718 487 1683 Q522 1648 522 1597 Q522 1547 487 1513 Q452 1479 401 1479 Q351 1479 316 1513.5 Q281 1548 281 1597 ZM711 1597 Q711 1648 745 1683 Q779 1718 829 1718 Q880 1718 915 1683 Q950 1648 950 1597 Q950 1547 915 1513 Q880 1479 829 1479 Q780 1479 745.5 1513.5 Q711 1548 711 1597 Z" /><glyph glyph-name="Igrave" unicode="ì" d="M-74 1786 L131 1786 L418 1491 L264 1491 L-74 1786 ZM145 0 L145 1366 L385 1366 L385 0 L145 0 Z" /><glyph glyph-name="Iacute" unicode="í" d="M117 1491 L403 1786 L608 1786 L270 1491 L117 1491 ZM145 0 L145 1366 L385 1366 L385 0 L145 0 Z" /><glyph glyph-name="Icircumflex" unicode="î" d="M-27 1491 L164 1786 L360 1786 L557 1491 L422 1491 L262 1690 L111 1491 L-27 1491 ZM145 0 L145 1366 L385 1366 L385 0 L145 0 Z" /><glyph glyph-name="Idieresis" unicode="ï" d="M-70 1595 Q-70 1646 -34.5 1681 Q1 1716 51 1716 Q102 1716 137 1681 Q172 1646 172 1595 Q172 1545 137 1511 Q102 1477 51 1477 Q1 1477 -34.5 1511.5 Q-70 1546 -70 1595 ZM145 0 L145 1366 L385 1366 L385 0 L145 0 ZM360 1595 Q360 1646 394.5 1681 Q429 1716 479 1716 Q530 1716 565 1681 Q600 1646 600 1595 Q600 1545 565 1511 Q530 1477 479 1477 Q429 1477 394.5 1511.5 Q360 1546 360 1595 Z" /><glyph glyph-name="Eth" unicode="ð" d="M20 586 L20 760 L199 760 L199 1366 L707 1366 Q918 1366 1081 1279 Q1244 1192 1332.5 1037 Q1421 882 1421 684 Q1421 381 1224 190.5 Q1027 0 709 0 L199 0 L199 586 L20 586 ZM438 211 L707 211 Q851 211 959 275.5 Q1067 340 1121.5 446.5 Q1176 553 1176 684 Q1176 817 1123.5 922.5 Q1071 1028 963.5 1091.5 Q856 1155 709 1155 L438 1155 L438 760 L764 760 L764 586 L438 586 L438 211 Z" /><glyph glyph-name="Ntilde" unicode="ñ" d="M145 0 L145 1366 L391 1366 L1090 420 L1090 1366 L1329 1366 L1329 0 L1098 0 L385 977 L385 0 L145 0 ZM406 1499 Q406 1627 460.5 1700.5 Q515 1774 616 1774 Q656 1774 687.5 1757.5 Q719 1741 739.5 1717.5 Q760 1694 777.5 1670.5 Q795 1647 816 1630.5 Q837 1614 860 1614 Q898 1614 922 1651 Q946 1688 946 1761 L1063 1761 Q1063 1633 1008 1560 Q953 1487 852 1487 Q813 1487 781.5 1503.5 Q750 1520 729.5 1543.5 Q709 1567 691 1590.5 Q673 1614 652 1630.5 Q631 1647 608 1647 Q571 1647 547.5 1609.5 Q524 1572 524 1499 L406 1499 Z" /><glyph glyph-name="Ograve" unicode="ò" d="M174.5 318.5 Q86 480 86 682 Q86 884 174.5 1045.5 Q263 1207 422.5 1298 Q582 1389 784 1389 Q935 1389 1065 1335.5 Q1195 1282 1287 1188.5 Q1379 1095 1431 964 Q1483 833 1483 682 Q1483 531 1431 400 Q1379 269 1287 175.5 Q1195 82 1065 28.5 Q935 -25 784 -25 Q582 -25 422.5 66 Q263 157 174.5 318.5 ZM332 682 Q332 468 456 328 Q580 188 784 188 Q987 188 1112 328 Q1237 468 1237 682 Q1237 897 1112 1036.5 Q987 1176 784 1176 Q580 1176 456 1037 Q332 898 332 682 ZM453 1786 L657 1786 L944 1491 L791 1491 L453 1786 Z" /><glyph glyph-name="Oacute" unicode="ó" d="M174.5 318.5 Q86 480 86 682 Q86 884 174.5 1045.5 Q263 1207 422.5 1298 Q582 1389 784 1389 Q935 1389 1065 1335.5 Q1195 1282 1287 1188.5 Q1379 1095 1431 964 Q1483 833 1483 682 Q1483 531 1431 400 Q1379 269 1287 175.5 Q1195 82 1065 28.5 Q935 -25 784 -25 Q582 -25 422.5 66 Q263 157 174.5 318.5 ZM332 682 Q332 468 456 328 Q580 188 784 188 Q987 188 1112 328 Q1237 468 1237 682 Q1237 897 1112 1036.5 Q987 1176 784 1176 Q580 1176 456 1037 Q332 898 332 682 ZM633 1491 L920 1786 L1124 1786 L786 1491 L633 1491 Z" /><glyph glyph-name="Ocircumflex" unicode="ô" d="M174.5 318.5 Q86 480 86 682 Q86 884 174.5 1045.5 Q263 1207 422.5 1298 Q582 1389 784 1389 Q935 1389 1065 1335.5 Q1195 1282 1287 1188.5 Q1379 1095 1431 964 Q1483 833 1483 682 Q1483 531 1431 400 Q1379 269 1287 175.5 Q1195 82 1065 28.5 Q935 -25 784 -25 Q582 -25 422.5 66 Q263 157 174.5 318.5 ZM332 682 Q332 468 456 328 Q580 188 784 188 Q987 188 1112 328 Q1237 468 1237 682 Q1237 897 1112 1036.5 Q987 1176 784 1176 Q580 1176 456 1037 Q332 898 332 682 ZM498 1491 L688 1786 L885 1786 L1081 1491 L946 1491 L786 1690 L635 1491 L498 1491 Z" /><glyph glyph-name="Otilde" unicode="õ" d="M174.5 318.5 Q86 480 86 682 Q86 884 174.5 1045.5 Q263 1207 422.5 1298 Q582 1389 784 1389 Q935 1389 1065 1335.5 Q1195 1282 1287 1188.5 Q1379 1095 1431 964 Q1483 833 1483 682 Q1483 531 1431 400 Q1379 269 1287 175.5 Q1195 82 1065 28.5 Q935 -25 784 -25 Q582 -25 422.5 66 Q263 157 174.5 318.5 ZM332 682 Q332 468 456 328 Q580 188 784 188 Q987 188 1112 328 Q1237 468 1237 682 Q1237 897 1112 1036.5 Q987 1176 784 1176 Q580 1176 456 1037 Q332 898 332 682 ZM457 1499 Q457 1627 512 1700.5 Q567 1774 668 1774 Q708 1774 739.5 1757.5 Q771 1741 791 1717.5 Q811 1694 828.5 1670.5 Q846 1647 867 1630.5 Q888 1614 911 1614 Q949 1614 973 1651 Q997 1688 997 1761 L1114 1761 Q1114 1633 1059 1560 Q1004 1487 903 1487 Q864 1487 832.5 1503.5 Q801 1520 780.5 1543.5 Q760 1567 742 1590.5 Q724 1614 703 1630.5 Q682 1647 659 1647 Q622 1647 598.5 1609.5 Q575 1572 575 1499 L457 1499 Z" /><glyph glyph-name="Odieresis" unicode="ö" d="M174.5 318.5 Q86 480 86 682 Q86 884 174.5 1045.5 Q263 1207 422.5 1298 Q582 1389 784 1389 Q935 1389 1065 1335.5 Q1195 1282 1287 1188.5 Q1379 1095 1431 964 Q1483 833 1483 682 Q1483 531 1431 400 Q1379 269 1287 175.5 Q1195 82 1065 28.5 Q935 -25 784 -25 Q582 -25 422.5 66 Q263 157 174.5 318.5 ZM332 682 Q332 468 456 328 Q580 188 784 188 Q987 188 1112 328 Q1237 468 1237 682 Q1237 897 1112 1036.5 Q987 1176 784 1176 Q580 1176 456 1037 Q332 898 332 682 ZM451 1597 Q451 1648 486 1683 Q521 1718 571 1718 Q622 1718 657 1683 Q692 1648 692 1597 Q692 1547 657 1513 Q622 1479 571 1479 Q521 1479 486 1513.5 Q451 1548 451 1597 ZM881 1597 Q881 1648 915 1683 Q949 1718 999 1718 Q1050 1718 1085 1683 Q1120 1648 1120 1597 Q1120 1547 1085 1513 Q1050 1479 999 1479 Q950 1479 915.5 1513.5 Q881 1548 881 1597 Z" /><glyph glyph-name="multiply" unicode="×" d="M121 389 L418 684 L121 981 L219 1077 L514 782 L811 1077 L907 981 L612 684 L907 389 L811 291 L514 588 L219 291 L121 389 Z" /><glyph glyph-name="Oslash" unicode="ø" d="M86 682 Q86 884 174.5 1045.5 Q263 1207 422.5 1298 Q582 1389 784 1389 Q977 1389 1133 1303 L1178 1366 L1356 1366 L1251 1221 Q1361 1124 1422 985 Q1483 846 1483 682 Q1483 531 1431 400 Q1379 269 1287 175.5 Q1195 82 1065 28.5 Q935 -25 784 -25 Q580 -25 418 70 L367 0 L188 0 L301 156 Q198 253 142 388 Q86 523 86 682 ZM332 682 Q332 479 438 346 L1001 1122 Q904 1176 784 1176 Q580 1176 456 1037 Q332 898 332 682 ZM549 250 Q654 188 784 188 Q987 188 1112 328 Q1237 468 1237 682 Q1237 895 1114 1034 L549 250 Z" /><glyph glyph-name="Ugrave" unicode="ù" d="M145 541 L145 1366 L389 1366 L389 547 Q389 381 479.5 284.5 Q570 188 737 188 Q904 188 994.5 284.5 Q1085 381 1085 547 L1085 1366 L1329 1366 L1329 541 Q1329 280 1178 127.5 Q1027 -25 737 -25 Q448 -25 296.5 127.5 Q145 280 145 541 ZM403 1786 L608 1786 L895 1491 L741 1491 L403 1786 Z" /><glyph glyph-name="Uacute" unicode="ú" d="M145 541 L145 1366 L389 1366 L389 547 Q389 381 479.5 284.5 Q570 188 737 188 Q904 188 994.5 284.5 Q1085 381 1085 547 L1085 1366 L1329 1366 L1329 541 Q1329 280 1178 127.5 Q1027 -25 737 -25 Q448 -25 296.5 127.5 Q145 280 145 541 ZM586 1491 L872 1786 L1077 1786 L739 1491 L586 1491 Z" /><glyph glyph-name="Ucircumflex" unicode="û" d="M145 541 L145 1366 L389 1366 L389 547 Q389 381 479.5 284.5 Q570 188 737 188 Q904 188 994.5 284.5 Q1085 381 1085 547 L1085 1366 L1329 1366 L1329 541 Q1329 280 1178 127.5 Q1027 -25 737 -25 Q448 -25 296.5 127.5 Q145 280 145 541 ZM457 1491 L647 1786 L844 1786 L1040 1491 L905 1491 L745 1690 L594 1491 L457 1491 Z" /><glyph glyph-name="Udieresis" unicode="ü" d="M145 541 L145 1366 L389 1366 L389 547 Q389 381 479.5 284.5 Q570 188 737 188 Q904 188 994.5 284.5 Q1085 381 1085 547 L1085 1366 L1329 1366 L1329 541 Q1329 280 1178 127.5 Q1027 -25 737 -25 Q448 -25 296.5 127.5 Q145 280 145 541 ZM441 1513.5 Q406 1548 406 1597 Q406 1648 441 1683 Q476 1718 526 1718 Q577 1718 612 1683 Q647 1648 647 1597 Q647 1547 612 1513 Q577 1479 526 1479 Q476 1479 441 1513.5 ZM836 1597 Q836 1648 870 1683 Q904 1718 954 1718 Q1005 1718 1040 1683 Q1075 1648 1075 1597 Q1075 1547 1040 1513 Q1005 1479 954 1479 Q904 1479 870 1513.5 Q836 1548 836 1597 Z" /><glyph glyph-name="Yacute" unicode="ý" d="M4 1366 L279 1366 L653 782 L1028 1366 L1303 1366 L774 567 L774 0 L535 0 L535 567 L4 1366 ZM506 1491 L793 1786 L997 1786 L659 1491 L506 1491 Z" /><glyph glyph-name="Thorn" unicode="þ" d="M145 0 L145 1366 L385 1366 L385 1137 L748 1137 Q887 1137 989.5 1077 Q1092 1017 1142 921 Q1192 825 1192 707 Q1192 525 1073 403 Q954 281 748 281 L385 281 L385 0 L145 0 ZM385 492 L715 492 Q817 492 881.5 551.5 Q946 611 946 707 Q946 805 881.5 865.5 Q817 926 715 926 L385 926 L385 492 Z" /><glyph glyph-name="germandbls" unicode="ß" d="M141 0 L141 993 Q141 1160 259 1273 Q377 1386 575 1386 Q736 1386 853.5 1309 Q971 1232 971 1108 Q971 1055 949.5 1010.5 Q928 966 896.5 938.5 Q865 911 827.5 883.5 Q790 856 758.5 835 Q727 814 705.5 785 Q684 756 684 723 Q684 692 708 670 Q732 648 771 636.5 Q810 625 860 612 Q910 599 962.5 587.5 Q1015 576 1065 552.5 Q1115 529 1154 497.5 Q1193 466 1217 412.5 Q1241 359 1241 289 Q1241 154 1135 64.5 Q1029 -25 844 -25 Q708 -25 620.5 16.5 Q533 58 451 137 L545 285 Q590 227 671 188.5 Q752 150 844 150 Q936 150 985 187.5 Q1034 225 1034 281 Q1034 315 1010 340 Q986 365 947 378.5 Q908 392 858 406.5 Q808 421 755.5 433 Q703 445 653 468 Q603 491 564 520.5 Q525 550 501 600.5 Q477 651 477 717 Q477 767 497 810.5 Q517 854 547.5 882.5 Q578 911 613.5 938 Q649 965 679.5 984.5 Q710 1004 730 1029 Q750 1054 750 1079 Q750 1134 696.5 1165 Q643 1196 571 1196 Q478 1196 417 1141 Q356 1086 356 993 L356 0 L141 0 Z" /><glyph glyph-name="agrave" unicode="à" d="M82 303 Q82 385 112 449.5 Q142 514 192.5 551.5 Q243 589 302 608 Q361 627 424 627 Q633 627 745 500 L745 647 Q745 732 681 781.5 Q617 831 514 831 Q344 831 221 705 L131 854 Q297 1014 547 1014 Q616 1014 675.5 1002.5 Q735 991 788 964 Q841 937 879 897 Q917 857 939 795.5 Q961 734 961 657 L961 0 L745 0 L745 109 Q690 45 606 10 Q522 -25 424 -25 Q363 -25 303 -3.5 Q243 18 193 57.5 Q143 97 112.5 161 Q82 225 82 303 ZM211 1434 L416 1434 L702 1139 L549 1139 L211 1434 ZM297 301 Q297 221 357.5 172 Q418 123 510 123 Q582 123 645 149.5 Q708 176 745 225 L745 377 Q708 426 645 452.5 Q582 479 510 479 Q418 479 357.5 429.5 Q297 380 297 301 Z" /><glyph glyph-name="aacute" unicode="á" d="M82 303 Q82 385 112 449.5 Q142 514 192.5 551.5 Q243 589 302 608 Q361 627 424 627 Q633 627 745 500 L745 647 Q745 732 681 781.5 Q617 831 514 831 Q344 831 221 705 L131 854 Q297 1014 547 1014 Q616 1014 675.5 1002.5 Q735 991 788 964 Q841 937 879 897 Q917 857 939 795.5 Q961 734 961 657 L961 0 L745 0 L745 109 Q690 45 606 10 Q522 -25 424 -25 Q363 -25 303 -3.5 Q243 18 193 57.5 Q143 97 112.5 161 Q82 225 82 303 ZM297 301 Q297 221 357.5 172 Q418 123 510 123 Q582 123 645 149.5 Q708 176 745 225 L745 377 Q708 426 645 452.5 Q582 479 510 479 Q418 479 357.5 429.5 Q297 380 297 301 ZM401 1139 L688 1434 L893 1434 L555 1139 L401 1139 Z" /><glyph glyph-name="acircumflex" unicode="â" d="M82 303 Q82 385 112 449.5 Q142 514 192.5 551.5 Q243 589 302 608 Q361 627 424 627 Q633 627 745 500 L745 647 Q745 732 681 781.5 Q617 831 514 831 Q344 831 221 705 L131 854 Q297 1014 547 1014 Q616 1014 675.5 1002.5 Q735 991 788 964 Q841 937 879 897 Q917 857 939 795.5 Q961 734 961 657 L961 0 L745 0 L745 109 Q690 45 606 10 Q522 -25 424 -25 Q363 -25 303 -3.5 Q243 18 193 57.5 Q143 97 112.5 161 Q82 225 82 303 ZM264 1139 L455 1434 L651 1434 L848 1139 L713 1139 L553 1337 L401 1139 L264 1139 ZM297 301 Q297 221 357.5 172 Q418 123 510 123 Q582 123 645 149.5 Q708 176 745 225 L745 377 Q708 426 645 452.5 Q582 479 510 479 Q418 479 357.5 429.5 Q297 380 297 301 Z" /><glyph glyph-name="atilde" unicode="ã" d="M82 303 Q82 385 112 449.5 Q142 514 192.5 551.5 Q243 589 302 608 Q361 627 424 627 Q633 627 745 500 L745 647 Q745 732 681 781.5 Q617 831 514 831 Q344 831 221 705 L131 854 Q297 1014 547 1014 Q616 1014 675.5 1002.5 Q735 991 788 964 Q841 937 879 897 Q917 857 939 795.5 Q961 734 961 657 L961 0 L745 0 L745 109 Q690 45 606 10 Q522 -25 424 -25 Q363 -25 303 -3.5 Q243 18 193 57.5 Q143 97 112.5 161 Q82 225 82 303 ZM221 1147 Q221 1275 276 1348 Q331 1421 432 1421 Q472 1421 503.5 1404.5 Q535 1388 555.5 1365 Q576 1342 593.5 1318.5 Q611 1295 632 1278.5 Q653 1262 676 1262 Q714 1262 738 1299 Q762 1336 762 1409 L879 1409 Q879 1281 824 1208 Q769 1135 668 1135 Q629 1135 597.5 1151.5 Q566 1168 545.5 1191 Q525 1214 507 1237.5 Q489 1261 468 1277.5 Q447 1294 424 1294 Q387 1294 363.5 1257 Q340 1220 340 1147 L221 1147 ZM297 301 Q297 221 357.5 172 Q418 123 510 123 Q582 123 645 149.5 Q708 176 745 225 L745 377 Q708 426 645 452.5 Q582 479 510 479 Q418 479 357.5 429.5 Q297 380 297 301 Z" /><glyph glyph-name="adieresis" unicode="ä" d="M82 303 Q82 385 112 449.5 Q142 514 192.5 551.5 Q243 589 302 608 Q361 627 424 627 Q633 627 745 500 L745 647 Q745 732 681 781.5 Q617 831 514 831 Q344 831 221 705 L131 854 Q297 1014 547 1014 Q616 1014 675.5 1002.5 Q735 991 788 964 Q841 937 879 897 Q917 857 939 795.5 Q961 734 961 657 L961 0 L745 0 L745 109 Q690 45 606 10 Q522 -25 424 -25 Q363 -25 303 -3.5 Q243 18 193 57.5 Q143 97 112.5 161 Q82 225 82 303 ZM211 1245 Q211 1296 246.5 1331 Q282 1366 332 1366 Q383 1366 418 1331 Q453 1296 453 1245 Q453 1195 418 1160.5 Q383 1126 332 1126 Q282 1126 246.5 1161 Q211 1196 211 1245 ZM297 301 Q297 221 357.5 172 Q418 123 510 123 Q582 123 645 149.5 Q708 176 745 225 L745 377 Q708 426 645 452.5 Q582 479 510 479 Q418 479 357.5 429.5 Q297 380 297 301 ZM641 1245 Q641 1296 675.5 1331 Q710 1366 760 1366 Q811 1366 846 1331 Q881 1296 881 1245 Q881 1195 846 1160.5 Q811 1126 760 1126 Q710 1126 675.5 1161 Q641 1196 641 1245 Z" /><glyph glyph-name="aring" unicode="å" d="M82 303 Q82 385 112 449.5 Q142 514 192.5 551.5 Q243 589 302 608 Q361 627 424 627 Q633 627 745 500 L745 647 Q745 732 681 781.5 Q617 831 514 831 Q344 831 221 705 L131 854 Q297 1014 547 1014 Q616 1014 675.5 1002.5 Q735 991 788 964 Q841 937 879 897 Q917 857 939 795.5 Q961 734 961 657 L961 0 L745 0 L745 109 Q690 45 606 10 Q522 -25 424 -25 Q363 -25 303 -3.5 Q243 18 193 57.5 Q143 97 112.5 161 Q82 225 82 303 ZM297 301 Q297 221 357.5 172 Q418 123 510 123 Q582 123 645 149.5 Q708 176 745 225 L745 377 Q708 426 645 452.5 Q582 479 510 479 Q418 479 357.5 429.5 Q297 380 297 301 ZM404.5 1175.5 Q342 1237 342 1323 Q342 1409 404.5 1471.5 Q467 1534 553 1534 Q639 1534 699.5 1472 Q760 1410 760 1323 Q760 1237 699.5 1175.5 Q639 1114 553 1114 Q467 1114 404.5 1175.5 ZM446 1323 Q446 1280 477.5 1248.5 Q509 1217 553 1217 Q596 1217 626.5 1248.5 Q657 1280 657 1323 Q657 1367 626.5 1398.5 Q596 1430 553 1430 Q509 1430 477.5 1398.5 Q446 1367 446 1323 Z" /><glyph glyph-name="ae" unicode="æ" d="M82 301 Q82 380 110 443 Q138 506 186 545.5 Q234 585 295 606 Q356 627 424 627 Q632 627 745 502 L745 647 Q745 732 681 781.5 Q617 831 514 831 Q344 831 221 705 L131 854 Q297 1014 547 1014 Q814 1014 885 829 Q1012 1014 1249 1014 Q1462 1014 1593 863.5 Q1724 713 1724 477 L1724 424 L963 424 Q976 308 1059 232 Q1142 156 1276 156 Q1351 156 1428.5 185.5 Q1506 215 1559 266 L1657 121 Q1582 51 1477.5 13 Q1373 -25 1255 -25 Q1124 -25 1019 26.5 Q914 78 846 166 Q781 84 678 29.5 Q575 -25 440 -25 Q373 -25 310 -4 Q247 17 195.5 56 Q144 95 113 159 Q82 223 82 301 ZM297 301 Q297 221 357.5 172 Q418 123 510 123 Q588 123 657.5 156.5 Q727 190 770 264 Q745 312 745 373 Q708 424 644.5 451.5 Q581 479 510 479 Q418 479 357.5 429.5 Q297 380 297 301 ZM961 578 L1518 578 Q1516 624 1498.5 668 Q1481 712 1449 751 Q1417 790 1362 814 Q1307 838 1237 838 Q1111 838 1039.5 759.5 Q968 681 961 578 Z" /><glyph glyph-name="ccedilla" unicode="ç" d="M80 496 Q80 721 223.5 867.5 Q367 1014 590 1014 Q838 1014 969 838 L827 709 Q747 823 600 823 Q467 823 384 732 Q301 641 301 496 Q301 351 384 258.5 Q467 166 600 166 Q743 166 827 285 L969 152 Q851 -5 639 -23 L608 -104 Q639 -82 682 -82 Q740 -82 778.5 -121.5 Q817 -161 817 -223 Q817 -299 753.5 -346 Q690 -393 596 -393 Q531 -393 472.5 -375 Q414 -357 379 -330 L426 -236 Q499 -295 592 -295 Q639 -295 672 -275.5 Q705 -256 705 -221 Q705 -160 639 -160 Q594 -160 567 -190 L485 -143 L528 -20 Q329 0 204.5 143.5 Q80 287 80 496 Z" /><glyph glyph-name="egrave" unicode="è" d="M80 496 Q80 638 143.5 756.5 Q207 875 323 944.5 Q439 1014 582 1014 Q802 1014 934.5 863.5 Q1067 713 1067 477 L1067 424 L305 424 Q318 308 401 230 Q484 152 618 152 Q694 152 771.5 181 Q849 210 901 262 L999 121 Q924 51 819.5 13 Q715 -25 598 -25 Q372 -25 226 119 Q80 263 80 496 ZM244 1434 L449 1434 L735 1139 L582 1139 L244 1434 ZM303 578 L860 578 Q858 624 840.5 668 Q823 712 791 751.5 Q759 791 704.5 814.5 Q650 838 580 838 Q454 838 382 758.5 Q310 679 303 578 Z" /><glyph glyph-name="eacute" unicode="é" d="M80 496 Q80 638 143.5 756.5 Q207 875 323 944.5 Q439 1014 582 1014 Q802 1014 934.5 863.5 Q1067 713 1067 477 L1067 424 L305 424 Q318 308 401 230 Q484 152 618 152 Q694 152 771.5 181 Q849 210 901 262 L999 121 Q924 51 819.5 13 Q715 -25 598 -25 Q372 -25 226 119 Q80 263 80 496 ZM303 578 L860 578 Q858 624 840.5 668 Q823 712 791 751.5 Q759 791 704.5 814.5 Q650 838 580 838 Q454 838 382 758.5 Q310 679 303 578 ZM430 1139 L717 1434 L922 1434 L584 1139 L430 1139 Z" /><glyph glyph-name="ecircumflex" unicode="ê" d="M80 496 Q80 638 143.5 756.5 Q207 875 323 944.5 Q439 1014 582 1014 Q802 1014 934.5 863.5 Q1067 713 1067 477 L1067 424 L305 424 Q318 308 401 230 Q484 152 618 152 Q694 152 771.5 181 Q849 210 901 262 L999 121 Q924 51 819.5 13 Q715 -25 598 -25 Q372 -25 226 119 Q80 263 80 496 ZM293 1139 L483 1434 L680 1434 L877 1139 L741 1139 L582 1337 L430 1139 L293 1139 ZM382 758.5 Q310 679 303 578 L860 578 Q858 624 840.5 668 Q823 712 791 751.5 Q759 791 704.5 814.5 Q650 838 580 838 Q454 838 382 758.5 Z" /><glyph glyph-name="edieresis" unicode="ë" d="M80 496 Q80 638 143.5 756.5 Q207 875 323 944.5 Q439 1014 582 1014 Q802 1014 934.5 863.5 Q1067 713 1067 477 L1067 424 L305 424 Q318 308 401 230 Q484 152 618 152 Q694 152 771.5 181 Q849 210 901 262 L999 121 Q924 51 819.5 13 Q715 -25 598 -25 Q372 -25 226 119 Q80 263 80 496 ZM248 1245 Q248 1296 283.5 1331 Q319 1366 369 1366 Q420 1366 454.5 1331 Q489 1296 489 1245 Q489 1195 454.5 1160.5 Q420 1126 369 1126 Q319 1126 283.5 1161 Q248 1196 248 1245 ZM303 578 L860 578 Q858 624 840.5 668 Q823 712 791 751.5 Q759 791 704.5 814.5 Q650 838 580 838 Q454 838 382 758.5 Q310 679 303 578 ZM678 1245 Q678 1296 712.5 1331 Q747 1366 797 1366 Q848 1366 883 1331 Q918 1296 918 1245 Q918 1195 883 1160.5 Q848 1126 797 1126 Q748 1126 713 1161 Q678 1196 678 1245 Z" /><glyph glyph-name="igrave" unicode="ì" d="M-92 1434 L113 1434 L399 1139 L246 1139 L-92 1434 ZM139 0 L139 989 L354 989 L354 0 L139 0 Z" /><glyph glyph-name="iacute" unicode="í" d="M94 1139 L381 1434 L586 1434 L248 1139 L94 1139 ZM139 0 L139 989 L354 989 L354 0 L139 0 Z" /><glyph glyph-name="icircumflex" unicode="î" d="M-45 1139 L145 1434 L342 1434 L539 1139 L403 1139 L244 1337 L92 1139 L-45 1139 ZM139 0 L139 989 L354 989 L354 0 L139 0 Z" /><glyph glyph-name="idieresis" unicode="ï" d="M-88 1245 Q-88 1296 -52.5 1331 Q-17 1366 33 1366 Q84 1366 119 1331 Q154 1296 154 1245 Q154 1195 119 1160.5 Q84 1126 33 1126 Q-17 1126 -52.5 1161 Q-88 1196 -88 1245 ZM139 0 L139 989 L354 989 L354 0 L139 0 ZM342 1245 Q342 1296 376.5 1331 Q411 1366 461 1366 Q512 1366 547 1331 Q582 1296 582 1245 Q582 1195 547 1160.5 Q512 1126 461 1126 Q412 1126 377 1161 Q342 1196 342 1245 Z" /><glyph glyph-name="eth" unicode="ð" d="M80 469 Q80 682 205.5 820 Q331 958 522 958 Q729 958 848 774 Q764 943 524 1116 L227 985 L184 1092 L414 1192 Q376 1217 274 1280 L391 1454 Q533 1366 635 1290 L850 1384 L895 1282 L733 1210 Q1096 890 1096 512 Q1096 274 958.5 124.5 Q821 -25 588 -25 Q360 -25 220 114 Q80 253 80 469 ZM303 469 Q303 342 380 254 Q457 166 588 166 Q721 166 796.5 253.5 Q872 341 872 469 Q872 595 796 682.5 Q720 770 588 770 Q457 770 380 682.5 Q303 595 303 469 Z" /><glyph glyph-name="ntilde" unicode="ñ" d="M150 0 L150 989 L365 989 L365 856 Q420 922 513 968 Q606 1014 715 1014 Q873 1014 953.5 932 Q1034 850 1034 696 L1034 0 L819 0 L819 618 Q819 729 767 776 Q715 823 618 823 Q542 823 474.5 785 Q407 747 365 692 L365 0 L150 0 ZM254 1147 Q254 1275 309 1348 Q364 1421 465 1421 Q505 1421 536.5 1404.5 Q568 1388 588.5 1365 Q609 1342 626.5 1318.5 Q644 1295 665 1278.5 Q686 1262 709 1262 Q747 1262 771 1299 Q795 1336 795 1409 L911 1409 Q911 1281 856 1208 Q801 1135 700 1135 Q661 1135 629.5 1151.5 Q598 1168 577.5 1191 Q557 1214 539.5 1237.5 Q522 1261 501 1277.5 Q480 1294 457 1294 Q420 1294 396.5 1257 Q373 1220 373 1147 L254 1147 Z" /><glyph glyph-name="ograve" unicode="ò" d="M80 496 Q80 639 140.5 756 Q201 873 318 943.5 Q435 1014 588 1014 Q741 1014 858 943.5 Q975 873 1035.5 756 Q1096 639 1096 496 Q1096 390 1060.5 295.5 Q1025 201 960.5 129.5 Q896 58 799.5 16.5 Q703 -25 588 -25 Q473 -25 376.5 16.5 Q280 58 215.5 129.5 Q151 201 115.5 295.5 Q80 390 80 496 ZM250 1434 L455 1434 L741 1139 L588 1139 L250 1434 ZM303 496 Q303 358 380 262 Q457 166 588 166 Q720 166 796 261.5 Q872 357 872 496 Q872 634 796 728.5 Q720 823 588 823 Q457 823 380 728 Q303 633 303 496 Z" /><glyph glyph-name="oacute" unicode="ó" d="M80 496 Q80 639 140.5 756 Q201 873 318 943.5 Q435 1014 588 1014 Q741 1014 858 943.5 Q975 873 1035.5 756 Q1096 639 1096 496 Q1096 390 1060.5 295.5 Q1025 201 960.5 129.5 Q896 58 799.5 16.5 Q703 -25 588 -25 Q473 -25 376.5 16.5 Q280 58 215.5 129.5 Q151 201 115.5 295.5 Q80 390 80 496 ZM303 496 Q303 358 380 262 Q457 166 588 166 Q720 166 796 261.5 Q872 357 872 496 Q872 634 796 728.5 Q720 823 588 823 Q457 823 380 728 Q303 633 303 496 ZM434 1139 L721 1434 L926 1434 L588 1139 L434 1139 Z" /><glyph glyph-name="ocircumflex" unicode="ô" d="M80 496 Q80 639 140.5 756 Q201 873 318 943.5 Q435 1014 588 1014 Q741 1014 858 943.5 Q975 873 1035.5 756 Q1096 639 1096 496 Q1096 390 1060.5 295.5 Q1025 201 960.5 129.5 Q896 58 799.5 16.5 Q703 -25 588 -25 Q473 -25 376.5 16.5 Q280 58 215.5 129.5 Q151 201 115.5 295.5 Q80 390 80 496 ZM299 1139 L489 1434 L686 1434 L883 1139 L748 1139 L588 1337 L436 1139 L299 1139 ZM303 496 Q303 358 380 262 Q457 166 588 166 Q720 166 796 261.5 Q872 357 872 496 Q872 634 796 728.5 Q720 823 588 823 Q457 823 380 728 Q303 633 303 496 Z" /><glyph glyph-name="otilde" unicode="õ" d="M80 496 Q80 639 140.5 756 Q201 873 318 943.5 Q435 1014 588 1014 Q741 1014 858 943.5 Q975 873 1035.5 756 Q1096 639 1096 496 Q1096 390 1060.5 295.5 Q1025 201 960.5 129.5 Q896 58 799.5 16.5 Q703 -25 588 -25 Q473 -25 376.5 16.5 Q280 58 215.5 129.5 Q151 201 115.5 295.5 Q80 390 80 496 ZM260 1147 Q260 1275 315 1348 Q370 1421 471 1421 Q511 1421 542.5 1404.5 Q574 1388 594.5 1365 Q615 1342 632.5 1318.5 Q650 1295 671 1278.5 Q692 1262 715 1262 Q753 1262 777 1299 Q801 1336 801 1409 L918 1409 Q918 1281 863 1208 Q808 1135 707 1135 Q668 1135 636.5 1151.5 Q605 1168 584.5 1191 Q564 1214 546 1237.5 Q528 1261 507 1277.5 Q486 1294 463 1294 Q426 1294 402.5 1257 Q379 1220 379 1147 L260 1147 ZM303 496 Q303 358 380 262 Q457 166 588 166 Q720 166 796 261.5 Q872 357 872 496 Q872 634 796 728.5 Q720 823 588 823 Q457 823 380 728 Q303 633 303 496 Z" /><glyph glyph-name="odieresis" unicode="ö" d="M80 496 Q80 639 140.5 756 Q201 873 318 943.5 Q435 1014 588 1014 Q741 1014 858 943.5 Q975 873 1035.5 756 Q1096 639 1096 496 Q1096 390 1060.5 295.5 Q1025 201 960.5 129.5 Q896 58 799.5 16.5 Q703 -25 588 -25 Q473 -25 376.5 16.5 Q280 58 215.5 129.5 Q151 201 115.5 295.5 Q80 390 80 496 ZM252 1245 Q252 1296 287.5 1331 Q323 1366 373 1366 Q424 1366 459 1331 Q494 1296 494 1245 Q494 1195 459 1160.5 Q424 1126 373 1126 Q323 1126 287.5 1161 Q252 1196 252 1245 ZM303 496 Q303 358 380 262 Q457 166 588 166 Q720 166 796 261.5 Q872 357 872 496 Q872 634 796 728.5 Q720 823 588 823 Q457 823 380 728 Q303 633 303 496 ZM682 1245 Q682 1296 716.5 1331 Q751 1366 801 1366 Q852 1366 887 1331 Q922 1296 922 1245 Q922 1195 887 1160.5 Q852 1126 801 1126 Q752 1126 717 1161 Q682 1196 682 1245 Z" /><glyph glyph-name="divide" unicode="÷" d="M59 623 L59 760 L987 760 L987 623 L59 623 ZM445 232 Q412 265 412 311 Q412 357 445 389.5 Q478 422 524 422 Q570 422 602.5 389.5 Q635 357 635 311 Q635 265 602.5 232 Q570 199 524 199 Q478 199 445 232 ZM412 1067 Q412 1112 445 1144 Q478 1176 524 1176 Q570 1176 602.5 1144.5 Q635 1113 635 1067 Q635 1021 602 986.5 Q569 952 524 952 Q479 952 445.5 986.5 Q412 1021 412 1067 Z" /><glyph glyph-name="oslash" unicode="ø" d="M80 496 Q80 639 140.5 756 Q201 873 318 943.5 Q435 1014 588 1014 Q745 1014 872 934 L920 989 L1061 989 L956 864 Q1096 718 1096 496 Q1096 390 1060.5 295.5 Q1025 201 960.5 129.5 Q896 58 799.5 16.5 Q703 -25 588 -25 Q417 -25 295 61 L244 0 L104 0 L213 131 Q80 276 80 496 ZM303 496 Q303 381 352 299 L743 776 Q677 823 588 823 Q457 823 380 728 Q303 633 303 496 ZM424 219 Q496 166 588 166 Q720 166 796 261.5 Q872 357 872 496 Q872 610 819 696 L424 219 Z" /><glyph glyph-name="ugrave" unicode="ù" d="M139 289 L139 989 L354 989 L354 369 Q354 259 405.5 212.5 Q457 166 555 166 Q632 166 699.5 203.5 Q767 241 807 295 L807 989 L1022 989 L1022 0 L807 0 L807 131 Q748 65 657.5 20 Q567 -25 459 -25 Q301 -25 220 56 Q139 137 139 289 ZM248 1434 L453 1434 L739 1139 L586 1139 L248 1434 Z" /><glyph glyph-name="uacute" unicode="ú" d="M139 289 L139 989 L354 989 L354 369 Q354 259 405.5 212.5 Q457 166 555 166 Q632 166 699.5 203.5 Q767 241 807 295 L807 989 L1022 989 L1022 0 L807 0 L807 131 Q748 65 657.5 20 Q567 -25 459 -25 Q301 -25 220 56 Q139 137 139 289 ZM430 1139 L717 1434 L922 1434 L584 1139 L430 1139 Z" /><glyph glyph-name="ucircumflex" unicode="û" d="M139 289 L139 989 L354 989 L354 369 Q354 259 405.5 212.5 Q457 166 555 166 Q632 166 699.5 203.5 Q767 241 807 295 L807 989 L1022 989 L1022 0 L807 0 L807 131 Q748 65 657.5 20 Q567 -25 459 -25 Q301 -25 220 56 Q139 137 139 289 ZM291 1139 L481 1434 L678 1434 L874 1139 L739 1139 L580 1337 L428 1139 L291 1139 Z" /><glyph glyph-name="udieresis" unicode="ü" d="M139 289 L139 989 L354 989 L354 369 Q354 259 405.5 212.5 Q457 166 555 166 Q632 166 699.5 203.5 Q767 241 807 295 L807 989 L1022 989 L1022 0 L807 0 L807 131 Q748 65 657.5 20 Q567 -25 459 -25 Q301 -25 220 56 Q139 137 139 289 ZM252 1245 Q252 1296 287.5 1331 Q323 1366 373 1366 Q424 1366 459 1331 Q494 1296 494 1245 Q494 1195 459 1160.5 Q424 1126 373 1126 Q323 1126 287.5 1161 Q252 1196 252 1245 ZM682 1245 Q682 1296 716.5 1331 Q751 1366 801 1366 Q852 1366 887 1331 Q922 1296 922 1245 Q922 1195 887 1160.5 Q852 1126 801 1126 Q752 1126 717 1161 Q682 1196 682 1245 Z" /><glyph glyph-name="yacute" unicode="ý" d="M-4 989 L227 989 L516 248 L805 989 L1034 989 L557 -178 Q508 -298 425 -348.5 Q342 -399 219 -401 Q149 -401 98 -387 L129 -195 Q166 -211 211 -211 Q266 -211 299.5 -192 Q333 -173 354 -125 L403 -12 L-4 989 ZM362 1139 L649 1434 L854 1434 L516 1139 L362 1139 Z" /><glyph glyph-name="thorn" unicode="þ" d="M139 -377 L139 1366 L354 1366 L354 854 Q410 929 493.5 971.5 Q577 1014 672 1014 Q868 1014 989 875 Q1110 736 1110 496 Q1110 255 988.5 115 Q867 -25 672 -25 Q482 -25 354 137 L354 -377 L139 -377 ZM354 301 Q390 244 462 205 Q534 166 608 166 Q735 166 812 258 Q889 350 889 496 Q889 642 812 732.5 Q735 823 608 823 Q534 823 462.5 785.5 Q391 748 354 692 L354 301 Z" /><glyph glyph-name="ydieresis" unicode="ÿ" d="M-4 989 L227 989 L516 248 L805 989 L1034 989 L557 -178 Q508 -298 425 -348.5 Q342 -399 219 -401 Q149 -401 98 -387 L129 -195 Q166 -211 211 -211 Q266 -211 299.5 -192 Q333 -173 354 -125 L403 -12 L-4 989 ZM180 1245 Q180 1296 215.5 1331 Q251 1366 301 1366 Q352 1366 387 1331 Q422 1296 422 1245 Q422 1195 387 1160.5 Q352 1126 301 1126 Q251 1126 215.5 1161 Q180 1196 180 1245 ZM610 1245 Q610 1296 644.5 1331 Q679 1366 729 1366 Q780 1366 815 1331 Q850 1296 850 1245 Q850 1195 815 1160.5 Q780 1126 729 1126 Q680 1126 645 1161 Q610 1196 610 1245 Z" /><glyph glyph-name="OE" unicode="&#x152;" d="M171 318 Q86 479 86 682 Q86 885 171 1045.5 Q256 1206 410 1296 Q564 1386 760 1386 Q893 1386 1014 1330 Q1135 1274 1206 1169 L1206 1366 L2142 1366 L2142 1155 L1446 1155 L1446 803 L2128 803 L2128 592 L1446 592 L1446 211 L2142 211 L2142 0 L1206 0 L1206 199 Q1135 92 1013.5 33.5 Q892 -25 760 -25 Q564 -25 410 66 Q256 157 171 318 ZM332 682 Q332 467 457.5 327.5 Q583 188 793 188 Q933 188 1042 260 Q1151 332 1206 467 L1206 901 Q1151 1034 1042.5 1104 Q934 1174 793 1174 Q583 1174 457.5 1036 Q332 898 332 682 Z" /><glyph glyph-name="oe" unicode="&#x153;" d="M80 496 Q80 639 140.5 756 Q201 873 318 943.5 Q435 1014 588 1014 Q840 1014 983 768 Q1007 811 1038 849.5 Q1069 888 1116.5 927.5 Q1164 967 1230.5 990.5 Q1297 1014 1374 1014 Q1594 1014 1728 863.5 Q1862 713 1862 477 L1862 424 L1098 424 Q1111 308 1195 230 Q1279 152 1413 152 Q1487 152 1565 181.5 Q1643 211 1694 262 L1792 121 Q1719 51 1614.5 13 Q1510 -25 1391 -25 Q1123 -25 983 221 Q838 -25 588 -25 Q473 -25 376.5 16.5 Q280 58 215.5 129.5 Q151 201 115.5 295.5 Q80 390 80 496 ZM303 496 Q303 353 381 258.5 Q459 164 588 164 Q717 164 794.5 258.5 Q872 353 872 496 Q872 637 794.5 730 Q717 823 588 823 Q459 823 381 730 Q303 637 303 496 ZM1096 578 L1653 578 Q1651 624 1634.5 668.5 Q1618 713 1586 751.5 Q1554 790 1499 814 Q1444 838 1374 838 Q1308 838 1255 815 Q1202 792 1169.5 753.5 Q1137 715 1118.5 670.5 Q1100 626 1096 578 Z" /><glyph glyph-name="Ydieresis" unicode="&#x178;" d="M4 1366 L279 1366 L653 782 L1028 1366 L1303 1366 L774 567 L774 0 L535 0 L535 567 L4 1366 ZM324 1597 Q324 1648 359 1683 Q394 1718 444 1718 Q495 1718 530 1683 Q565 1648 565 1597 Q565 1547 530 1513 Q495 1479 444 1479 Q394 1479 359 1513.5 Q324 1548 324 1597 ZM754 1597 Q754 1648 788 1683 Q822 1718 872 1718 Q923 1718 958 1683 Q993 1648 993 1597 Q993 1547 958 1513 Q923 1479 872 1479 Q822 1479 788 1513.5 Q754 1548 754 1597 Z" /><glyph glyph-name="circumflex" unicode="&#x2c6;" d="M0 1139 L190 1434 L387 1434 L584 1139 L449 1139 L289 1337 L137 1139 L0 1139 Z" /><glyph glyph-name="tilde" unicode="&#x2dc;" d="M0 1147 Q0 1275 55 1348 Q110 1421 211 1421 Q251 1421 282.5 1404.5 Q314 1388 334.5 1365 Q355 1342 372.5 1318.5 Q390 1295 411 1278.5 Q432 1262 455 1262 Q493 1262 517 1299 Q541 1336 541 1409 L657 1409 Q657 1281 602 1208 Q547 1135 446 1135 Q407 1135 375.5 1151.5 Q344 1168 323.5 1191 Q303 1214 285.5 1237.5 Q268 1261 247 1277.5 Q226 1294 203 1294 Q166 1294 142.5 1257 Q119 1220 119 1147 L0 1147 Z" /><glyph glyph-name="uni2000" unicode="&#x2000;" d="" /><glyph glyph-name="uni2001" unicode="&#x2001;" d="" /><glyph glyph-name="uni2002" unicode="&#x2002;" d="" /><glyph glyph-name="uni2003" unicode="&#x2003;" d="" /><glyph glyph-name="uni2004" unicode="&#x2004;" d="" /><glyph glyph-name="uni2005" unicode="&#x2005;" d="" /><glyph glyph-name="uni2006" unicode="&#x2006;" d="" /><glyph glyph-name="uni2007" unicode="&#x2007;" d="" /><glyph glyph-name="uni2008" unicode="&#x2008;" d="" /><glyph glyph-name="uni2009" unicode="&#x2009;" d="" /><glyph glyph-name="uni200A" unicode="&#x200a;" d="" /><glyph glyph-name="uni2010" unicode="&#x2010;" d="M61 403 L61 588 L553 588 L553 403 L61 403 Z" /><glyph glyph-name="uni2011" unicode="&#x2011;" d="M61 403 L61 588 L553 588 L553 403 L61 403 Z" /><glyph glyph-name="figuredash" unicode="&#x2012;" d="M61 403 L61 588 L553 588 L553 403 L61 403 Z" /><glyph glyph-name="endash" unicode="&#x2013;" d="M61 403 L61 588 L1153 588 L1153 403 L61 403 Z" /><glyph glyph-name="emdash" unicode="&#x2014;" d="M61 403 L61 588 L1645 588 L1645 403 L61 403 Z" /><glyph glyph-name="quoteleft" unicode="&#x2018;" d="M88 1038 Q88 1141 140 1234 Q192 1327 279 1389 L377 1309 Q326 1279 282 1223 Q238 1167 229 1116 Q241 1122 264 1122 Q316 1122 350.5 1085.5 Q385 1049 385 993 Q385 934 344.5 893 Q304 852 246 852 Q180 852 134 902 Q88 952 88 1038 Z" /><glyph glyph-name="quoteright" unicode="&#x2019;" d="M109 1247 Q109 1304 149.5 1345 Q190 1386 248 1386 Q314 1386 360 1336 Q406 1286 406 1200 Q406 1097 354 1005.5 Q302 914 215 852 L117 930 Q168 960 211.5 1015.5 Q255 1071 264 1122 Q256 1118 229 1118 Q178 1118 143.5 1154.5 Q109 1191 109 1247 Z" /><glyph glyph-name="quotesinglbase" unicode="&#x201a;" d="M143.5 31 Q109 68 109 125 Q109 182 149.5 223 Q190 264 248 264 Q314 264 360 214 Q406 164 406 78 Q406 -25 354 -117.5 Q302 -210 215 -272 L117 -193 Q168 -163 211.5 -107 Q255 -51 264 0 Q252 -6 229 -6 Q178 -6 143.5 31 Z" /><glyph glyph-name="quotedblleft" unicode="&#x201c;" d="M94 1038 Q94 1141 147 1234 Q200 1327 287 1389 L383 1309 Q333 1279 289.5 1223.5 Q246 1168 236 1116 Q254 1122 270 1122 Q323 1122 358 1086 Q393 1050 393 993 Q393 935 352 893.5 Q311 852 254 852 Q188 852 141 902 Q94 952 94 1038 ZM473 1038 Q473 1141 526 1234 Q579 1327 666 1389 L762 1309 Q711 1279 667.5 1223 Q624 1167 614 1116 Q632 1122 649 1122 Q702 1122 737 1086 Q772 1050 772 993 Q772 935 731 893.5 Q690 852 633 852 Q567 852 520 902 Q473 952 473 1038 Z" /><glyph glyph-name="quotedblright" unicode="&#x201d;" d="M109 1247 Q109 1304 149.5 1345 Q190 1386 248 1386 Q314 1386 360 1336 Q406 1286 406 1200 Q406 1097 354 1005.5 Q302 914 215 852 L117 930 Q168 960 211.5 1015.5 Q255 1071 264 1122 Q256 1118 229 1118 Q178 1118 143.5 1154.5 Q109 1191 109 1247 ZM487 1247 Q487 1304 528 1345 Q569 1386 627 1386 Q693 1386 738.5 1336 Q784 1286 784 1200 Q784 1097 732.5 1005.5 Q681 914 594 852 L496 930 Q547 960 590.5 1015.5 Q634 1071 643 1122 Q635 1118 608 1118 Q556 1118 521.5 1154.5 Q487 1191 487 1247 Z" /><glyph glyph-name="quotedblbase" unicode="&#x201e;" d="M143.5 31 Q109 68 109 125 Q109 182 149.5 223 Q190 264 248 264 Q314 264 360 214 Q406 164 406 78 Q406 -25 354 -117.5 Q302 -210 215 -272 L117 -193 Q168 -163 211.5 -107 Q255 -51 264 0 Q252 -6 229 -6 Q178 -6 143.5 31 ZM522 31 Q487 68 487 125 Q487 182 528 223 Q569 264 627 264 Q693 264 738.5 214 Q784 164 784 78 Q784 -25 732.5 -118 Q681 -211 594 -272 L496 -193 Q547 -163 590.5 -107 Q634 -51 643 0 Q631 -6 608 -6 Q557 -6 522 31 Z" /><glyph glyph-name="bullet" unicode="&#x2022;" d="M135 496 Q135 593 203.5 661 Q272 729 369 729 Q466 729 534 661 Q602 593 602 496 Q602 400 534 332 Q466 264 369 264 Q272 264 203.5 332.5 Q135 401 135 496 Z" /><glyph glyph-name="ellipsis" unicode="&#x2026;" d="M109 123 Q109 180 151.5 222 Q194 264 252 264 Q310 264 351.5 222 Q393 180 393 123 Q393 64 351.5 22 Q310 -20 252 -20 Q194 -20 151.5 22 Q109 64 109 123 ZM610 123 Q610 180 653 222 Q696 264 754 264 Q812 264 853.5 222 Q895 180 895 123 Q895 64 853.5 22 Q812 -20 754 -20 Q695 -20 652.5 22.5 Q610 65 610 123 ZM1112 123 Q1112 180 1154.5 222 Q1197 264 1255 264 Q1313 264 1355 222 Q1397 180 1397 123 Q1397 64 1355 22 Q1313 -20 1255 -20 Q1196 -20 1154 22 Q1112 64 1112 123 Z" /><glyph glyph-name="uni202F" unicode="&#x202f;" d="" /><glyph glyph-name="guilsinglleft" unicode="&#x2039;" d="M61 498 L389 860 L594 860 L266 498 L594 129 L389 129 L61 498 Z" /><glyph glyph-name="guilsinglright" unicode="&#x203a;" d="M61 129 L389 498 L61 860 L266 860 L594 498 L266 129 L61 129 Z" /><glyph glyph-name="uni205F" unicode="&#x205f;" d="" /><glyph glyph-name="Euro" unicode="&#x20ac;" d="M53 471 L53 610 L135 610 Q133 633 133 682 Q133 706 137 760 L53 760 L53 899 L164 899 Q230 1123 416 1256 Q602 1389 850 1389 Q1042 1389 1178 1304.5 Q1314 1220 1397 1083 L1194 977 Q1143 1065 1050 1120.5 Q957 1176 850 1176 Q704 1176 590.5 1101.5 Q477 1027 422 899 L971 899 L971 760 L383 760 Q379 706 379 682 Q379 633 383 610 L971 610 L971 471 L420 471 Q475 340 588.5 264 Q702 188 850 188 Q956 188 1049.5 244 Q1143 300 1194 387 L1399 285 Q1202 -25 850 -25 Q601 -25 413.5 109.5 Q226 244 162 471 L53 471 Z" /><glyph glyph-name="trademark" unicode="&#x2122;" d="M35 1313 L35 1366 L346 1366 L346 1313 L219 1313 L219 915 L162 915 L162 1313 L35 1313 ZM420 915 L420 1366 L508 1366 L639 1038 L770 1366 L858 1366 L858 915 L801 915 L801 1288 L647 915 L631 915 L477 1288 L477 915 L420 915 Z" /><glyph glyph-name="uni25FC" unicode="&#x25fc;" d="M0 0 L0 993 L993 993 L993 0 L0 0 Z" /><glyph glyph-name="fi" unicode="&#xfb01;" d="M29 803 L29 989 L193 989 L193 1044 Q193 1206 279 1296 Q365 1386 504 1386 Q613 1386 678 1350 L631 1188 Q595 1210 545 1210 Q479 1210 443.5 1168 Q408 1126 408 1044 L408 989 L608 989 L608 803 L408 803 L408 0 L193 0 L193 803 L29 803 ZM787 1149 Q748 1188 748 1243 Q748 1298 787 1337 Q826 1376 881 1376 Q936 1376 975 1337 Q1014 1298 1014 1243 Q1014 1188 975 1149 Q936 1110 881 1110 Q826 1110 787 1149 ZM772 0 L772 989 L987 989 L987 0 L772 0 Z" /><glyph glyph-name="fl" unicode="&#xfb02;" d="M29 803 L29 989 L193 989 L193 1044 Q193 1206 279 1296 Q365 1386 504 1386 Q613 1386 678 1350 L631 1188 Q595 1210 545 1210 Q479 1210 443.5 1168 Q408 1126 408 1044 L408 989 L608 989 L608 803 L408 803 L408 0 L193 0 L193 803 L29 803 ZM772 0 L772 1366 L987 1366 L987 0 L772 0 Z" /><glyph glyph-name="uniFB03" unicode="&#xfb03;" d="M29 803 L29 989 L193 989 L193 1044 Q193 1203 278 1294.5 Q363 1386 504 1386 Q660 1386 741 1300 L657 1167 Q611 1210 545 1210 Q479 1210 443.5 1168 Q408 1126 408 1044 L408 989 L608 989 L608 803 L408 803 L408 0 L193 0 L193 803 L29 803 ZM662 803 L662 989 L825 989 L825 1044 Q825 1206 911.5 1296 Q998 1386 1137 1386 Q1246 1386 1311 1350 L1264 1188 Q1228 1210 1178 1210 Q1112 1210 1076 1168 Q1040 1126 1040 1044 L1040 989 L1241 989 L1241 803 L1040 803 L1040 0 L825 0 L825 803 L662 803 ZM1417 1149 Q1378 1188 1378 1243 Q1378 1298 1417 1337 Q1456 1376 1511 1376 Q1567 1376 1606 1337 Q1645 1298 1645 1243 Q1645 1188 1606 1149 Q1567 1110 1511 1110 Q1456 1110 1417 1149 ZM1403 0 L1403 989 L1618 989 L1618 0 L1403 0 Z" /><glyph glyph-name="uniFB04" unicode="&#xfb04;" d="M29 803 L29 989 L193 989 L193 1044 Q193 1203 278 1294.5 Q363 1386 504 1386 Q660 1386 741 1300 L657 1167 Q611 1210 545 1210 Q479 1210 443.5 1168 Q408 1126 408 1044 L408 989 L608 989 L608 803 L408 803 L408 0 L193 0 L193 803 L29 803 ZM662 803 L662 989 L825 989 L825 1044 Q825 1206 911.5 1296 Q998 1386 1137 1386 Q1246 1386 1311 1350 L1264 1188 Q1228 1210 1178 1210 Q1112 1210 1076 1168 Q1040 1126 1040 1044 L1040 989 L1241 989 L1241 803 L1040 803 L1040 0 L825 0 L825 803 L662 803 ZM1403 0 L1403 1366 L1618 1366 L1618 0 L1403 0 Z" /></font>
</defs>
</svg>
