<?xml version="1.0" encoding="utf-8"?>
<!-- Generator: Adobe Illustrator 16.0.0, SVG Export Plug-In . SVG Version: 6.00 Build 0)  -->
<!DOCTYPE svg PUBLIC "-//W3C//DTD SVG 1.1//EN" "http://www.w3.org/Graphics/SVG/1.1/DTD/svg11.dtd">
<svg version="1.1" id="Layer_1" xmlns="http://www.w3.org/2000/svg" xmlns:xlink="http://www.w3.org/1999/xlink" x="0px" y="0px"
	 width="19.992px" height="30.844px" viewBox="0 0 19.992 30.844" enable-background="new 0 0 19.992 30.844" xml:space="preserve">
<g id="New_Symbol_16">
	<g>
		<g>
			<path fill="#FFFFFF" d="M9.995,6.316c-2.059,0-3.734,1.676-3.734,3.734c0,2.06,1.675,3.734,3.734,3.734
				c2.06,0,3.735-1.675,3.735-3.734C13.73,7.992,12.055,6.316,9.995,6.316z"/>
		</g>
		<g>
			<path fill="#F9A225" d="M9.995,0.649c-5.188,0-9.4,4.411-9.4,9.849c0,5.439,9.4,19.697,9.4,19.697s9.402-14.258,9.402-19.697
				C19.397,5.06,15.188,0.649,9.995,0.649z M9.995,15.423c-2.967,0-5.372-2.404-5.372-5.373c0-2.968,2.405-5.372,5.372-5.372
				c2.969,0,5.372,2.403,5.372,5.372C15.367,13.019,12.964,15.423,9.995,15.423z"/>
			<path fill="#F9A225" d="M9.995,30.689L9.995,30.689c-0.166,0-0.321-0.083-0.413-0.223C9.195,29.879,0.1,16.022,0.1,10.498
				c0-5.704,4.439-10.344,9.895-10.344c5.458,0,9.897,4.64,9.897,10.344c0,5.524-9.097,19.381-9.484,19.969
				C10.317,30.606,10.162,30.689,9.995,30.689z M9.995,1.145c-4.91,0-8.905,4.196-8.905,9.354c0,4.588,7.1,15.966,8.905,18.785
				c1.806-2.819,8.907-14.197,8.907-18.785C18.902,5.34,14.907,1.145,9.995,1.145z M9.995,15.918c-3.235,0-5.867-2.633-5.867-5.868
				c0-3.235,2.632-5.867,5.867-5.867s5.867,2.632,5.867,5.867C15.862,13.285,13.23,15.918,9.995,15.918z M9.995,5.173
				c-2.689,0-4.877,2.188-4.877,4.877s2.188,4.878,4.877,4.878s4.877-2.188,4.877-4.878S12.685,5.173,9.995,5.173z"/>
		</g>
	</g>
</g>
<g id="New_Symbol">
</g>
</svg>
